<svg width="14" height="14" viewBox="0 0 14 14" fill="none" xmlns="http://www.w3.org/2000/svg">
<g clip-path="url(#clip0_91_980)">
<path d="M11.822 4.60445L8.5361 4.12691L7.06723 1.14905C7.02711 1.06752 6.96111 1.00152 6.87958 0.961398C6.6751 0.860454 6.42663 0.944574 6.32439 1.14905L4.85552 4.12691L1.56965 4.60445C1.47906 4.61739 1.39624 4.6601 1.33282 4.72481C1.25616 4.8036 1.21391 4.90961 1.21537 5.01954C1.21682 5.12947 1.26186 5.23432 1.34059 5.31106L3.71795 7.6289L3.15629 10.9018C3.14312 10.978 3.15154 11.0563 3.18061 11.1279C3.20968 11.1994 3.25822 11.2615 3.32074 11.3069C3.38325 11.3523 3.45724 11.3792 3.53431 11.3847C3.61138 11.3902 3.68845 11.374 3.75678 11.338L6.69581 9.79273L9.63484 11.338C9.71508 11.3807 9.80826 11.3949 9.89756 11.3794C10.1227 11.3405 10.2742 11.127 10.2353 10.9018L9.67367 7.6289L12.051 5.31106C12.1157 5.24765 12.1584 5.16482 12.1714 5.07423C12.2063 4.84775 12.0484 4.6381 11.822 4.60445Z" fill="#B2B2B2"/>
</g>
<defs>
<clipPath id="clip0_91_980">
<rect width="13.2522" height="13.2522" fill="white" transform="translate(0.0693359 0.03479)"/>
</clipPath>
</defs>
</svg>
