<svg width="14" height="14" viewBox="0 0 14 14" fill="none" xmlns="http://www.w3.org/2000/svg">
<g clip-path="url(#clip0_91_977)">
<path d="M12.4396 4.60445L9.15378 4.12691L7.68491 1.14905C7.64479 1.06752 7.57879 1.00152 7.49726 0.961398C7.29278 0.860454 7.0443 0.944574 6.94206 1.14905L5.47319 4.12691L2.18733 4.60445C2.09674 4.61739 2.01391 4.6601 1.9505 4.72481C1.87383 4.8036 1.83159 4.90961 1.83304 5.01954C1.8345 5.12947 1.87954 5.23432 1.95826 5.31106L4.33563 7.6289L3.77397 10.9018C3.76079 10.978 3.76922 11.0563 3.79828 11.1279C3.82735 11.1994 3.87589 11.2615 3.93841 11.3069C4.00093 11.3523 4.07492 11.3792 4.15199 11.3847C4.22906 11.3902 4.30613 11.374 4.37445 11.338L7.31349 9.79273L10.2525 11.338C10.3328 11.3807 10.4259 11.3949 10.5152 11.3794C10.7404 11.3405 10.8918 11.127 10.853 10.9018L10.2913 7.6289L12.6687 5.31106C12.7334 5.24765 12.7761 5.16482 12.7891 5.07423C12.824 4.84775 12.6661 4.6381 12.4396 4.60445Z" fill="#FFC416"/>
</g>
<defs>
<clipPath id="clip0_91_977">
<rect width="13.2522" height="13.2522" fill="white" transform="translate(0.687012 0.03479)"/>
</clipPath>
</defs>
</svg>
