<svg width="14" height="14" viewBox="0 0 14 14" fill="none" xmlns="http://www.w3.org/2000/svg">
<g clip-path="url(#clip0_91_1086)">
<path d="M12.4396 4.60447L9.15378 4.12692L7.68491 1.14907C7.64479 1.06753 7.57879 1.00153 7.49726 0.961413C7.29278 0.860469 7.0443 0.944589 6.94206 1.14907L5.47319 4.12692L2.18733 4.60447C2.09674 4.61741 2.01391 4.66012 1.9505 4.72482C1.87383 4.80362 1.83159 4.90963 1.83304 5.01956C1.8345 5.12949 1.87954 5.23434 1.95826 5.31108L4.33563 7.62891L3.77397 10.9018C3.76079 10.978 3.76922 11.0563 3.79828 11.1279C3.82735 11.1995 3.87589 11.2615 3.93841 11.3069C4.00093 11.3523 4.07492 11.3793 4.15199 11.3848C4.22906 11.3903 4.30613 11.374 4.37445 11.338L7.31349 9.79274L10.2525 11.338C10.3328 11.3807 10.4259 11.3949 10.5152 11.3794C10.7404 11.3406 10.8918 11.127 10.853 10.9018L10.2913 7.62891L12.6687 5.31108C12.7334 5.24766 12.7761 5.16484 12.7891 5.07425C12.824 4.84777 12.6661 4.63811 12.4396 4.60447V4.60447Z" fill="#FFC416"/>
</g>
<defs>
<clipPath id="clip0_91_1086">
<rect width="13.2522" height="13.2522" fill="white" transform="translate(0.687012 0.03479)"/>
</clipPath>
</defs>
</svg>
