<svg width="14" height="14" viewBox="0 0 14 14" fill="none" xmlns="http://www.w3.org/2000/svg">
<g clip-path="url(#clip0_91_1052)">
<path d="M12.3615 4.60445L9.07565 4.12691L7.60678 1.14905C7.56667 1.06752 7.50066 1.00152 7.41913 0.961398C7.21465 0.860454 6.96618 0.944574 6.86394 1.14905L5.39507 4.12691L2.1092 4.60445C2.01861 4.61739 1.93579 4.6601 1.87237 4.72481C1.79571 4.8036 1.75346 4.90961 1.75492 5.01954C1.75638 5.12947 1.80141 5.23432 1.88014 5.31106L4.2575 7.6289L3.69584 10.9018C3.68267 10.978 3.69109 11.0563 3.72016 11.1279C3.74923 11.1994 3.79777 11.2615 3.86029 11.3069C3.9228 11.3523 3.99679 11.3792 4.07386 11.3847C4.15093 11.3902 4.228 11.374 4.29633 11.338L7.23536 9.79273L10.1744 11.338C10.2546 11.3807 10.3478 11.3949 10.4371 11.3794C10.6623 11.3405 10.8137 11.127 10.7749 10.9018L10.2132 7.6289L12.5906 5.31106C12.6553 5.24765 12.698 5.16482 12.7109 5.07423C12.7459 4.84775 12.588 4.6381 12.3615 4.60445V4.60445Z" fill="#FFC416"/>
</g>
<defs>
<clipPath id="clip0_91_1052">
<rect width="13.2522" height="13.2522" fill="white" transform="translate(0.608887 0.03479)"/>
</clipPath>
</defs>
</svg>
