<svg width="14" height="14" viewBox="0 0 14 14" fill="none" xmlns="http://www.w3.org/2000/svg">
<g clip-path="url(#clip0_91_1049)">
<path d="M11.8742 4.60445L8.58835 4.12691L7.11948 1.14905C7.07936 1.06752 7.01336 1.00152 6.93183 0.961398C6.72735 0.860454 6.47887 0.944574 6.37663 1.14905L4.90776 4.12691L1.6219 4.60445C1.53131 4.61739 1.44848 4.6601 1.38507 4.72481C1.3084 4.8036 1.26616 4.90961 1.26761 5.01954C1.26907 5.12947 1.31411 5.23432 1.39283 5.31106L3.7702 7.6289L3.20854 10.9018C3.19536 10.978 3.20379 11.0563 3.23286 11.1279C3.26192 11.1994 3.31047 11.2615 3.37298 11.3069C3.4355 11.3523 3.50949 11.3792 3.58656 11.3847C3.66363 11.3902 3.7407 11.374 3.80902 11.338L6.74806 9.79273L9.68709 11.338C9.76733 11.3807 9.86051 11.3949 9.9498 11.3794C10.175 11.3405 10.3264 11.127 10.2876 10.9018L9.72591 7.6289L12.1033 5.31106C12.168 5.24765 12.2107 5.16482 12.2236 5.07423C12.2586 4.84775 12.1007 4.6381 11.8742 4.60445Z" fill="#FFC416"/>
</g>
<defs>
<clipPath id="clip0_91_1049">
<rect width="13.2522" height="13.2522" fill="white" transform="translate(0.121582 0.03479)"/>
</clipPath>
</defs>
</svg>
