<svg width="16" height="16" viewBox="0 0 16 16" fill="none" xmlns="http://www.w3.org/2000/svg">
<path d="M11.0448 14.666H11.0635C11.4155 14.666 11.7481 14.5274 12.0001 14.2754L13.8081 12.4674C13.8701 12.4055 13.9193 12.332 13.9528 12.2512C13.9863 12.1703 14.0036 12.0836 14.0036 11.996C14.0036 11.9085 13.9863 11.8218 13.9528 11.7409C13.9193 11.66 13.8701 11.5866 13.8081 11.5247L11.1415 8.85804C11.0796 8.79608 11.0061 8.74692 10.9253 8.71338C10.8444 8.67984 10.7577 8.66257 10.6701 8.66257C10.5826 8.66257 10.4959 8.67984 10.415 8.71338C10.3341 8.74692 10.2607 8.79608 10.1988 8.85804L9.13613 9.92071C8.64346 9.77404 7.72413 9.44071 7.14146 8.85804C6.5588 8.27537 6.22546 7.35604 6.0788 6.86337L7.14146 5.80071C7.20343 5.73885 7.25258 5.66538 7.28612 5.5845C7.31967 5.50363 7.33693 5.41693 7.33693 5.32937C7.33693 5.24182 7.31967 5.15512 7.28612 5.07425C7.25258 4.99337 7.20343 4.9199 7.14146 4.85804L4.4748 2.19137C4.34734 2.07108 4.17872 2.00406 4.00346 2.00406C3.8282 2.00406 3.65958 2.07108 3.53213 2.19137L1.7248 3.99937C1.47146 4.25271 1.3288 4.60071 1.33413 4.95604C1.34946 5.90537 1.6008 9.20271 4.19946 11.8014C6.79813 14.4 10.0955 14.6507 11.0448 14.666ZM4.00413 3.60537L5.72813 5.32937L4.86613 6.19137C4.78768 6.2696 4.73006 6.36621 4.6985 6.47241C4.66695 6.5786 4.66247 6.691 4.68546 6.79937C4.70146 6.87604 5.0928 8.69404 6.19946 9.80071C7.30613 10.9074 9.12413 11.2987 9.2008 11.3147C9.30916 11.3378 9.4216 11.3334 9.52781 11.3018C9.63403 11.2703 9.73064 11.2126 9.8088 11.134L10.6708 10.272L12.3948 11.996L11.0575 13.3327C10.2255 13.3187 7.3788 13.0954 5.14213 10.858C2.89813 8.61404 2.6808 5.75737 2.66746 4.94204L4.00413 3.60537ZM13.3335 7.33271H14.6668C14.6668 3.91271 12.0848 1.33337 8.66013 1.33337V2.66671C11.3681 2.66671 13.3335 4.62871 13.3335 7.33271Z" fill="white"/>
<path d="M8.66602 5.33333C10.068 5.33333 10.666 5.93133 10.666 7.33333H11.9993C11.9993 5.18333 10.816 4 8.66602 4V5.33333Z" fill="white"/>
</svg>
