<svg width="16" height="16" viewBox="0 0 16 16" fill="none" xmlns="http://www.w3.org/2000/svg">
<path d="M11.0428 14.666H11.0615C11.4135 14.666 11.7462 14.5274 11.9982 14.2754L13.8062 12.4674C13.8681 12.4055 13.9173 12.332 13.9508 12.2512C13.9844 12.1703 14.0016 12.0836 14.0016 11.996C14.0016 11.9085 13.9844 11.8218 13.9508 11.7409C13.9173 11.66 13.8681 11.5866 13.8062 11.5247L11.1395 8.85804C11.0777 8.79608 11.0042 8.74692 10.9233 8.71338C10.8424 8.67984 10.7557 8.66257 10.6682 8.66257C10.5806 8.66257 10.4939 8.67984 10.413 8.71338C10.3322 8.74692 10.2587 8.79608 10.1968 8.85804L9.13418 9.92071C8.64151 9.77404 7.72218 9.44071 7.13951 8.85804C6.55684 8.27537 6.22351 7.35604 6.07684 6.86337L7.13951 5.80071C7.20147 5.73885 7.25063 5.66538 7.28417 5.5845C7.31771 5.50363 7.33498 5.41693 7.33498 5.32937C7.33498 5.24182 7.31771 5.15512 7.28417 5.07425C7.25063 4.99337 7.20147 4.9199 7.13951 4.85804L4.47284 2.19137C4.34539 2.07108 4.17677 2.00406 4.00151 2.00406C3.82625 2.00406 3.65763 2.07108 3.53018 2.19137L1.72284 3.99937C1.46951 4.25271 1.32684 4.60071 1.33218 4.95604C1.34751 5.90537 1.59884 9.20271 4.19751 11.8014C6.79618 14.4 10.0935 14.6507 11.0428 14.666V14.666ZM4.00218 3.60537L5.72618 5.32937L4.86418 6.19137C4.78573 6.2696 4.72811 6.36621 4.69655 6.47241C4.665 6.5786 4.66051 6.691 4.68351 6.79937C4.69951 6.87604 5.09084 8.69404 6.19751 9.80071C7.30418 10.9074 9.12218 11.2987 9.19884 11.3147C9.30721 11.3378 9.41965 11.3334 9.52586 11.3018C9.63208 11.2703 9.72868 11.2126 9.80684 11.134L10.6688 10.272L12.3928 11.996L11.0555 13.3327C10.2235 13.3187 7.37684 13.0954 5.14018 10.858C2.89618 8.61404 2.67884 5.75737 2.66551 4.94204L4.00218 3.60537ZM13.3315 7.33271H14.6648C14.6648 3.91271 12.0828 1.33337 8.65818 1.33337V2.66671C11.3662 2.66671 13.3315 4.62871 13.3315 7.33271V7.33271Z" fill="white"/>
<path d="M8.66406 5.33333C10.0661 5.33333 10.6641 5.93133 10.6641 7.33333H11.9974C11.9974 5.18333 10.8141 4 8.66406 4V5.33333V5.33333Z" fill="white"/>
</svg>
