<svg width="179" height="262" viewBox="0 0 179 262" fill="none" xmlns="http://www.w3.org/2000/svg">
<path d="M178.338 126.771C179.599 133.106 173.734 138.737 171.898 139.793C170.061 140.848 157.739 145.775 150.336 145.951C142.934 146.127 133.164 130.467 137.162 128.708C141.161 126.948 168.399 125.013 171.39 125.013C174.381 125.013 178.338 126.771 178.338 126.771Z" fill="#FFC6C8"/>
<path d="M158.926 123.43C155.695 142.432 148.021 157.213 145.626 157.477C143.232 157.74 120.228 149.823 113.887 146.919C107.546 144.016 115.834 99.4174 119.781 100.203C123.729 100.988 132.381 109.556 139.526 113.665C146.671 117.774 158.926 123.43 158.926 123.43Z" fill="#F9CA45"/>
<path d="M121.036 131.329C123.254 135.132 141.534 144.772 151.602 148.286C149.114 153.897 146.769 157.35 145.627 157.476C143.577 157.702 126.419 151.93 117.549 148.443C118.292 141.381 121.036 131.329 121.036 131.329Z" fill="#C7A237"/>
<path d="M178.366 125.893C178.547 133.432 171.757 134.515 163.628 132.58C155.499 130.644 142.227 112.345 136.319 104.075C130.41 95.8052 119.385 81.0693 117.106 79.7507C114.827 78.4303 109.598 77.7299 105.125 70.2945C100.652 62.8591 106.536 47.2869 108.65 45.4398C110.764 43.5919 128.878 49.7605 130.983 52.879C133.087 55.9966 129.492 72.7561 130.13 74.8674C130.768 76.9787 146.184 94.2224 152.916 98.4451C159.646 102.668 178.235 120.439 178.366 125.893Z" fill="#FFC6C8"/>
<path d="M117.928 57.8811C115.797 56.8259 115.283 52.0303 116.622 52.8758C117.963 53.7213 120.307 53.7028 123.479 53.6584C126.651 53.6141 127.952 53.3406 127.952 53.3406C127.952 53.3406 128.276 55.4177 128.26 57.1207C128.26 57.1207 120.059 58.9372 117.928 57.8811Z" fill="#FF8B8C"/>
<path d="M103.821 58.9707C105.113 56.5693 106.11 54.748 106.11 54.748L118.571 66.7425C121.978 63.7875 126.147 61.0913 126.147 61.0913L127.244 63.0465C125.228 66.4579 123.472 73.6725 123.432 75.4309C123.432 75.4309 121.518 77.5431 120.45 77.7187C120.45 77.7187 133.781 98.833 142.351 109.214C150.87 119.534 156.705 128.46 160.723 131.329C152.619 126.656 141.566 111.422 136.316 104.075C130.408 95.8051 119.384 81.0691 117.104 79.7496C114.826 78.4302 109.597 77.7298 105.125 70.2943C103.35 67.3449 103.217 63.1167 103.821 58.9707Z" fill="#FF8B8C"/>
<path d="M129.758 60.1748C129.606 61.4056 117.224 72.1397 115.927 73.3714C115.83 73.4638 114.863 73.6051 114.597 73.3714C111.303 70.4774 96.9234 44.3651 96.6666 43.4227C96.4263 42.543 105.973 33.5608 108.888 31.1584C109.285 30.8304 110.921 31.0291 111.189 31.4264C114.13 35.7821 129.953 58.5855 129.758 60.1748Z" fill="#050233"/>
<path d="M128.427 60.1748C128.276 61.4056 115.893 72.1397 114.597 73.3714C113.3 74.6031 95.6132 44.4409 95.336 43.4227C95.0958 42.543 105.725 33.7068 108.639 31.3035C109.036 30.9764 109.59 31.0291 109.859 31.4264C112.8 35.7821 128.622 58.5855 128.427 60.1748Z" fill="#211E88"/>
<path d="M126.343 58.4101C126.202 59.5614 114.618 69.6035 113.405 70.7557C112.193 71.9079 95.6462 43.6908 95.3866 42.7382C95.162 41.9158 105.105 33.6488 107.832 31.4007C108.203 31.0948 108.722 31.1429 108.972 31.5153C111.725 35.5901 126.526 56.9234 126.343 58.4101Z" fill="#00B1FA"/>
<path d="M118.916 43.6925C116.998 42.5366 114.644 38.6216 114.431 37.3012C114.22 35.9827 114.351 34.7944 115.381 34.5301C116.413 34.2668 119.586 38.4017 121.168 39.6334C122.75 40.8651 124.676 43.4163 123.891 45.1321C123.107 46.8471 119.592 46.1873 119.215 45.924C118.839 45.6597 118.916 43.6925 118.916 43.6925Z" fill="#FFC6C8"/>
<path d="M114.789 34.878C114.181 36.3786 118.142 42.3993 121.616 44.1328L120.325 45.6084C120.325 45.6084 119.739 45.479 118.986 45.3007C118.882 44.6327 118.917 43.6929 118.917 43.6929C116.999 42.537 114.645 38.622 114.432 37.3026C114.272 36.3019 114.313 35.3816 114.789 34.878Z" fill="#FF8B8C"/>
<path d="M123.374 49.7757C120.074 48.0127 117.487 48.2105 115.692 47.4851C113.897 46.7589 113.571 43.9878 114.792 43.5258C116.014 43.0638 123.449 44.2521 125.366 45.1095C127.283 45.967 128.199 49.9189 128.199 49.9189L123.374 49.7757Z" fill="#FFC6C8"/>
<path d="M121.93 47.7199C123.797 48.0719 124.438 47.7199 124.438 47.7199C124.384 48.4489 125.073 48.812 125.848 49.8488L123.374 49.7758C120.076 48.0128 117.488 48.2105 115.693 47.4852C114.874 47.1544 114.378 46.3967 114.178 45.6279C114.977 47.1479 120.074 47.3697 121.93 47.7199Z" fill="#FF8B8C"/>
<path d="M130.981 52.8781C129.221 55.3138 120.588 54.2586 118.847 53.9943C117.107 53.7301 116.015 52.6314 116.193 51.5236C116.551 49.2875 127.959 49.6839 128.901 50.0359C129.843 50.388 130.981 52.8781 130.981 52.8781Z" fill="#FFC6C8"/>
<path d="M116.256 52.0616C117.435 53.2342 120.271 53.9022 123.365 54.1517C126.045 54.3679 127.585 54.2635 127.941 54.233C124.687 54.7514 120.071 54.1794 118.849 53.9946C117.395 53.7747 116.443 52.9662 116.256 52.0616Z" fill="#FF8B8C"/>
<path d="M90.5796 87.0081C108.904 96.3331 111.91 95.9719 119.782 100.202C127.651 104.432 125.309 148.943 124.81 155.805C124.31 162.667 122.414 189.939 123.459 197.329C124.505 204.719 128.578 232.168 130.383 236.389C132.186 240.613 135.626 247.74 130.305 251.961C124.983 256.184 113.723 259.088 89.2749 257.505C64.8268 255.921 38.4734 240.877 37.3073 238.766C36.1412 236.655 48.994 197.857 49.5318 190.467C50.0696 183.076 51.5286 177.534 52.3066 174.103C53.0837 170.672 45.3063 154.573 44.0636 144.279C42.8208 133.987 31.6376 105.592 33.7591 100.39C35.8797 95.1892 55.3567 89.3948 68.6207 82.7799C81.8838 76.1659 90.5796 87.0081 90.5796 87.0081Z" fill="#F9CA45"/>
<path d="M108.747 98.5493C105.73 108.464 99.5886 117.403 91.4149 123.775C81.4911 121.342 71.401 116.969 63.2754 110.774C72.3565 117.463 82.2608 123.09 92.8646 126.931C101.82 119.596 107.135 110.012 108.747 98.5493Z" fill="#C7A237"/>
<path d="M105.006 93.8297C101.486 92.3282 96.9642 90.2566 90.5794 87.0078C90.5794 87.0078 81.8836 76.1656 68.6205 82.7805C64.0181 85.0748 58.669 87.2711 53.5547 89.3779C61.4558 102.82 74.2578 113.335 89.0354 118.336C96.8275 112.199 102.431 103.407 105.006 93.8297Z" fill="#FFC6C8"/>
<path opacity="0.2" d="M37.3091 238.766C36.143 236.654 48.9959 197.857 49.5337 190.467C50.0714 183.077 51.5304 177.534 52.3075 174.104C53.0855 170.672 45.3082 154.572 44.0654 144.28C43.8501 142.491 43.329 140.148 42.6351 137.483L50.8975 131.329C55.7429 144.845 58.7644 168.598 63.3567 174.404C67.949 180.211 79.389 182.585 79.389 182.585C79.389 182.585 68.0894 185.225 63.1627 184.169C63.1627 184.169 57.9023 205.02 57.8423 215.313C57.7831 225.606 58.7385 241.177 58.8605 243.289C58.9058 244.077 58.7321 246.826 58.4955 249.958C46.6563 245.271 37.967 239.957 37.3091 238.766Z" fill="black"/>
<path d="M70.7017 64.0306C70.5132 75.0438 69.786 82.6095 67.3457 84.7217C67.3457 84.7217 71.5425 102.997 88.2983 101.436C93.968 100.908 93.4275 91.4069 90.5806 87.0086L92.2669 73.5007L70.7017 64.0306Z" fill="#FFC6C8"/>
<path d="M68.6211 82.7804C70.0551 79.4022 70.5504 72.8197 70.701 64.0297L92.2672 73.4997L91.1852 82.1622C87.3626 83.8772 68.6211 82.7804 68.6211 82.7804Z" fill="#FF8B8C"/>
<path d="M11.3151 153.103C7.60067 158.206 2.63232 170.874 4.49695 176.681C6.36158 182.488 25.5937 208.352 34.3902 218.029C43.1876 227.706 45.1834 229.29 46.7127 232.457C48.2419 235.625 55.7364 248.688 57.7036 250.669C59.6708 252.647 63.2153 252.912 63.2153 252.912C63.2153 252.912 65.8644 255.814 70.9381 255.287C70.9381 255.287 75.3576 258.322 78.8632 259.113C78.8632 259.113 80.0201 261.355 81.1926 261.553C82.3661 261.753 83.8584 259.378 81.6971 254.627C79.5359 249.876 75.985 247.897 75.4139 244.862C74.8429 241.827 72.0958 235.634 72.0958 235.634C72.0958 235.634 78.2645 241.958 82.0621 242.354C85.8607 242.751 86.3707 240.507 84.2862 238.659C82.2016 236.812 79.4999 234.041 76.9884 230.477C74.4761 226.914 71.3502 224.54 66.5158 223.88C61.6805 223.22 58.2885 222.693 57.0356 221.769C55.7836 220.845 49.4625 211.872 45.1419 202.194C40.8222 192.516 36.9524 180.15 25.9726 169.291L30.8106 160.845L11.3151 153.103Z" fill="#FFC6C8"/>
<path d="M78.7015 258.509C77.7646 255.833 76.045 253.55 74.1517 251.519L73.4014 250.781C73.1797 250.55 72.7888 250.26 72.7029 250.125C72.324 249.642 71.9969 249.006 71.6329 248.434C70.9362 247.247 70.2589 246.038 69.4883 244.873C69.856 246.243 70.3485 247.551 70.9011 248.841C71.1727 249.498 71.4684 250.107 71.8824 250.757C72.2021 251.182 72.409 251.27 72.6558 251.547L73.3617 252.276C74.3125 253.249 75.2125 254.273 76.1198 255.294C77.0207 256.324 77.8634 257.395 78.7015 258.509Z" fill="#FF8B8C"/>
<path d="M70.7327 254.373C70.0055 252.952 69.1434 251.72 68.3728 250.426C67.5671 249.148 66.8519 247.866 66.1183 246.456C66.0388 248.117 66.6514 249.681 67.4599 251.024C68.3054 252.358 69.3809 253.532 70.7327 254.373Z" fill="#FF8B8C"/>
<path d="M66.8709 254.936C64.4768 254.245 63.2155 252.912 63.2155 252.912C63.2155 252.912 59.671 252.647 57.7039 250.668C56.9 249.859 55.1702 247.191 53.3047 244.112C53.3453 244.161 55.5565 246.563 57.1458 248.546C59.3846 251.338 62.5983 250.414 62.5983 250.414L62.1686 247.841C62.1686 247.841 64.3058 253.683 66.8709 254.936Z" fill="#FF8B8C"/>
<path d="M4.41505 170.229C4.51946 172.636 4.54811 174.551 8.12029 180.87C12.1406 187.981 36.3014 217.951 41.5719 223.493C46.8424 229.036 46.6862 229.389 49.8056 238.145C48.3974 235.67 47.2221 233.511 46.7121 232.457C45.1838 229.29 43.187 227.706 34.3896 218.028C25.5931 208.352 6.36099 182.487 4.49636 176.68C3.9549 174.993 4.00202 172.72 4.41505 170.229Z" fill="#FF8B8C"/>
<path d="M23.3532 163.302L21.3906 166.574C21.3906 166.574 24.0462 167.292 25.9727 169.29L29.8027 162.791L23.3532 163.302Z" fill="#FF8B8C"/>
<path d="M46.5075 145.411C51.5535 135.491 53.5734 119.382 49.019 110.904C44.4646 102.425 35.8686 99.3721 33.76 100.39C31.6505 101.408 25.9402 114.634 20.5782 120.739C15.2163 126.844 0.573635 143.97 0.130115 145.411C-0.314329 146.853 10.7127 158.487 31.4537 167.031C33.9226 168.049 46.5075 145.411 46.5075 145.411Z" fill="#F9CA45"/>
<g opacity="0.2">
<path d="M31.1236 153.103L27.8148 159.888C27.8148 159.888 44.1141 143.548 50.8806 131.355C50.061 136.442 48.5345 141.427 46.5073 145.412C46.5073 145.412 33.9233 168.05 31.4535 167.032C27.9044 165.57 24.663 164.016 21.6914 162.439L31.1236 153.103Z" fill="black"/>
</g>
<path d="M93.513 65.0165C92.3922 60.4759 92.4162 55.8328 92.1455 51.1897C91.9431 47.7183 91.7667 44.5406 88.6158 42.4644C86.3132 40.9472 83.4257 40.6487 80.7165 40.9925C73.4354 41.9165 71.8692 49.0119 72.4264 55.7303C72.8533 60.8723 74.8621 65.8102 76.857 70.5401C74.1793 70.4219 70.523 69.0183 68.9235 66.7896C69.6424 69.7224 71.0025 72.4168 73.1287 74.4912C65.3689 74.3572 58.1663 69.2798 54.0555 62.4598C49.9455 55.6416 48.6427 47.3154 49.0806 39.2895C49.5999 29.7649 52.5697 20.2172 58.4611 12.8844C70.3105 -1.86543 93.1388 -3.585 107.04 9.09044C111.819 13.4471 115.286 19.2886 117.02 25.6236C119.299 33.9507 119.252 42.8848 117.476 51.3089C116.741 54.7961 116.404 57.8157 116.058 61.3075C115.951 62.3914 114.638 74.9633 115.397 74.9171C110.495 75.2147 104.863 74.2251 101.543 70.4782C103.031 73.0516 104.316 75.5307 105.805 78.104C99.6151 77.0747 95.0663 71.3071 93.513 65.0165Z" fill="#A072AE"/>
<path d="M68.0778 47.884C65.888 46.5895 63.2564 45.8872 61.2255 47.9468C58.2326 50.9822 62.484 65.1018 68.9362 61.671C68.9362 61.671 78.2788 74.7354 85.1349 78.4305C91.9928 82.1256 96.8771 80.2785 99.4449 77.6386C102.013 74.9997 110.769 64.1732 112.345 52.6971C112.907 48.6066 112.305 40.5567 112.43 38.8408C112.814 33.5629 114.814 29.2293 110.65 25.0871C106.444 20.9023 100.618 18.3705 94.6881 18.1607C87.2194 17.8974 79.7535 21.2543 74.8073 26.8565C69.3428 33.0473 68.3957 40.0383 68.0778 47.884Z" fill="#FFC6C8"/>
<path d="M62.2852 51.8059C62.8433 49.2187 65.0498 48.7096 66.6908 50.5123C68.3734 52.3603 68.6561 58.212 68.2237 59.0741C67.7913 59.9362 64.901 59.8752 64.3531 58.0882C63.8061 56.3021 65.4887 55.1822 67.1131 55.7116C67.1131 55.7116 67.5677 53.1041 66.239 51.4252C64.9112 49.7463 63.5279 50.3894 63.1888 50.82C62.8488 51.2515 62.2852 51.8059 62.2852 51.8059Z" fill="#FF8B8C"/>
<path d="M80.1445 40.3623C80.7692 39.7811 81.4326 39.2406 82.1274 38.7277C82.8269 38.2232 83.5726 37.7696 84.3654 37.4C85.1517 37.0304 85.975 36.6321 86.8463 36.5647C87.7093 36.4889 88.576 36.5582 89.3661 36.8973L89.355 37.0165C88.9327 37.1856 88.5308 37.2937 88.1353 37.4083L86.972 37.7298C86.2161 37.9525 85.4317 38.02 84.6638 38.2759C83.9015 38.5291 83.1494 38.8543 82.4093 39.2267C81.6617 39.5908 80.9401 40.0232 80.2111 40.4556L80.1445 40.3623Z" fill="#471052"/>
<path d="M109.333 37.3995C108.626 37.0253 107.878 36.7527 107.1 36.5892C106.327 36.4155 105.535 36.3277 104.74 36.3083C103.941 36.2907 103.147 36.4552 102.358 36.4487C101.563 36.4515 100.764 36.4755 99.8902 36.3878L99.8652 36.2741C100.613 35.7317 101.464 35.4388 102.323 35.2725C103.189 35.0969 104.056 35.2402 104.891 35.3649C105.732 35.4878 106.55 35.7049 107.317 36.0237C108.079 36.3526 108.803 36.7611 109.406 37.3016L109.333 37.3995Z" fill="#471052"/>
<path d="M87.9806 45.0023C87.9511 43.8861 87.3893 43.0342 86.7249 43.0989C86.0605 43.1645 85.5459 44.1226 85.5754 45.2388C85.605 46.355 86.1668 47.207 86.8312 47.1413C87.4955 47.0767 88.0093 46.1185 87.9806 45.0023Z" fill="#471052"/>
<path d="M105.608 43.5916C105.579 42.4754 105.115 41.6133 104.572 41.6669C104.029 41.7205 103.613 42.6685 103.642 43.7847C103.671 44.9009 104.136 45.763 104.678 45.7094C105.221 45.6558 105.638 44.7078 105.608 43.5916Z" fill="#471052"/>
<path d="M93.5 55.8523C95.0283 56.9149 97.281 56.8918 98.9442 55.7968C98.7548 56.6571 98.3704 57.4952 97.5342 57.801C96.6971 58.1059 95.7731 58.0163 95.0034 57.6633C94.2346 57.3103 93.986 56.537 93.5 55.8523Z" fill="#FF8B8C"/>
<path d="M87.3828 62.4012C91.064 62.4604 99.915 61.7812 102.801 61.371C101.663 65.1002 98.6787 68.7842 94.5115 68.7861C90.76 68.7888 88.2819 65.7054 87.3828 62.4012Z" fill="#C47E75"/>
<path d="M90.7617 67.5682C92.2253 67.1173 93.7148 67.3492 94.3145 67.534C94.3145 67.534 96.2614 66.1721 99.0907 67.0674C97.8026 68.106 96.2715 68.7851 94.5132 68.7861C93.0653 68.787 91.8123 68.3213 90.7617 67.5682Z" fill="#FF8485"/>
<path d="M100.303 64.4912C96.5764 65.6527 92.5081 65.3182 88.9987 64.0532C88.9747 63.5025 88.9331 62.9481 88.8906 62.3928C92.5293 62.3161 98.4189 61.8754 101.573 61.5233C101.301 62.5545 100.892 63.5626 100.303 64.4912Z" fill="white"/>
<path d="M71.7584 35.7373C77.7625 35.4813 83.7196 34.1591 89.2682 31.85C90.3243 29.4069 90.3603 27.2401 90.5183 24.5846C92.0272 27.3519 92.9244 30.4501 93.0797 33.5991C96.5761 33.3718 100.089 33.1842 103.586 32.9579C104.565 30.1868 104.684 27.3335 104.529 24.3988C105.711 27.1551 106.304 30.6266 106.707 33.5982C108.818 32.8479 111.492 33.9428 113.698 34.3374C116.43 28.2501 116.251 17.2221 110.47 12.6058C104.841 8.10873 95.0626 6.88535 88.1825 7.88142C73.5472 10.0002 62.0444 22.1517 62.9527 37.2914C63.471 45.928 67.8037 54.0953 74.0166 60.1179C70.3225 52.749 69.5898 43.6892 71.7584 35.7373Z" fill="#A072AE"/>
</svg>
