<svg width="352" height="187" viewBox="0 0 352 187" fill="none" xmlns="http://www.w3.org/2000/svg">
<path d="M0.0800781 92.8105C0.0800781 114.133 17.3653 131.418 38.6866 131.418C60.0089 131.418 77.2941 114.133 77.2941 92.8105C77.2941 71.4883 60.0089 54.203 38.6866 54.203C17.3653 54.203 0.0800781 71.4883 0.0800781 92.8105Z" fill="#E6B851"/>
<path d="M19.6402 107.924H57.7331C59.4813 107.924 60.8987 106.506 60.8987 104.758V80.8626C60.8987 79.1144 59.4813 77.697 57.7331 77.697H19.6402C17.892 77.697 16.4746 79.1144 16.4746 80.8626V104.758C16.4746 106.506 17.892 107.924 19.6402 107.924Z" fill="#6C83DC"/>
<path d="M19.6402 107.924H57.7331C59.4813 107.924 60.8987 106.506 60.8987 104.758L38.6867 90.7901L16.4746 104.758C16.4746 106.506 17.892 107.924 19.6402 107.924Z" fill="#C8DDF5"/>
<path d="M19.6402 77.6967H57.7331C59.4813 77.6967 60.8987 79.1141 60.8987 80.8623L38.6867 94.8304L16.4746 80.8623C16.4746 79.1141 17.892 77.6967 19.6402 77.6967Z" fill="#4371D7"/>
<path d="M273.791 148.366C273.791 169.688 291.075 186.974 312.398 186.974C333.72 186.974 351.005 169.688 351.005 148.366C351.005 127.044 333.72 109.759 312.398 109.759C291.075 109.759 273.791 127.044 273.791 148.366Z" fill="#E6B851"/>
<path d="M305.798 149.892C302.507 149.892 299.842 147.225 299.842 143.935C299.842 140.645 302.507 137.978 305.798 137.978C309.088 137.978 311.755 140.645 311.755 143.935C311.755 147.225 309.088 149.892 305.798 149.892ZM323.227 140.817H319.345C318.994 139.285 318.39 137.855 317.58 136.563L320.328 133.816C320.702 133.441 320.702 132.834 320.328 132.459L317.274 129.406C316.9 129.032 316.292 129.032 315.917 129.406L313.17 132.153C311.878 131.342 310.447 130.738 308.916 130.387V126.506C308.916 125.976 308.487 125.546 307.957 125.546H303.639C303.11 125.546 302.68 125.976 302.68 126.506V130.387C301.149 130.738 299.718 131.342 298.425 132.153L295.679 129.406C295.305 129.032 294.696 129.032 294.322 129.406L291.269 132.459C290.895 132.834 290.895 133.441 291.269 133.816L294.016 136.563C293.205 137.855 292.602 139.285 292.25 140.817H288.369C287.839 140.817 287.41 141.247 287.41 141.776V146.094C287.41 146.624 287.839 147.053 288.369 147.053H292.25C292.602 148.584 293.205 150.015 294.016 151.307L291.269 154.054C290.895 154.43 290.895 155.037 291.269 155.411L294.322 158.464C294.696 158.839 295.305 158.839 295.679 158.464L298.425 155.717C299.718 156.527 301.149 157.131 302.68 157.482V161.364C302.68 161.894 303.11 162.323 303.639 162.323H307.957C308.487 162.323 308.916 161.894 308.916 161.364V157.482C310.447 157.131 311.878 156.527 313.17 155.717L315.917 158.464C316.292 158.839 316.9 158.839 317.274 158.464L320.328 155.411C320.702 155.037 320.702 154.43 320.328 154.054L317.58 151.307C318.39 150.015 318.994 148.584 319.345 147.053H323.227C323.758 147.053 324.186 146.624 324.186 146.094V141.776C324.186 141.247 323.758 140.817 323.227 140.817Z" fill="#6C83DC"/>
<path d="M305.798 148.998C303.002 148.998 300.735 146.73 300.735 143.934C300.735 141.138 303.002 138.872 305.798 138.872C308.594 138.872 310.861 141.138 310.861 143.934C310.861 146.73 308.594 148.998 305.798 148.998ZM305.798 135.642C301.219 135.642 297.506 139.355 297.506 143.934C297.506 148.515 301.219 152.226 305.798 152.226C310.377 152.226 314.091 148.515 314.091 143.934C314.091 139.355 310.377 135.642 305.798 135.642Z" fill="#4371D7"/>
<path d="M330.902 162.456C329.221 162.456 327.858 161.094 327.858 159.413C327.858 157.732 329.221 156.37 330.902 156.37C332.582 156.37 333.945 157.732 333.945 159.413C333.945 161.094 332.582 162.456 330.902 162.456ZM339.806 157.82H337.822C337.644 157.038 337.335 156.307 336.921 155.647L338.324 154.243C338.515 154.052 338.515 153.742 338.324 153.55L336.765 151.991C336.574 151.799 336.263 151.799 336.072 151.991L334.667 153.394C334.008 152.98 333.277 152.672 332.495 152.492V150.51C332.495 150.239 332.275 150.02 332.004 150.02H329.799C329.528 150.02 329.308 150.239 329.308 150.51V152.492C328.527 152.672 327.796 152.98 327.136 153.394L325.732 151.991C325.54 151.799 325.23 151.799 325.038 151.991L323.48 153.55C323.288 153.742 323.288 154.052 323.48 154.243L324.882 155.647C324.469 156.307 324.16 157.038 323.981 157.82H321.998C321.727 157.82 321.508 158.04 321.508 158.31V160.516C321.508 160.786 321.727 161.006 321.998 161.006H323.981C324.16 161.788 324.469 162.519 324.882 163.179L323.48 164.583C323.288 164.774 323.288 165.085 323.48 165.276L325.038 166.836C325.23 167.027 325.54 167.027 325.732 166.836L327.136 165.432C327.796 165.846 328.527 166.155 329.308 166.334V168.317C329.308 168.588 329.528 168.808 329.799 168.808H332.004C332.275 168.808 332.495 168.588 332.495 168.317V166.334C333.277 166.155 334.008 165.846 334.667 165.432L336.072 166.836C336.263 167.027 336.574 167.027 336.765 166.836L338.324 165.276C338.515 165.085 338.515 164.774 338.324 164.583L336.921 163.179C337.335 162.519 337.644 161.788 337.822 161.006H339.806C340.076 161.006 340.295 160.786 340.295 160.516V158.31C340.295 158.04 340.076 157.82 339.806 157.82Z" fill="#6C83DC"/>
<path d="M330.903 162C329.473 162 328.315 160.842 328.315 159.414C328.315 157.984 329.473 156.826 330.903 156.826C332.331 156.826 333.489 157.984 333.489 159.414C333.489 160.842 332.331 162 330.903 162ZM330.903 155.177C328.563 155.177 326.666 157.073 326.666 159.414C326.666 161.752 328.563 163.649 330.903 163.649C333.241 163.649 335.138 161.752 335.138 159.414C335.138 157.073 333.241 155.177 330.903 155.177Z" fill="#4371D7"/>
<path d="M99.6191 39.0126C99.6191 60.3348 116.904 77.6201 138.226 77.6201C159.548 77.6201 176.833 60.3348 176.833 39.0126C176.833 17.6904 159.548 0.405128 138.226 0.405128C116.904 0.405128 99.6191 17.6904 99.6191 39.0126Z" fill="#E3E4EB"/>
<path d="M116.016 28.8171H160.441V23.9199C160.441 22.2336 159.074 20.867 157.388 20.867H119.069C117.382 20.867 116.016 22.2336 116.016 23.9199V28.8171Z" fill="#4371D7"/>
<path d="M141.032 37.3918H143.415C143.82 37.3918 144.148 37.0638 144.148 36.6591V34.2752C144.148 33.8705 143.82 33.5434 143.415 33.5434H141.032C140.628 33.5434 140.299 33.8705 140.299 34.2752V36.6591C140.299 37.0638 140.628 37.3918 141.032 37.3918Z" fill="#6C83DC"/>
<path d="M131.873 37.3918H134.256C134.662 37.3918 134.989 37.0638 134.989 36.6591V34.2752C134.989 33.8705 134.662 33.5434 134.256 33.5434H131.873C131.469 33.5434 131.141 33.8705 131.141 34.2752V36.6591C131.141 37.0638 131.469 37.3918 131.873 37.3918Z" fill="#6C83DC"/>
<path d="M122.715 37.3918H125.099C125.504 37.3918 125.832 37.0638 125.832 36.6591V34.2752C125.832 33.8705 125.504 33.5434 125.099 33.5434H122.715C122.311 33.5434 121.982 33.8705 121.982 34.2752V36.6591C121.982 37.0638 122.311 37.3918 122.715 37.3918Z" fill="#6C83DC"/>
<path d="M150.19 45.2773H152.573C152.978 45.2773 153.306 44.9493 153.306 44.5446V42.1607C153.306 41.756 152.978 41.4289 152.573 41.4289H150.19C149.785 41.4289 149.457 41.756 149.457 42.1607V44.5446C149.457 44.9493 149.785 45.2773 150.19 45.2773Z" fill="#6C83DC"/>
<path d="M141.032 45.2773H143.415C143.82 45.2773 144.148 44.9493 144.148 44.5446V42.1607C144.148 41.756 143.82 41.4289 143.415 41.4289H141.032C140.628 41.4289 140.299 41.756 140.299 42.1607V44.5446C140.299 44.9493 140.628 45.2773 141.032 45.2773Z" fill="#6C83DC"/>
<path d="M131.873 45.2773H134.256C134.662 45.2773 134.989 44.9493 134.989 44.5446V42.1607C134.989 41.756 134.662 41.4289 134.256 41.4289H131.873C131.469 41.4289 131.141 41.756 131.141 42.1607V44.5446C131.141 44.9493 131.469 45.2773 131.873 45.2773Z" fill="#6C83DC"/>
<path d="M122.715 45.2773H125.099C125.504 45.2773 125.832 44.9493 125.832 44.5446V42.1607C125.832 41.756 125.504 41.4289 125.099 41.4289H122.715C122.311 41.4289 121.982 41.756 121.982 42.1607V44.5446C121.982 44.9493 122.311 45.2773 122.715 45.2773Z" fill="#6C83DC"/>
<path d="M150.19 53.1628H152.573C152.978 53.1628 153.306 52.8348 153.306 52.4301V50.0462C153.306 49.6415 152.978 49.3135 152.573 49.3135H150.19C149.785 49.3135 149.457 49.6415 149.457 50.0462V52.4301C149.457 52.8348 149.785 53.1628 150.19 53.1628Z" fill="#6C83DC"/>
<path d="M141.032 53.1628H143.415C143.82 53.1628 144.148 52.8348 144.148 52.4301V50.0462C144.148 49.6415 143.82 49.3135 143.415 49.3135H141.032C140.628 49.3135 140.299 49.6415 140.299 50.0462V52.4301C140.299 52.8348 140.628 53.1628 141.032 53.1628Z" fill="#6C83DC"/>
<path d="M131.873 53.1628H134.256C134.662 53.1628 134.989 52.8348 134.989 52.4301V50.0462C134.989 49.6415 134.662 49.3135 134.256 49.3135H131.873C131.469 49.3135 131.141 49.6415 131.141 50.0462V52.4301C131.141 52.8348 131.469 53.1628 131.873 53.1628Z" fill="#6C83DC"/>
<path d="M287.354 58.8529C287.354 80.1751 270.069 97.4604 248.747 97.4604C227.425 97.4604 210.141 80.1751 210.141 58.8529C210.141 37.5307 227.425 20.2454 248.747 20.2454C270.069 20.2454 287.354 37.5307 287.354 58.8529Z" fill="#FF7571"/>
<path d="M250.965 81.3822V77.7712C250.965 77.0995 250.421 76.5552 249.75 76.5552H247.747C247.075 76.5552 246.531 77.0995 246.531 77.7712V81.3822C235.799 80.339 227.263 71.8022 226.219 61.0708H229.83C230.501 61.0708 231.046 60.5257 231.046 59.8549V57.8516C231.046 57.1799 230.501 56.6356 229.83 56.6356H226.219C227.263 45.9043 235.799 37.3675 246.531 36.3233V39.9353C246.531 40.6061 247.075 41.1503 247.747 41.1503H249.75C250.421 41.1503 250.965 40.6061 250.965 39.9353V36.3233C261.698 37.3675 270.234 45.9043 271.278 56.6356H267.667C266.996 56.6356 266.451 57.1799 266.451 57.8516V59.8549C266.451 60.5257 266.996 61.0708 267.667 61.0708H271.278C270.234 71.8022 261.698 80.339 250.965 81.3822ZM248.749 32.4102C234.144 32.4102 222.305 44.2485 222.305 58.8532C222.305 73.4571 234.144 85.2963 248.749 85.2963C263.352 85.2963 275.192 73.4571 275.192 58.8532C275.192 44.2485 263.352 32.4102 248.749 32.4102Z" fill="#CC3834"/>
</svg>
