<svg width="80" height="20" viewBox="0 0 80 20" fill="none" xmlns="http://www.w3.org/2000/svg">
<circle cx="9.70874" cy="9.70874" r="9.70874" fill="#151875"/>
<path d="M10.8201 13.9791V9.73523H12.2519L12.4647 8.07361H10.8201V7.01523C10.8201 6.53574 10.9537 6.20746 11.6419 6.20746H12.5139V4.72603C12.0896 4.68057 11.6631 4.65861 11.2365 4.66027C9.97095 4.66027 9.10208 5.43283 9.10208 6.85108V8.0705H7.67969V9.73212H9.10519V13.9791H10.8201Z" fill="white"/>
<circle cx="70.2917" cy="9.70874" r="9.70874" fill="#151875"/>
<path d="M75.9329 5.66303C75.5006 5.85461 75.0361 5.98406 74.5478 6.04257C75.0516 5.74111 75.4286 5.26664 75.6083 4.70769C75.1349 4.98885 74.6169 5.18675 74.0766 5.2928C73.7133 4.9049 73.2321 4.64779 72.7077 4.5614C72.1833 4.475 71.6451 4.56415 71.1766 4.815C70.708 5.06586 70.3354 5.46438 70.1166 5.9487C69.8977 6.43302 69.8449 6.97604 69.9663 7.49345C69.0072 7.44529 68.0689 7.196 67.2124 6.76175C66.3558 6.3275 65.6002 5.718 64.9944 4.9728C64.7873 5.33008 64.6682 5.74432 64.6682 6.18549C64.668 6.58264 64.7658 6.9737 64.9529 7.32399C65.1401 7.67428 65.4108 7.97295 65.7411 8.19351C65.3581 8.18133 64.9835 8.07783 64.6485 7.89164V7.9227C64.6485 8.47972 64.8412 9.0196 65.1939 9.45073C65.5466 9.88186 66.0376 10.1777 66.5835 10.288C66.2282 10.3842 65.8557 10.3983 65.4941 10.3294C65.6481 10.8087 65.9482 11.2278 66.3523 11.5281C66.7564 11.8284 67.2442 11.9948 67.7476 12.004C66.8931 12.6748 65.8379 13.0386 64.7516 13.037C64.5592 13.0371 64.3669 13.0258 64.1758 13.0034C65.2784 13.7123 66.562 14.0886 67.8729 14.0871C72.3104 14.0871 74.7363 10.4118 74.7363 7.22419C74.7363 7.12063 74.7337 7.01604 74.729 6.91248C75.2009 6.57123 75.6082 6.14867 75.9319 5.66458L75.9329 5.66303V5.66303Z" fill="white"/>
<circle cx="39.9998" cy="9.70874" r="9.70874" fill="#151875"/>
<path d="M44.2447 7.40725C44.2395 7.01508 44.1661 6.62681 44.0277 6.2598C43.9078 5.95024 43.7246 5.6691 43.4898 5.43434C43.2551 5.19959 42.9739 5.01639 42.6644 4.89644C42.3021 4.76044 41.9193 4.6869 41.5325 4.67896C41.0343 4.6567 40.8764 4.65048 39.6119 4.65048C38.3475 4.65048 38.1854 4.65048 37.6909 4.67896C37.3042 4.68696 36.9216 4.7605 36.5595 4.89644C36.2499 5.0163 35.9687 5.19948 35.734 5.43424C35.4992 5.669 35.316 5.95019 35.1961 6.2598C35.0599 6.62181 34.9865 7.00446 34.9792 7.39119C34.9569 7.88983 34.9502 8.04776 34.9502 9.31223C34.9502 10.5767 34.9502 10.7382 34.9792 11.2333C34.987 11.6206 35.06 12.0027 35.1961 12.3657C35.3162 12.6752 35.4995 12.9563 35.7344 13.1909C35.9692 13.4256 36.2504 13.6087 36.56 13.7285C36.9212 13.87 37.3038 13.9488 37.6914 13.9615C38.1901 13.9838 38.348 13.9905 39.6125 13.9905C40.8769 13.9905 41.039 13.9905 41.5335 13.9615C41.9204 13.9539 42.3031 13.8806 42.6654 13.7446C42.9749 13.6245 43.256 13.4413 43.4907 13.2065C43.7254 12.9718 43.9087 12.6907 44.0288 12.3812C44.165 12.0188 44.238 11.6366 44.2457 11.2488C44.268 10.7507 44.2747 10.5927 44.2747 9.32776C44.2737 8.0633 44.2737 7.90278 44.2447 7.40725V7.40725ZM39.6088 11.7034C38.2864 11.7034 37.215 10.6321 37.215 9.30964C37.215 7.98718 38.2864 6.91585 39.6088 6.91585C40.2437 6.91585 40.8526 7.16806 41.3015 7.61698C41.7504 8.0659 42.0026 8.67477 42.0026 9.30964C42.0026 9.94451 41.7504 10.5534 41.3015 11.0023C40.8526 11.4512 40.2437 11.7034 39.6088 11.7034V11.7034ZM42.0979 7.3855C41.7888 7.3855 41.5397 7.13592 41.5397 6.82731C41.5397 6.75404 41.5541 6.68149 41.5822 6.6138C41.6102 6.54611 41.6513 6.4846 41.7031 6.4328C41.7549 6.38099 41.8164 6.33989 41.8841 6.31185C41.9518 6.28381 42.0244 6.26938 42.0976 6.26938C42.1709 6.26938 42.2435 6.28381 42.3111 6.31185C42.3788 6.33989 42.4403 6.38099 42.4922 6.4328C42.544 6.4846 42.5851 6.54611 42.6131 6.6138C42.6411 6.68149 42.6556 6.75404 42.6556 6.82731C42.6556 7.13592 42.406 7.3855 42.0979 7.3855Z" fill="white"/>
<path d="M39.6087 10.8643C40.4674 10.8643 41.1636 10.1682 41.1636 9.30938C41.1636 8.4506 40.4674 7.75443 39.6087 7.75443C38.7499 7.75443 38.0537 8.4506 38.0537 9.30938C38.0537 10.1682 38.7499 10.8643 39.6087 10.8643Z" fill="white"/>
</svg>
