<svg width="20" height="20" viewBox="0 0 20 20" fill="none" xmlns="http://www.w3.org/2000/svg">
<path d="M10 0C15.5236 0 20 4.47638 20 10C20 12.9803 18.6969 15.6575 16.626 17.4921C14.8583 19.0512 12.5394 20 10 20C7.45669 20 5.1378 19.0512 3.37402 17.4882C1.30315 15.6575 7.45058e-08 12.9803 7.45058e-08 10C7.45058e-08 4.47638 4.47638 0 10 0Z" fill="#CBD5FC"/>
<path d="M4.15842 16.6771C4.67023 16.2952 5.59936 15.6614 6.61117 15.1929C7.62299 14.7283 8.21747 13.6378 8.05606 12.5393C8.05606 12.5236 8.05212 12.5078 8.04818 12.4882C8.04818 12.4882 5.74503 10.9291 6.06393 9.40941C6.06393 9.40941 5.99306 9.41335 5.88677 9.40548C4.87102 9.31099 4.80803 7.79918 5.81196 7.63776C5.81984 7.63776 5.83165 7.63382 5.83952 7.63382L5.87102 7.46847C5.56393 6.39367 4.8159 3.13776 7.07968 3.45272C7.07968 3.45272 8.70566 0.763743 12.1427 2.05902C15.5836 3.35036 14.686 6.43304 14.686 6.43304L14.2608 7.66138C15.186 7.88973 15.0994 9.31886 14.1151 9.40941C14.0088 9.41729 13.934 9.41335 13.934 9.41335C14.2568 10.933 11.9537 12.4921 11.9537 12.4921C11.9498 12.5118 11.9498 12.5275 11.9458 12.5433C11.7883 13.6417 12.3828 14.7322 13.3907 15.1968C14.4065 15.6653 15.3316 16.3031 15.8435 16.6811C16.1505 16.9055 16.4222 17.1771 16.6309 17.496C14.8592 19.0511 12.5403 20 10.0009 20C7.45763 20 5.13873 19.0511 3.37495 17.4882C3.57968 17.1732 3.85133 16.9015 4.15842 16.6771Z" fill="#819FDE"/>
</svg>
