<svg width="66" height="24" viewBox="0 0 66 24" fill="none" xmlns="http://www.w3.org/2000/svg">
<path d="M13.4399 7.07329C12.7321 6.3653 11.7937 5.93484 10.7953 5.86021C9.79701 5.78558 8.80505 6.07173 7.99986 6.66662C7.15163 6.03572 6.09585 5.74963 5.04514 5.86598C3.99442 5.98233 3.02682 6.49248 2.33717 7.29368C1.64753 8.09488 1.28707 9.12764 1.32839 10.184C1.36971 11.2403 1.80974 12.2417 2.55986 12.9866L7.52652 17.9533C7.5885 18.0158 7.66223 18.0654 7.74347 18.0992C7.82471 18.1331 7.91185 18.1505 7.99986 18.1505C8.08787 18.1505 8.175 18.1331 8.25624 18.0992C8.33748 18.0654 8.41122 18.0158 8.47319 17.9533L13.4399 12.9866C13.8283 12.5984 14.1364 12.1375 14.3467 11.6302C14.5569 11.1229 14.6651 10.5791 14.6651 10.03C14.6651 9.4808 14.5569 8.93703 14.3467 8.42971C14.1364 7.92239 13.8283 7.46147 13.4399 7.07329V7.07329ZM12.4999 12.0466L7.99986 16.54L3.49986 12.0466C3.10331 11.6484 2.83317 11.142 2.72334 10.5909C2.61351 10.0397 2.66888 9.46841 2.88249 8.94862C3.09611 8.42883 3.45846 7.98369 3.92409 7.66904C4.38972 7.35439 4.9379 7.18425 5.49986 7.17996C6.2506 7.1818 6.96992 7.48151 7.49986 8.01329C7.56183 8.07578 7.63557 8.12537 7.71681 8.15922C7.79805 8.19306 7.88518 8.21049 7.97319 8.21049C8.0612 8.21049 8.14834 8.19306 8.22958 8.15922C8.31082 8.12537 8.38455 8.07578 8.44652 8.01329C8.99207 7.54055 9.69685 7.29272 10.4182 7.31997C11.1396 7.34723 11.8237 7.64752 12.332 8.16008C12.8403 8.67264 13.1349 9.35918 13.1562 10.0808C13.1774 10.8023 12.9238 11.505 12.4465 12.0466H12.4999Z" fill="white"/>
<path d="M44.5 4.25C44.5 4.05109 44.579 3.86032 44.7197 3.71967C44.8603 3.57902 45.0511 3.5 45.25 3.5H45.808C46.758 3.5 47.328 4.139 47.653 4.733C47.87 5.129 48.027 5.588 48.15 6.004C48.1833 6.00137 48.2166 6.00004 48.25 6H60.748C61.578 6 62.178 6.794 61.95 7.593L60.122 14.002C59.9581 14.5769 59.6114 15.0827 59.1343 15.4428C58.6572 15.803 58.0758 15.9979 57.478 15.998H51.53C50.9275 15.998 50.3417 15.8002 49.8625 15.4349C49.3834 15.0696 49.0375 14.557 48.878 13.976L48.118 11.204L46.858 6.956L46.857 6.948C46.701 6.381 46.555 5.85 46.337 5.454C46.128 5.069 45.96 5 45.809 5H45.25C45.0511 5 44.8603 4.92098 44.7197 4.78033C44.579 4.63968 44.5 4.44891 44.5 4.25ZM49.573 10.84L50.324 13.579C50.474 14.121 50.967 14.498 51.53 14.498H57.478C57.7497 14.498 58.014 14.4095 58.2309 14.2458C58.4478 14.0821 58.6054 13.8523 58.68 13.591L60.417 7.5H48.585L49.559 10.787L49.573 10.84Z" fill="white"/>
<path d="M53 19C53 19.5304 52.7893 20.0391 52.4142 20.4142C52.0391 20.7893 51.5304 21 51 21C50.4696 21 49.9609 20.7893 49.5858 20.4142C49.2107 20.0391 49 19.5304 49 19C49 18.4696 49.2107 17.9609 49.5858 17.5858C49.9609 17.2107 50.4696 17 51 17C51.5304 17 52.0391 17.2107 52.4142 17.5858C52.7893 17.9609 53 18.4696 53 19V19ZM51.5 19C51.5 18.8674 51.4473 18.7402 51.3536 18.6464C51.2598 18.5527 51.1326 18.5 51 18.5C50.8674 18.5 50.7402 18.5527 50.6464 18.6464C50.5527 18.7402 50.5 18.8674 50.5 19C50.5 19.1326 50.5527 19.2598 50.6464 19.3536C50.7402 19.4473 50.8674 19.5 51 19.5C51.1326 19.5 51.2598 19.4473 51.3536 19.3536C51.4473 19.2598 51.5 19.1326 51.5 19Z" fill="white"/>
<path d="M60 19C60 19.5304 59.7893 20.0391 59.4142 20.4142C59.0391 20.7893 58.5304 21 58 21C57.4696 21 56.9609 20.7893 56.5858 20.4142C56.2107 20.0391 56 19.5304 56 19C56 18.4696 56.2107 17.9609 56.5858 17.5858C56.9609 17.2107 57.4696 17 58 17C58.5304 17 59.0391 17.2107 59.4142 17.5858C59.7893 17.9609 60 18.4696 60 19V19ZM58.5 19C58.5 18.8674 58.4473 18.7402 58.3536 18.6464C58.2598 18.5527 58.1326 18.5 58 18.5C57.8674 18.5 57.7402 18.5527 57.6464 18.6464C57.5527 18.7402 57.5 18.8674 57.5 19C57.5 19.1326 57.5527 19.2598 57.6464 19.3536C57.7402 19.4473 57.8674 19.5 58 19.5C58.1326 19.5 58.2598 19.4473 58.3536 19.3536C58.4473 19.2598 58.5 19.1326 58.5 19Z" fill="white"/>
</svg>
