<svg width="34" height="34" viewBox="0 0 34 34" fill="none" xmlns="http://www.w3.org/2000/svg">
<path d="M17 0C7.60984 0 0 7.60984 0 17C0 22.0665 2.21535 26.6177 5.73583 29.7366C8.74094 32.387 12.6831 34 17 34C21.3236 34 25.2657 32.387 28.2642 29.7299C31.7846 26.6177 34 22.0665 34 17C34 7.60984 26.3902 0 17 0Z" fill="#CBD5FC"/>
<path d="M26.9317 28.3511C26.0616 27.7019 24.4821 26.6243 22.762 25.8279C21.0419 25.0381 20.0313 23.1842 20.3057 21.3169C20.3057 21.2901 20.3124 21.2633 20.3191 21.2298C20.3191 21.2298 24.2344 18.5795 23.6923 15.996C23.6923 15.996 23.8128 16.0027 23.9935 15.9893C25.7202 15.8287 25.8273 13.2586 24.1206 12.9842C24.1073 12.9842 24.0872 12.9775 24.0738 12.9775L24.0202 12.6964C24.5423 10.8692 25.8139 5.33418 21.9655 5.86961C21.9655 5.86961 19.2014 1.29835 13.3584 3.50032C7.50883 5.6956 9.03481 10.9361 9.03481 10.9361L9.75765 13.0243C8.18482 13.4125 8.33206 15.8421 10.0053 15.996C10.186 16.0094 10.3132 16.0027 10.3132 16.0027C9.76434 18.5861 13.6797 21.2365 13.6797 21.2365C13.6864 21.27 13.6864 21.2968 13.6931 21.3235C13.9608 23.1909 12.9502 25.0448 11.2368 25.8346C9.51001 26.631 7.93718 27.7153 7.0671 28.3578C6.54505 28.7393 6.08324 29.2011 5.72852 29.7432C8.74033 32.3869 12.6825 33.9999 16.9994 33.9999C21.323 33.9999 25.2651 32.3869 28.2636 29.7299C27.9155 29.1944 27.4537 28.7326 26.9317 28.3511Z" fill="#819FDE"/>
</svg>
