<svg width="159" height="24" viewBox="0 0 159 24" fill="none" xmlns="http://www.w3.org/2000/svg">
<path d="M8 5C8.49445 5 8.9778 5.14662 9.38893 5.42133C9.80005 5.69603 10.1205 6.08648 10.3097 6.54329C10.4989 7.00011 10.5484 7.50277 10.452 7.98773C10.3555 8.47268 10.1174 8.91814 9.76777 9.26777C9.41814 9.6174 8.97268 9.8555 8.48773 9.95196C8.00277 10.0484 7.50011 9.99892 7.04329 9.8097C6.58648 9.62048 6.19603 9.30005 5.92133 8.88893C5.64662 8.4778 5.5 7.99445 5.5 7.5C5.5 6.83696 5.76339 6.20107 6.23223 5.73223C6.70108 5.26339 7.33696 5 8 5V5ZM8 4C7.30777 4 6.63108 4.20527 6.05551 4.58986C5.47993 4.97444 5.03133 5.52107 4.76642 6.16061C4.50152 6.80015 4.4322 7.50388 4.56725 8.18282C4.7023 8.86175 5.03564 9.48539 5.52513 9.97487C6.01461 10.4644 6.63825 10.7977 7.31719 10.9327C7.99612 11.0678 8.69985 10.9985 9.33939 10.7336C9.97893 10.4687 10.5256 10.0201 10.9101 9.4445C11.2947 8.86892 11.5 8.19223 11.5 7.5C11.5 6.57174 11.1313 5.6815 10.4749 5.02513C9.8185 4.36875 8.92826 4 8 4V4Z" fill="white"/>
<path d="M13 18H12V15.5C12 15.1717 11.9353 14.8466 11.8097 14.5433C11.6841 14.24 11.4999 13.9644 11.2678 13.7322C11.0356 13.5001 10.76 13.3159 10.4567 13.1903C10.1534 13.0647 9.8283 13 9.5 13H6.5C5.83696 13 5.20107 13.2634 4.73223 13.7322C4.26339 14.2011 4 14.837 4 15.5V18H3V15.5C3 14.5717 3.36875 13.6815 4.02513 13.0251C4.6815 12.3687 5.57174 12 6.5 12H9.5C10.4283 12 11.3185 12.3687 11.9749 13.0251C12.6313 13.6815 13 14.5717 13 15.5V18Z" fill="white"/>
<path d="M106.44 7.07329C105.732 6.3653 104.794 5.93484 103.795 5.86021C102.797 5.78558 101.805 6.07173 101 6.66662C100.152 6.03572 99.0959 5.74963 98.0451 5.86598C96.9944 5.98233 96.0268 6.49248 95.3372 7.29368C94.6475 8.09488 94.2871 9.12764 94.3284 10.184C94.3697 11.2403 94.8097 12.2417 95.5599 12.9866L100.527 17.9533C100.588 18.0158 100.662 18.0654 100.743 18.0992C100.825 18.1331 100.912 18.1505 101 18.1505C101.088 18.1505 101.175 18.1331 101.256 18.0992C101.337 18.0654 101.411 18.0158 101.473 17.9533L106.44 12.9866C106.828 12.5984 107.136 12.1375 107.347 11.6302C107.557 11.1229 107.665 10.5791 107.665 10.03C107.665 9.4808 107.557 8.93703 107.347 8.42971C107.136 7.92239 106.828 7.46147 106.44 7.07329V7.07329ZM105.5 12.0466L101 16.54L96.4999 12.0466C96.1033 11.6484 95.8332 11.142 95.7233 10.5909C95.6135 10.0397 95.6689 9.46841 95.8825 8.94862C96.0961 8.42883 96.4585 7.98369 96.9241 7.66904C97.3897 7.35439 97.9379 7.18425 98.4999 7.17996C99.2506 7.1818 99.9699 7.48151 100.5 8.01329C100.562 8.07578 100.636 8.12537 100.717 8.15922C100.798 8.19306 100.885 8.21049 100.973 8.21049C101.061 8.21049 101.148 8.19306 101.23 8.15922C101.311 8.12537 101.385 8.07578 101.447 8.01329C101.992 7.54055 102.697 7.29272 103.418 7.31997C104.14 7.34723 104.824 7.64752 105.332 8.16008C105.84 8.67264 106.135 9.35918 106.156 10.0808C106.177 10.8023 105.924 11.505 105.447 12.0466H105.5Z" fill="white"/>
<path d="M137.5 4.25C137.5 4.05109 137.579 3.86032 137.72 3.71967C137.86 3.57902 138.051 3.5 138.25 3.5H138.808C139.758 3.5 140.328 4.139 140.653 4.733C140.87 5.129 141.027 5.588 141.15 6.004C141.183 6.00137 141.217 6.00004 141.25 6H153.748C154.578 6 155.178 6.794 154.95 7.593L153.122 14.002C152.958 14.5769 152.611 15.0827 152.134 15.4428C151.657 15.803 151.076 15.9979 150.478 15.998H144.53C143.927 15.998 143.342 15.8002 142.863 15.4349C142.383 15.0696 142.037 14.557 141.878 13.976L141.118 11.204L139.858 6.956L139.857 6.948C139.701 6.381 139.555 5.85 139.337 5.454C139.128 5.069 138.96 5 138.809 5H138.25C138.051 5 137.86 4.92098 137.72 4.78033C137.579 4.63968 137.5 4.44891 137.5 4.25ZM142.573 10.84L143.324 13.579C143.474 14.121 143.967 14.498 144.53 14.498H150.478C150.75 14.498 151.014 14.4095 151.231 14.2458C151.448 14.0821 151.605 13.8523 151.68 13.591L153.417 7.5H141.585L142.559 10.787L142.573 10.84Z" fill="white"/>
<path d="M146 19C146 19.5304 145.789 20.0391 145.414 20.4142C145.039 20.7893 144.53 21 144 21C143.47 21 142.961 20.7893 142.586 20.4142C142.211 20.0391 142 19.5304 142 19C142 18.4696 142.211 17.9609 142.586 17.5858C142.961 17.2107 143.47 17 144 17C144.53 17 145.039 17.2107 145.414 17.5858C145.789 17.9609 146 18.4696 146 19V19ZM144.5 19C144.5 18.8674 144.447 18.7402 144.354 18.6464C144.26 18.5527 144.133 18.5 144 18.5C143.867 18.5 143.74 18.5527 143.646 18.6464C143.553 18.7402 143.5 18.8674 143.5 19C143.5 19.1326 143.553 19.2598 143.646 19.3536C143.74 19.4473 143.867 19.5 144 19.5C144.133 19.5 144.26 19.4473 144.354 19.3536C144.447 19.2598 144.5 19.1326 144.5 19Z" fill="white"/>
<path d="M153 19C153 19.5304 152.789 20.0391 152.414 20.4142C152.039 20.7893 151.53 21 151 21C150.47 21 149.961 20.7893 149.586 20.4142C149.211 20.0391 149 19.5304 149 19C149 18.4696 149.211 17.9609 149.586 17.5858C149.961 17.2107 150.47 17 151 17C151.53 17 152.039 17.2107 152.414 17.5858C152.789 17.9609 153 18.4696 153 19V19ZM151.5 19C151.5 18.8674 151.447 18.7402 151.354 18.6464C151.26 18.5527 151.133 18.5 151 18.5C150.867 18.5 150.74 18.5527 150.646 18.6464C150.553 18.7402 150.5 18.8674 150.5 19C150.5 19.1326 150.553 19.2598 150.646 19.3536C150.74 19.4473 150.867 19.5 151 19.5C151.133 19.5 151.26 19.4473 151.354 19.3536C151.447 19.2598 151.5 19.1326 151.5 19Z" fill="white"/>
</svg>
