<svg width="959" height="65" viewBox="0 0 959 65" fill="none" xmlns="http://www.w3.org/2000/svg">
<g clip-path="url(#clip0_146_3109)">
<path d="M15.917 36.5373V47.1666H53.2749C54.3422 47.1666 55.2075 46.3013 55.2075 45.234C55.2075 44.2956 55.2075 37.4738 55.2075 36.5373L35.5622 33.9603L15.917 36.5373Z" fill="#8B9BA9"/>
<path d="M51.3422 36.022V43.3015H15.917V47.1667H53.2749C54.3422 47.1667 55.2075 46.3014 55.2075 45.2341C55.2075 44.3448 55.2075 37.4096 55.2075 36.5373L51.3422 36.022Z" fill="#6C7A88"/>
<path d="M56.9474 11.0692H21.7157C20.6484 11.0692 19.7831 11.9345 19.7831 13.0018V19.0245H6.89457C5.08668 19.0245 3.52024 20.2778 3.12354 22.0417L1.66081 28.5463C1.28511 30.2171 1.09546 31.9245 1.09546 33.637V47.1664H19.7831C19.7831 46.8519 19.7831 42.072 19.7831 36.5371H56.9475C58.0148 36.5371 58.8801 35.6718 58.8801 34.6045V13.0018C58.88 11.9344 58.0149 11.0692 56.9474 11.0692V11.0692Z" fill="#FF7E40"/>
<path d="M64.034 28.2375H58.8801V24.7695H61.4571C61.9909 24.7695 62.4234 24.3368 62.4234 23.8032C62.4234 23.2695 61.9909 22.8369 61.4571 22.8369H58.8801V19.3689H62.7455C63.2793 19.3689 63.7118 18.9362 63.7118 18.4026C63.7118 17.8689 63.2793 17.4363 62.7455 17.4363H58.8801V13.9681H64.034C64.5678 13.9681 65.0003 13.5355 65.0003 13.0018C65.0003 12.4682 64.5678 12.0355 64.034 12.0355H58.6195C58.2852 11.4584 57.6625 11.0692 56.9475 11.0692H55.0149V32.672H19.7831C19.7831 25.8735 19.7831 19.2079 19.7831 19.0243H15.9179V36.5372H13.019C10.2018 36.5372 7.63901 37.641 5.735 39.4361H1.09546V47.1666H19.7831C19.7831 46.9044 19.7831 42.1025 19.7831 36.5372H31.6949H56.9475C57.6625 36.5372 58.2852 36.148 58.6195 35.5709H62.7455C63.2793 35.5709 63.7118 35.1383 63.7118 34.6046C63.7118 34.071 63.2793 33.6383 62.7455 33.6383H58.8801V30.1702H64.034C64.5678 30.1702 65.0003 29.7376 65.0003 29.2039C65.0003 28.6702 64.5678 28.2375 64.034 28.2375V28.2375Z" fill="#FF6344"/>
<path d="M0.966303 47.1664H8.03913V43.3011H0.966303C0.432646 43.3011 0 43.7338 0 44.2675V46.2001C0 46.7338 0.432646 47.1664 0.966303 47.1664Z" fill="#8B9BA9"/>
<path d="M15.9179 22.8895H6.66405L4.82666 31.0602H15.9179V22.8895Z" fill="#9DC6FB"/>
<path d="M12.2832 27.195H5.69582L4.82666 31.0602H15.9179V22.8895H12.2832V27.195Z" fill="#80B4FB"/>
<path d="M45.8667 53.9305C49.6024 53.9305 52.6308 50.9021 52.6308 47.1663C52.6308 43.4306 49.6024 40.4022 45.8667 40.4022C42.1309 40.4022 39.1025 43.4306 39.1025 47.1663C39.1025 50.9021 42.1309 53.9305 45.8667 53.9305Z" fill="#4D5967"/>
<path d="M47.2499 40.5449C46.4571 42.0097 46.6788 43.8784 47.917 45.1164L43.8173 49.2162C42.5792 47.978 40.7105 47.7561 39.2456 48.5491C39.8857 51.6177 42.6112 53.9304 45.8671 53.9304C49.5969 53.9304 52.6312 50.8961 52.6312 47.1663C52.6311 43.9104 50.3185 41.185 47.2499 40.5449V40.5449Z" fill="#35404A"/>
<path d="M45.8664 50.0654C47.4675 50.0654 48.7654 48.7675 48.7654 47.1665C48.7654 45.5655 47.4675 44.2676 45.8664 44.2676C44.2654 44.2676 42.9675 45.5655 42.9675 47.1665C42.9675 48.7675 44.2654 50.0654 45.8664 50.0654Z" fill="#FFF9EB"/>
<path d="M13.0188 53.9305C16.7545 53.9305 19.7829 50.9021 19.7829 47.1663C19.7829 43.4306 16.7545 40.4022 13.0188 40.4022C9.28304 40.4022 6.25464 43.4306 6.25464 47.1663C6.25464 50.9021 9.28304 53.9305 13.0188 53.9305Z" fill="#4D5967"/>
<path d="M14.402 40.5449C13.6092 42.0097 13.8309 43.8784 15.069 45.1164L10.9693 49.2162C9.73132 47.978 7.86262 47.7561 6.39771 48.5491C7.03778 51.6177 9.76327 53.9304 13.0192 53.9304C16.749 53.9304 19.7833 50.8961 19.7833 47.1663C19.7833 43.9104 17.4708 41.185 14.402 40.5449V40.5449Z" fill="#35404A"/>
<path d="M13.0185 50.0654C14.6196 50.0654 15.9175 48.7675 15.9175 47.1665C15.9175 45.5655 14.6196 44.2676 13.0185 44.2676C11.4175 44.2676 10.1196 45.5655 10.1196 47.1665C10.1196 48.7675 11.4175 50.0654 13.0185 50.0654Z" fill="#FFF9EB"/>
<path d="M29.5606 21.8712V22.8375H30.7845C31.3182 22.8375 31.7505 23.2699 31.7505 23.8037C31.7505 24.3374 31.3182 24.77 30.7845 24.77H29.5606V26.7023C29.5606 27.2361 29.128 27.6686 28.5945 27.6686C28.0609 27.6686 27.6284 27.2362 27.6284 26.7023V20.9051C27.6284 20.3715 28.0609 19.9391 28.5945 19.9391H31.5574C32.0911 19.9391 32.5235 20.3715 32.5235 20.9051C32.5235 21.4389 32.0911 21.8714 31.5574 21.8714H29.5606V21.8712Z" fill="#FFF9EB"/>
<path d="M38.7694 26.0216C39.1449 26.4004 39.1424 27.0123 38.7636 27.388C38.575 27.5747 38.3292 27.6681 38.0832 27.6681C37.8346 27.6681 37.586 27.5727 37.3971 27.3822L35.7645 25.7357H35.2491V26.7018C35.2491 27.2356 34.8165 27.6681 34.2829 27.6681C33.7494 27.6681 33.3169 27.2357 33.3169 26.7018V20.9046C33.3169 20.3709 33.7494 19.9385 34.2829 19.9385H36.1672C37.7565 19.9385 39.0495 21.2389 39.0495 22.8371C39.0495 23.7799 38.5992 24.6188 37.9036 25.1486L38.7694 26.0216ZM37.117 22.8371C37.117 22.3042 36.6908 21.8708 36.1672 21.8708H35.2491V23.8031H36.1672C36.6908 23.8031 37.117 23.3697 37.117 22.8371Z" fill="#FFF9EB"/>
<path d="M45.0383 26.7016C45.0383 27.2354 44.606 27.6679 44.0723 27.6679H41.1094C40.5758 27.6679 40.1433 27.2355 40.1433 26.7016V20.9044C40.1433 20.3707 40.5758 19.9384 41.1094 19.9384H44.0723C44.606 19.9384 45.0383 20.3707 45.0383 20.9044C45.0383 21.4382 44.606 21.8707 44.0723 21.8707H42.0755V22.837H43.2994C43.833 22.837 44.2654 23.2694 44.2654 23.8032C44.2654 24.337 43.833 24.7695 43.2994 24.7695H42.0755V25.7357H44.0723C44.606 25.7355 45.0383 26.1679 45.0383 26.7016V26.7016Z" fill="#FFF9EB"/>
<path d="M51.0339 26.7016C51.0339 27.2354 50.6016 27.6679 50.0679 27.6679H47.105C46.5714 27.6679 46.1389 27.2355 46.1389 26.7016V20.9044C46.1389 20.3707 46.5714 19.9384 47.105 19.9384H50.0679C50.6016 19.9384 51.0339 20.3707 51.0339 20.9044C51.0339 21.4382 50.6016 21.8707 50.0679 21.8707H48.0711V22.837H49.295C49.8286 22.837 50.261 23.2694 50.261 23.8032C50.261 24.337 49.8286 24.7695 49.295 24.7695H48.0711V25.7357H50.0679C50.6016 25.7355 51.0339 26.1679 51.0339 26.7016V26.7016Z" fill="#FFF9EB"/>
</g>
<g clip-path="url(#clip1_146_3109)">
<path d="M611.945 36.5387L604.104 58.7718L611.993 58.6951L621.721 36.5387H611.945Z" fill="#80AAFF"/>
<path d="M621.721 36.5387L615.598 59.9338L621.764 65.0003L628.5 45.2937V36.5387H621.721Z" fill="#80AAFF"/>
<path d="M619.592 36.5387L611.993 58.6951L614.067 58.675L615.599 59.9338L623.623 36.5387H619.592Z" fill="#EAF1FF"/>
<path d="M645.056 36.5387L652.897 58.7718L645.008 58.6951L635.28 36.5387H645.056Z" fill="#6680FF"/>
<path d="M635.279 36.5387L641.402 59.9338L635.236 65.0003L628.5 45.2937V36.5387H635.279Z" fill="#6680FF"/>
<path d="M637.409 36.5387L645.008 58.6951L642.933 58.675L641.401 59.9338L633.377 36.5387H637.409Z" fill="#B3CCFF"/>
<path d="M628.499 1.90625L627.143 23.0483L628.499 43.3854C639.953 43.3854 649.239 34.1 649.239 22.6459C649.239 11.1917 639.953 1.90625 628.499 1.90625V1.90625Z" fill="#EAF1FF"/>
<path d="M607.76 22.6459C607.76 34.1 617.045 43.3854 628.499 43.3854V1.90625C617.045 1.90625 607.76 11.1917 607.76 22.6459V22.6459Z" fill="#F9F9F9"/>
<path d="M651.145 22.6462C651.145 10.159 640.986 0 628.499 0L627.143 1.35585L628.499 3.8132C638.884 3.8132 647.332 12.2616 647.332 22.6462C647.332 33.0307 638.884 41.4791 628.499 41.4791L627.143 43.3857L628.499 45.2923C640.986 45.2923 651.145 35.1333 651.145 22.6462V22.6462Z" fill="#FDAE02"/>
<path d="M628.5 41.4791C618.115 41.4791 609.667 33.0307 609.667 22.6462C609.667 12.2616 618.115 3.8132 628.5 3.8132V0C616.013 0 605.854 10.159 605.854 22.6462C605.854 35.1333 616.013 45.2923 628.5 45.2923V41.4791Z" fill="#FDCB02"/>
<path d="M639.897 15.0947L633.961 17.0357L628.5 12.4161L627.144 21.6925L628.5 31.2679H639.897V15.0947Z" fill="#FD9002"/>
<path d="M628.5 12.4161L623.039 17.0357L617.103 15.0947V31.2679H628.5V12.4161Z" fill="#FDAE02"/>
</g>
<g clip-path="url(#clip2_146_3109)">
<path d="M955.256 24.0856L956.228 22.3315C956.487 21.8645 956.318 21.276 955.851 21.0173C955.463 20.8016 954.99 20.8835 954.694 21.1859C950.456 8.60566 938.624 0.00299072 925.163 0.00299072C916.839 0.00299072 909.014 3.24451 903.128 9.13057C897.242 15.0166 894 22.8424 894 31.1665C894 38.2514 896.317 44.9279 900.701 50.474C904.953 55.8532 910.936 59.7303 917.549 61.3911C918.969 61.7477 920.44 61.9685 922.046 62.0661C922.066 62.0672 922.086 62.0679 922.105 62.0679C922.613 62.0679 923.038 61.6728 923.069 61.1597C923.102 60.6267 922.696 60.1686 922.163 60.1361C920.678 60.0458 919.323 59.8429 918.02 59.5158C905.016 56.2496 895.934 44.5921 895.934 31.1665C895.934 15.0491 909.046 1.93661 925.163 1.93661C937.749 1.93661 948.818 9.95455 952.824 21.693C952.429 21.6234 952.016 21.8054 951.811 22.1758C951.552 22.6427 951.721 23.2313 952.188 23.49L953.915 24.4473C953.966 24.478 954.301 24.6702 954.705 24.5409C955.058 24.4283 955.222 24.1483 955.256 24.0856V24.0856Z" fill="#D3CDBF"/>
<path d="M941.609 10.0999L904.226 47.4832C903.848 47.8609 903.848 48.473 904.226 48.8506C904.414 49.0393 904.662 49.1336 904.909 49.1336C905.157 49.1336 905.404 49.0393 905.593 48.8506L942.976 11.4673C943.354 11.0896 943.354 10.4775 942.976 10.0999C942.598 9.72263 941.986 9.72263 941.609 10.0999V10.0999Z" fill="#D3CDBF"/>
<path d="M906.372 16.4347C902.409 16.4347 901.062 21.5936 903.152 21.5936C903.686 21.5936 904.119 21.1611 904.119 20.6268C904.119 19.3842 905.13 18.3735 906.372 18.3735C908.445 18.3735 909.419 20.9578 907.852 22.3262L902.513 26.9912C901.843 27.5772 902.259 28.686 903.15 28.686H909.595C910.129 28.686 910.562 28.2482 910.562 27.7141C910.562 27.1801 910.129 26.7473 909.595 26.7473H905.735L909.128 23.7862C912.032 21.2519 910.24 16.4347 906.372 16.4347V16.4347Z" fill="#46525E"/>
<path d="M920.293 24.169H918.687L918.682 17.403C918.681 16.8693 918.248 16.4371 917.715 16.4371C917.181 16.4371 916.748 16.8697 916.748 17.4039V24.169H913.28C913.3 24.1115 914.879 19.5765 914.895 19.5177C915.237 18.2134 913.46 17.7485 913.063 18.8907L911.003 24.8237C910.785 25.4515 911.252 26.1076 911.916 26.1076H916.748C916.747 27.7631 916.665 28.0354 917.032 28.4026C917.64 29.0111 918.687 28.575 918.687 27.7165V26.1077H920.293C920.827 26.1077 921.26 25.675 921.26 25.1409C921.26 24.5873 920.815 24.169 920.293 24.169V24.169Z" fill="#46525E"/>
<path d="M935.999 32.3574C935.823 32.0728 935.512 31.8997 935.178 31.8997H929.257C928.723 31.8997 928.291 32.332 928.291 32.8654C928.291 33.3989 928.723 33.8312 929.257 33.8312H933.616L929.162 42.7536C928.924 43.2308 929.118 43.8108 929.595 44.049C929.734 44.1182 929.881 44.1509 930.026 44.1509C930.38 44.1509 930.722 43.955 930.891 43.6164L936.042 33.2969C936.191 32.9973 936.175 32.642 935.999 32.3574V32.3574Z" fill="#46525E"/>
<path d="M950.5 27.325C948.835 27.6277 947.626 29.0775 947.626 30.7695V33.9483C947.626 35.6408 948.836 37.0912 950.501 37.3938L950.888 37.4641C949.126 46.9205 941.871 54.4686 932.57 56.658C932.333 54.9227 930.851 53.629 929.1 53.629H924.901C923.15 53.629 921.668 54.9224 921.431 56.6575C920.743 61.7036 924.624 65.2263 928.846 64.9848C945.118 64.0539 958.137 50.999 958.99 34.6901C959.222 30.2526 955.346 26.4438 950.5 27.325Z" fill="#6C7A88"/>
<path d="M928.846 64.9844C945.118 64.0536 958.137 50.9987 958.99 34.6898C959.061 33.3344 958.747 32.0387 958.141 30.9164C956.49 31.2858 955.221 32.7165 955.128 34.4879C954.376 48.8515 942.983 60.3024 928.625 61.1236C926.856 61.2248 925.434 62.5009 925.07 64.1504C926.205 64.7586 927.508 65.061 928.846 64.9844V64.9844Z" fill="#596775"/>
</g>
<g clip-path="url(#clip3_146_3109)">
<path d="M362.652 24.2826C362.41 24.0226 362.061 23.8885 361.705 23.8885H357.807C356.232 17.373 352.55 11.4686 347.351 7.16219C341.778 2.54706 334.718 0.00380859 327.469 0C327.35 0 327.229 0.0255176 327.128 0.0881055C326.853 0.25708 326.755 0.580811 326.859 0.857568L330.339 10.1463C330.432 10.3943 330.669 10.5584 330.934 10.5584C339.164 10.5584 346.376 16.0847 348.599 23.8885H345.252C344.896 23.8885 344.548 24.0226 344.306 24.2826C343.849 24.7726 343.852 25.4909 344.251 25.9707L352.503 35.873C352.744 36.1625 353.102 36.3299 353.479 36.3299C353.855 36.3299 354.213 36.1626 354.454 35.873L362.706 25.9707C363.106 25.4909 363.108 24.7726 362.652 24.2826V24.2826Z" fill="#507BE9"/>
<path d="M326.818 29.834C334.531 29.834 340.783 23.5817 340.783 15.8691C340.783 8.15657 334.531 1.9043 326.818 1.9043C319.106 1.9043 312.854 8.15657 312.854 15.8691C312.854 23.5817 319.106 29.834 326.818 29.834Z" fill="#FFEE78"/>
<path d="M340.783 15.8691C340.783 8.15661 334.531 1.9043 326.818 1.9043V29.834C334.531 29.834 340.783 23.5817 340.783 15.8691Z" fill="#FCD232"/>
<path d="M326.818 31.7383C318.068 31.7383 310.949 24.6194 310.949 15.8691C310.949 7.1189 318.068 0 326.818 0C335.569 0 342.688 7.1189 342.688 15.8691C342.688 24.6194 335.569 31.7383 326.818 31.7383ZM326.818 3.80859C320.168 3.80859 314.758 9.21896 314.758 15.8691C314.758 22.5193 320.168 27.9297 326.818 27.9297C333.469 27.9297 338.879 22.5193 338.879 15.8691C338.879 9.21896 333.469 3.80859 326.818 3.80859Z" fill="#FCD232"/>
<path d="M338.879 15.8691C338.879 22.5193 333.469 27.9297 326.818 27.9297V31.7383C335.569 31.7383 342.688 24.6194 342.688 15.8691C342.688 7.1189 335.569 0 326.818 0V3.80859C333.469 3.80859 338.879 9.21896 338.879 15.8691Z" fill="#F7B90F"/>
<path d="M331.896 19.043C331.896 16.2429 329.618 13.9648 326.818 13.9648C326.118 13.9648 325.549 13.3953 325.549 12.6953C325.549 11.9953 326.118 11.4258 326.818 11.4258C327.42 11.4258 327.943 11.8521 328.062 12.4395C328.271 13.4701 329.277 14.136 330.307 13.9268C331.338 13.7174 332.004 12.7122 331.795 11.6815C331.449 9.9808 330.262 8.61732 328.723 7.99068V7.61719C328.723 6.56551 327.87 5.71289 326.818 5.71289C325.767 5.71289 324.914 6.56551 324.914 7.61719V7.98903C323.055 8.74402 321.74 10.5685 321.74 12.6953C321.74 15.4954 324.018 17.7734 326.818 17.7734C327.518 17.7734 328.088 18.3429 328.088 19.043C328.088 19.743 327.518 20.3125 326.818 20.3125C326.217 20.3125 325.694 19.8862 325.575 19.2988C325.366 18.2682 324.36 17.6026 323.329 17.8115C322.299 18.0209 321.633 19.0261 321.842 20.0568C322.188 21.7575 323.375 23.1211 324.914 23.7477V24.1211C324.914 25.1728 325.767 26.0254 326.818 26.0254C327.87 26.0254 328.723 25.1728 328.723 24.1211V23.7492C330.582 22.9943 331.896 21.1697 331.896 19.043Z" fill="#FCD232"/>
<path d="M326.818 13.9648V17.7734C327.518 17.7734 328.088 18.3429 328.088 19.043C328.088 19.743 327.518 20.3125 326.818 20.3125V26.0254C327.87 26.0254 328.723 25.1728 328.723 24.1211V23.7492C330.582 22.9943 331.896 21.1698 331.896 19.043C331.896 16.2429 329.618 13.9648 326.818 13.9648Z" fill="#F7B90F"/>
<path d="M328.062 12.4395C328.271 13.4701 329.277 14.136 330.307 13.9268C331.338 13.7174 332.004 12.7122 331.795 11.6815C331.449 9.9808 330.262 8.61732 328.723 7.99068V7.61719C328.723 6.56551 327.87 5.71289 326.818 5.71289V11.4258C327.42 11.4258 327.943 11.8521 328.062 12.4395Z" fill="#F7B90F"/>
<path d="M362.196 44.5536C360.788 42.5434 358.018 42.0549 356.008 43.4624L342.386 53.0002C341.853 53.3738 341.217 53.5741 340.566 53.5741H330.5V62.4609H341.366C343.32 62.4609 345.227 61.8597 346.828 60.7389L361.105 50.7419C363.115 49.3344 363.604 46.5638 362.196 44.5536V44.5536Z" fill="#FABE8C"/>
<path d="M342.386 53.0005C341.853 53.3741 341.217 53.5744 340.566 53.5744L330.5 52.7939V57.383H340.783C345.333 57.383 349.035 53.6812 349.035 49.1311C349.035 48.8745 349.022 48.6211 348.999 48.3705L342.386 53.0005Z" fill="#E6A578"/>
<path d="M362.196 44.5537C360.788 42.5435 358.018 42.055 356.008 43.4625L344.552 51.4841C344.979 50.8014 345.227 49.9953 345.227 49.1309C345.227 46.6769 343.237 44.6875 340.783 44.6875H329.992L328.75 43.7559C326.276 41.9006 323.211 40.8789 320.119 40.8789C317.512 40.8789 314.953 41.5877 312.718 42.9288C312.718 42.9288 310.6 44.1995 309.335 44.9589C308.761 45.3031 308.41 45.9229 308.41 46.5918V60.5566C308.41 61.6083 309.263 62.4609 310.314 62.4609H341.366C343.32 62.4609 345.227 61.8598 346.828 60.7389L361.105 50.742C363.115 49.3345 363.604 46.5639 362.196 44.5537V44.5537Z" fill="#FFD2AA"/>
<path d="M330.5 62.4609H341.366C343.32 62.4609 345.227 61.8597 346.828 60.7389L361.105 50.7419C363.115 49.3344 363.603 46.5638 362.196 44.5536C360.788 42.5434 358.018 42.0549 356.008 43.4624L344.552 51.484C344.979 50.8014 345.227 49.9952 345.227 49.1308C345.227 46.6768 343.237 44.6874 340.783 44.6874H330.5V62.4609Z" fill="#FABE8C"/>
<path d="M348.999 48.3705L344.552 51.4843C344.524 51.5283 344.497 51.5725 344.468 51.6154C343.669 52.7973 342.317 53.5744 340.783 53.5744H327.453C326.401 53.5744 325.549 54.427 325.549 55.4787C325.549 56.5304 326.401 57.383 327.453 57.383H340.783C345.333 57.383 349.035 53.6812 349.035 49.1311C349.035 48.8745 349.022 48.6211 348.999 48.3705Z" fill="#FABE8C"/>
<path d="M310.314 65H299.904C298.853 65 298 64.1474 298 63.0957V41.5137C298 40.462 298.853 39.6094 299.904 39.6094H310.314C311.366 39.6094 312.219 40.462 312.219 41.5137V63.0957C312.219 64.1474 311.366 65 310.314 65Z" fill="#6496F7"/>
<path d="M348.999 48.3705L344.552 51.4843C344.524 51.5283 344.497 51.5725 344.468 51.6154C343.669 52.7973 342.317 53.5744 340.783 53.5744H330.5V57.383H340.783C345.333 57.383 349.035 53.6812 349.035 49.1311C349.035 48.8745 349.022 48.6211 348.999 48.3705Z" fill="#E6A578"/>
</g>
<defs>
<clipPath id="clip0_146_3109">
<rect width="65" height="65" fill="white"/>
</clipPath>
<clipPath id="clip1_146_3109">
<rect width="65" height="65" fill="white" transform="translate(596)"/>
</clipPath>
<clipPath id="clip2_146_3109">
<rect width="65" height="65" fill="white" transform="translate(894)"/>
</clipPath>
<clipPath id="clip3_146_3109">
<rect width="65" height="65" fill="white" transform="translate(298)"/>
</clipPath>
</defs>
</svg>
