<svg width="41" height="41" viewBox="0 0 41 41" fill="none" xmlns="http://www.w3.org/2000/svg">
<path d="M20.5 0C9.17657 0 0 9.17657 0 20.5C0 26.6096 2.67146 32.0978 6.91673 35.8589C10.5406 39.0549 15.2943 41 20.5 41C25.7138 41 30.4675 39.0549 34.0833 35.8508C38.3285 32.0978 41 26.6096 41 20.5C41 9.17657 31.8234 0 20.5 0Z" fill="#CBD5FC"/>
<path d="M32.4767 34.1881C31.4275 33.4053 29.5228 32.1058 27.4486 31.1454C25.3743 30.193 24.1556 27.9574 24.4865 25.7056C24.4865 25.6734 24.4946 25.6411 24.5027 25.6007C24.5027 25.6007 29.2241 22.4047 28.5704 19.2893C28.5704 19.2893 28.7157 19.2974 28.9336 19.2812C31.0159 19.0875 31.145 15.9883 29.0869 15.6574C29.0708 15.6574 29.0466 15.6493 29.0304 15.6493L28.9659 15.3104C29.5954 13.107 31.1289 6.43242 26.4881 7.07809C26.4881 7.07809 23.1549 1.56569 16.109 4.221C9.05505 6.86825 10.8952 13.1877 10.8952 13.1877L11.7669 15.7058C9.87021 16.174 10.0478 19.1037 12.0655 19.2893C12.2834 19.3055 12.4367 19.2974 12.4367 19.2974C11.7749 22.4127 16.4964 25.6088 16.4964 25.6088C16.5045 25.6491 16.5045 25.6814 16.5125 25.7137C16.8354 27.9655 15.6167 30.2011 13.5505 31.1535C11.4682 32.1139 9.57159 33.4214 8.52238 34.1962C7.89285 34.6562 7.33596 35.2131 6.9082 35.8669C10.5401 39.0549 15.2938 40.9999 20.4995 40.9999C25.7133 40.9999 30.4671 39.0549 34.0828 35.8507C33.6631 35.2051 33.1062 34.6482 32.4767 34.1881Z" fill="#819FDE"/>
</svg>
