<svg width="80" height="20" viewBox="0 0 80 20" fill="none" xmlns="http://www.w3.org/2000/svg">
<circle cx="9.70874" cy="9.70874" r="9.70874" fill="#151875"/>
<path d="M10.8201 13.9791V9.73523H12.2519L12.4647 8.07361H10.8201V7.01523C10.8201 6.53574 10.9537 6.20746 11.6419 6.20746H12.5139V4.72603C12.0896 4.68057 11.6631 4.65861 11.2365 4.66027C9.97095 4.66027 9.10208 5.43283 9.10208 6.85108V8.0705H7.67969V9.73212H9.10519V13.9791H10.8201Z" fill="white"/>
<circle cx="70.2908" cy="9.70874" r="9.70874" fill="#151875"/>
<path d="M75.931 5.66303C75.4986 5.85461 75.0342 5.98406 74.5459 6.04257C75.0497 5.74111 75.4266 5.26664 75.6063 4.70769C75.133 4.98885 74.6149 5.18675 74.0747 5.2928C73.7114 4.9049 73.2302 4.64779 72.7058 4.5614C72.1814 4.475 71.6431 4.56415 71.1746 4.815C70.7061 5.06586 70.3335 5.46438 70.1146 5.9487C69.8958 6.43302 69.843 6.97604 69.9644 7.49345C69.0053 7.44529 68.067 7.196 67.2104 6.76175C66.3539 6.3275 65.5982 5.718 64.9925 4.9728C64.7853 5.33008 64.6663 5.74432 64.6663 6.18549C64.666 6.58264 64.7638 6.9737 64.951 7.32399C65.1381 7.67428 65.4089 7.97295 65.7391 8.19351C65.3561 8.18133 64.9815 8.07783 64.6466 7.89164V7.9227C64.6465 8.47972 64.8392 9.0196 65.1919 9.45073C65.5446 9.88186 66.0356 10.1777 66.5816 10.288C66.2263 10.3842 65.8537 10.3983 65.4921 10.3294C65.6462 10.8087 65.9463 11.2278 66.3503 11.5281C66.7544 11.8284 67.2423 11.9948 67.7456 12.004C66.8912 12.6748 65.8359 13.0386 64.7496 13.037C64.5572 13.0371 64.3649 13.0258 64.1738 13.0034C65.2765 13.7123 66.56 14.0886 67.8709 14.0871C72.3085 14.0871 74.7343 10.4118 74.7343 7.22419C74.7343 7.12063 74.7318 7.01604 74.7271 6.91248C75.199 6.57123 75.6063 6.14867 75.9299 5.66458L75.931 5.66303V5.66303Z" fill="white"/>
<circle cx="39.9998" cy="9.70874" r="9.70874" fill="#151875"/>
<path d="M44.2457 7.40725C44.2404 7.01508 44.167 6.62681 44.0287 6.2598C43.9088 5.95024 43.7256 5.6691 43.4908 5.43434C43.2561 5.19959 42.9749 5.01639 42.6653 4.89644C42.3031 4.76044 41.9203 4.6869 41.5334 4.67896C41.0353 4.6567 40.8774 4.65048 39.6129 4.65048C38.3485 4.65048 38.1864 4.65048 37.6919 4.67896C37.3052 4.68696 36.9226 4.7605 36.5605 4.89644C36.2509 5.0163 35.9697 5.19948 35.7349 5.43424C35.5002 5.669 35.317 5.95019 35.1971 6.2598C35.0609 6.62181 34.9875 7.00446 34.9802 7.39119C34.9579 7.88983 34.9512 8.04776 34.9512 9.31223C34.9512 10.5767 34.9512 10.7382 34.9802 11.2333C34.9879 11.6206 35.0609 12.0027 35.1971 12.3657C35.3172 12.6752 35.5005 12.9563 35.7353 13.1909C35.9702 13.4256 36.2514 13.6087 36.561 13.7285C36.9221 13.87 37.3048 13.9488 37.6924 13.9615C38.191 13.9838 38.349 13.9905 39.6134 13.9905C40.8779 13.9905 41.04 13.9905 41.5345 13.9615C41.9213 13.9539 42.3041 13.8806 42.6664 13.7446C42.9759 13.6245 43.2569 13.4413 43.4917 13.2065C43.7264 12.9718 43.9097 12.6907 44.0297 12.3812C44.1659 12.0188 44.2389 11.6366 44.2467 11.2488C44.269 10.7507 44.2757 10.5927 44.2757 9.32776C44.2747 8.0633 44.2747 7.90278 44.2457 7.40725V7.40725ZM39.6098 11.7034C38.2874 11.7034 37.216 10.6321 37.216 9.30964C37.216 7.98718 38.2874 6.91585 39.6098 6.91585C40.2447 6.91585 40.8536 7.16806 41.3025 7.61698C41.7514 8.0659 42.0036 8.67477 42.0036 9.30964C42.0036 9.94451 41.7514 10.5534 41.3025 11.0023C40.8536 11.4512 40.2447 11.7034 39.6098 11.7034V11.7034ZM42.0989 7.3855C41.7897 7.3855 41.5407 7.13592 41.5407 6.82731C41.5407 6.75404 41.5551 6.68149 41.5832 6.6138C41.6112 6.54611 41.6523 6.4846 41.7041 6.4328C41.7559 6.38099 41.8174 6.33989 41.8851 6.31185C41.9528 6.28381 42.0253 6.26938 42.0986 6.26938C42.1719 6.26938 42.2444 6.28381 42.3121 6.31185C42.3798 6.33989 42.4413 6.38099 42.4931 6.4328C42.5449 6.4846 42.586 6.54611 42.6141 6.6138C42.6421 6.68149 42.6565 6.75404 42.6565 6.82731C42.6565 7.13592 42.407 7.3855 42.0989 7.3855Z" fill="white"/>
<path d="M39.6096 10.8643C40.4684 10.8643 41.1646 10.1682 41.1646 9.30938C41.1646 8.4506 40.4684 7.75443 39.6096 7.75443C38.7509 7.75443 38.0547 8.4506 38.0547 9.30938C38.0547 10.1682 38.7509 10.8643 39.6096 10.8643Z" fill="white"/>
</svg>
