<svg width="80" height="20" viewBox="0 0 80 20" fill="none" xmlns="http://www.w3.org/2000/svg">
<circle cx="9.70874" cy="9.70874" r="9.70874" fill="#151875"/>
<path d="M10.8201 13.9791V9.73524H12.2519L12.4647 8.07362H10.8201V7.01524C10.8201 6.53576 10.9537 6.20747 11.6419 6.20747H12.5139V4.72605C12.0896 4.68058 11.6631 4.65863 11.2365 4.66029C9.97095 4.66029 9.10208 5.43284 9.10208 6.85109V8.07051H7.67969V9.73213H9.10519V13.9791H10.8201Z" fill="white"/>
<circle cx="70.2917" cy="9.70874" r="9.70874" fill="#151875"/>
<path d="M75.9329 5.66304C75.5006 5.85462 75.0361 5.98407 74.5478 6.04259C75.0516 5.74112 75.4286 5.26665 75.6083 4.7077C75.1349 4.98886 74.6169 5.18677 74.0766 5.29281C73.7133 4.90491 73.2321 4.6478 72.7077 4.56141C72.1833 4.47501 71.6451 4.56416 71.1766 4.81502C70.708 5.06587 70.3354 5.46439 70.1166 5.94871C69.8977 6.43303 69.8449 6.97605 69.9663 7.49346C69.0072 7.4453 68.0689 7.19601 67.2124 6.76176C66.3558 6.32751 65.6002 5.71801 64.9944 4.97281C64.7873 5.33009 64.6682 5.74433 64.6682 6.1855C64.668 6.58265 64.7658 6.97371 64.9529 7.324C65.1401 7.67429 65.4108 7.97296 65.7411 8.19352C65.3581 8.18134 64.9835 8.07784 64.6485 7.89165V7.92271C64.6485 8.47973 64.8412 9.01961 65.1939 9.45074C65.5466 9.88187 66.0376 10.1777 66.5835 10.288C66.2282 10.3842 65.8557 10.3984 65.4941 10.3294C65.6481 10.8087 65.9482 11.2278 66.3523 11.5281C66.7564 11.8284 67.2442 11.9948 67.7476 12.004C66.8931 12.6748 65.8379 13.0386 64.7516 13.037C64.5592 13.0371 64.3669 13.0258 64.1758 13.0034C65.2784 13.7123 66.562 14.0886 67.8729 14.0871C72.3104 14.0871 74.7363 10.4118 74.7363 7.2242C74.7363 7.12064 74.7337 7.01605 74.729 6.91249C75.2009 6.57125 75.6082 6.14868 75.9319 5.66459L75.9329 5.66304Z" fill="white"/>
<circle cx="39.9998" cy="9.70874" r="9.70874" fill="#151875"/>
<path d="M44.2447 7.40725C44.2395 7.01508 44.1661 6.62681 44.0277 6.25981C43.9078 5.95024 43.7246 5.6691 43.4898 5.43435C43.2551 5.1996 42.9739 5.01639 42.6644 4.89644C42.3021 4.76045 41.9193 4.68691 41.5325 4.67897C41.0343 4.6567 40.8764 4.65049 39.6119 4.65049C38.3475 4.65049 38.1854 4.65049 37.6909 4.67897C37.3042 4.68697 36.9216 4.76051 36.5595 4.89644C36.2499 5.01631 35.9687 5.19948 35.734 5.43425C35.4992 5.66901 35.316 5.9502 35.1961 6.25981C35.0599 6.62182 34.9865 7.00446 34.9792 7.3912C34.9569 7.88984 34.9502 8.04777 34.9502 9.31224C34.9502 10.5767 34.9502 10.7383 34.9792 11.2333C34.987 11.6206 35.06 12.0027 35.1961 12.3657C35.3162 12.6752 35.4995 12.9563 35.7344 13.191C35.9692 13.4256 36.2504 13.6087 36.56 13.7285C36.9212 13.87 37.3038 13.9488 37.6914 13.9616C38.1901 13.9838 38.348 13.9906 39.6125 13.9906C40.8769 13.9906 41.039 13.9906 41.5335 13.9616C41.9204 13.9539 42.3031 13.8806 42.6654 13.7446C42.9749 13.6245 43.256 13.4413 43.4907 13.2065C43.7254 12.9718 43.9087 12.6907 44.0288 12.3812C44.165 12.0188 44.238 11.6366 44.2457 11.2488C44.268 10.7507 44.2747 10.5928 44.2747 9.32777C44.2737 8.06331 44.2737 7.90279 44.2447 7.40725ZM39.6088 11.7034C38.2864 11.7034 37.215 10.6321 37.215 9.30965C37.215 7.98719 38.2864 6.91586 39.6088 6.91586C40.2437 6.91586 40.8526 7.16806 41.3015 7.61699C41.7504 8.06591 42.0026 8.67478 42.0026 9.30965C42.0026 9.94452 41.7504 10.5534 41.3015 11.0023C40.8526 11.4512 40.2437 11.7034 39.6088 11.7034ZM42.0979 7.38551C41.7888 7.38551 41.5397 7.13593 41.5397 6.82732C41.5397 6.75405 41.5541 6.6815 41.5822 6.61381C41.6102 6.54612 41.6513 6.48461 41.7031 6.4328C41.7549 6.38099 41.8164 6.3399 41.8841 6.31186C41.9518 6.28382 42.0244 6.26939 42.0976 6.26939C42.1709 6.26939 42.2435 6.28382 42.3111 6.31186C42.3788 6.3399 42.4403 6.38099 42.4922 6.4328C42.544 6.48461 42.5851 6.54612 42.6131 6.61381C42.6411 6.6815 42.6556 6.75405 42.6556 6.82732C42.6556 7.13593 42.406 7.38551 42.0979 7.38551Z" fill="white"/>
<path d="M39.6087 10.8643C40.4674 10.8643 41.1636 10.1682 41.1636 9.30938C41.1636 8.45061 40.4674 7.75443 39.6087 7.75443C38.7499 7.75443 38.0537 8.45061 38.0537 9.30938C38.0537 10.1682 38.7499 10.8643 39.6087 10.8643Z" fill="white"/>
</svg>
