<svg width="31" height="12" viewBox="0 0 31 12" fill="none" xmlns="http://www.w3.org/2000/svg">
<path d="M4.72708 9.80507C4.46378 10.8583 4.61737 11.341 4.72708 11.4507L29.741 11.1217C31.3208 7.17215 28.8633 6.18477 27.4371 6.18477C29.5435 5.13156 28.0953 2.674 27.108 1.57688C23.685 -0.266319 19.9769 2.12539 18.5506 3.55164C16.4442 -0.924507 12.1875 0.37007 10.3225 1.57688C7.68943 1.05027 5.71446 2.67397 5.05611 3.55164C2.75221 6.51379 5.05621 8.48856 4.72708 9.80507Z" fill="#6CDD6C" stroke="#50AA50" stroke-width="0.658255"/>
<line x1="0.39944" y1="7.00793" x2="0.39944" y2="9.64095" stroke="#58AF58" stroke-width="0.658255"/>
<line x1="1.71585" y1="6.34967" x2="1.71585" y2="8.32444" stroke="#50AA50" stroke-width="0.658255"/>
<line x1="2.99751" y1="3.20554" x2="2.33925" y2="4.52205" stroke="#50AA50" stroke-width="0.658255"/>
<line x1="7.60493" y1="5.18033" x2="6.94667" y2="6.49684" stroke="#50AA50" stroke-width="0.658255"/>
<line x1="8.98805" y1="9.5639" x2="9.6463" y2="8.18279" stroke="#50AA50" stroke-width="0.658255"/>
<line x1="14.2236" y1="8.98267" x2="14.2236" y2="7.66616" stroke="#50AA50" stroke-width="0.658255"/>
<line x1="18.831" y1="7.66614" x2="18.831" y2="6.34963" stroke="#50AA50" stroke-width="0.658255"/>
<line x1="24.0967" y1="10.2992" x2="24.0967" y2="9.64094" stroke="#50AA50" stroke-width="0.658255"/>
</svg>
