<svg width="80" height="20" viewBox="0 0 80 20" fill="none" xmlns="http://www.w3.org/2000/svg">
<circle cx="9.70874" cy="9.70874" r="9.70874" fill="#151875"/>
<path d="M10.8201 13.9791V9.7352H12.2519L12.4647 8.07358H10.8201V7.0152C10.8201 6.53571 10.9537 6.20743 11.6419 6.20743H12.5139V4.726C12.0896 4.68054 11.6631 4.65858 11.2365 4.66024C9.97095 4.66024 9.10208 5.4328 9.10208 6.85105V8.07047H7.67969V9.73209H9.10519V13.9791H10.8201Z" fill="white"/>
<circle cx="70.2908" cy="9.70874" r="9.70874" fill="#151875"/>
<path d="M75.931 5.66303C75.4986 5.85461 75.0342 5.98406 74.5459 6.04257C75.0497 5.74111 75.4266 5.26664 75.6063 4.70769C75.133 4.98885 74.6149 5.18675 74.0747 5.2928C73.7114 4.9049 73.2302 4.64779 72.7058 4.5614C72.1814 4.475 71.6431 4.56415 71.1746 4.815C70.7061 5.06586 70.3335 5.46438 70.1146 5.9487C69.8958 6.43302 69.843 6.97604 69.9644 7.49345C69.0053 7.44529 68.067 7.196 67.2104 6.76175C66.3539 6.3275 65.5982 5.718 64.9925 4.9728C64.7853 5.33008 64.6663 5.74432 64.6663 6.18549C64.666 6.58264 64.7638 6.9737 64.951 7.32399C65.1381 7.67428 65.4089 7.97295 65.7391 8.19351C65.3561 8.18133 64.9815 8.07783 64.6466 7.89164V7.9227C64.6465 8.47972 64.8392 9.0196 65.1919 9.45073C65.5446 9.88186 66.0356 10.1777 66.5816 10.288C66.2263 10.3842 65.8537 10.3983 65.4921 10.3294C65.6462 10.8087 65.9463 11.2278 66.3503 11.5281C66.7544 11.8284 67.2423 11.9948 67.7456 12.004C66.8912 12.6748 65.8359 13.0386 64.7496 13.037C64.5572 13.0371 64.3649 13.0258 64.1738 13.0034C65.2765 13.7123 66.56 14.0886 67.8709 14.0871C72.3085 14.0871 74.7343 10.4118 74.7343 7.22419C74.7343 7.12063 74.7318 7.01604 74.7271 6.91248C75.199 6.57123 75.6063 6.14867 75.9299 5.66458L75.931 5.66303V5.66303Z" fill="white"/>
<circle cx="39.9998" cy="9.70874" r="9.70874" fill="#151875"/>
<path d="M44.2457 7.40715C44.2404 7.01499 44.167 6.62671 44.0287 6.25971C43.9088 5.95015 43.7256 5.669 43.4908 5.43425C43.2561 5.1995 42.9749 5.01629 42.6653 4.89635C42.3031 4.76035 41.9203 4.68681 41.5334 4.67887C41.0353 4.6566 40.8774 4.65039 39.6129 4.65039C38.3485 4.65039 38.1864 4.65039 37.6919 4.67887C37.3052 4.68687 36.9226 4.76041 36.5605 4.89635C36.2509 5.01621 35.9697 5.19938 35.7349 5.43415C35.5002 5.66891 35.317 5.9501 35.1971 6.25971C35.0609 6.62172 34.9875 7.00436 34.9802 7.3911C34.9579 7.88974 34.9512 8.04767 34.9512 9.31214C34.9512 10.5766 34.9512 10.7382 34.9802 11.2332C34.9879 11.6205 35.0609 12.0026 35.1971 12.3656C35.3172 12.6751 35.5005 12.9562 35.7353 13.1909C35.9702 13.4255 36.2514 13.6086 36.561 13.7284C36.9221 13.8699 37.3048 13.9487 37.6924 13.9615C38.191 13.9837 38.349 13.9905 39.6134 13.9905C40.8779 13.9905 41.04 13.9905 41.5345 13.9615C41.9213 13.9538 42.3041 13.8805 42.6664 13.7445C42.9759 13.6244 43.2569 13.4412 43.4917 13.2064C43.7264 12.9717 43.9097 12.6906 44.0297 12.3811C44.1659 12.0187 44.2389 11.6365 44.2467 11.2487C44.269 10.7506 44.2757 10.5927 44.2757 9.32767C44.2747 8.06321 44.2747 7.90269 44.2457 7.40715V7.40715ZM39.6098 11.7033C38.2874 11.7033 37.216 10.632 37.216 9.30955C37.216 7.98709 38.2874 6.91576 39.6098 6.91576C40.2447 6.91576 40.8536 7.16796 41.3025 7.61689C41.7514 8.06581 42.0036 8.67468 42.0036 9.30955C42.0036 9.94442 41.7514 10.5533 41.3025 11.0022C40.8536 11.4511 40.2447 11.7033 39.6098 11.7033V11.7033ZM42.0989 7.38541C41.7897 7.38541 41.5407 7.13583 41.5407 6.82722C41.5407 6.75395 41.5551 6.6814 41.5832 6.61371C41.6112 6.54602 41.6523 6.48451 41.7041 6.4327C41.7559 6.3809 41.8174 6.3398 41.8851 6.31176C41.9528 6.28372 42.0253 6.26929 42.0986 6.26929C42.1719 6.26929 42.2444 6.28372 42.3121 6.31176C42.3798 6.3398 42.4413 6.3809 42.4931 6.4327C42.5449 6.48451 42.586 6.54602 42.6141 6.61371C42.6421 6.6814 42.6565 6.75395 42.6565 6.82722C42.6565 7.13583 42.407 7.38541 42.0989 7.38541Z" fill="white"/>
<path d="M39.6096 10.8643C40.4684 10.8643 41.1646 10.1681 41.1646 9.30935C41.1646 8.45057 40.4684 7.75439 39.6096 7.75439C38.7509 7.75439 38.0547 8.45057 38.0547 9.30935C38.0547 10.1681 38.7509 10.8643 39.6096 10.8643Z" fill="white"/>
</svg>
