<svg width="80" height="20" viewBox="0 0 80 20" fill="none" xmlns="http://www.w3.org/2000/svg">
<circle cx="9.70874" cy="9.70874" r="9.70874" fill="#151875"/>
<path d="M10.8201 13.9791V9.73526H12.2519L12.4647 8.07364H10.8201V7.01526C10.8201 6.53577 10.9537 6.20749 11.6419 6.20749H12.5139V4.72607C12.0896 4.6806 11.6631 4.65864 11.2365 4.6603C9.97095 4.6603 9.10208 5.43286 9.10208 6.85111V8.07053H7.67969V9.73215H9.10519V13.9791H10.8201Z" fill="white"/>
<circle cx="70.2908" cy="9.70874" r="9.70874" fill="#151875"/>
<path d="M75.929 5.66306C75.4967 5.85464 75.0322 5.98409 74.5439 6.04261C75.0477 5.74114 75.4247 5.26667 75.6044 4.70772C75.131 4.98888 74.613 5.18678 74.0727 5.29283C73.7094 4.90493 73.2282 4.64782 72.7038 4.56143C72.1794 4.47503 71.6412 4.56418 71.1726 4.81503C70.7041 5.06589 70.3315 5.46441 70.1127 5.94873C69.8938 6.43305 69.841 6.97607 69.9624 7.49348C69.0033 7.44532 68.065 7.19603 67.2085 6.76178C66.3519 6.32753 65.5963 5.71803 64.9905 4.97283C64.7834 5.33011 64.6643 5.74435 64.6643 6.18552C64.6641 6.58267 64.7619 6.97373 64.949 7.32402C65.1362 7.67431 65.4069 7.97298 65.7372 8.19354C65.3542 8.18136 64.9796 8.07786 64.6446 7.89167V7.92273C64.6446 8.47975 64.8373 9.01963 65.19 9.45076C65.5427 9.88189 66.0337 10.1777 66.5796 10.288C66.2243 10.3842 65.8518 10.3984 65.4902 10.3295C65.6442 10.8087 65.9443 11.2279 66.3484 11.5281C66.7525 11.8284 67.2403 11.9948 67.7437 12.004C66.8892 12.6748 65.834 13.0386 64.7477 13.037C64.5552 13.0371 64.363 13.0259 64.1719 13.0034C65.2745 13.7123 66.5581 14.0886 67.869 14.0871C72.3065 14.0871 74.7324 10.4118 74.7324 7.22422C74.7324 7.12066 74.7298 7.01607 74.7251 6.91251C75.197 6.57126 75.6043 6.1487 75.928 5.66461L75.929 5.66306V5.66306Z" fill="white"/>
<circle cx="40.0017" cy="9.70874" r="9.70874" fill="#151875"/>
<path d="M44.2437 7.40728C44.2385 7.01511 44.1651 6.62684 44.0268 6.25983C43.9068 5.95027 43.7236 5.66913 43.4889 5.43437C43.2541 5.19962 42.973 5.01642 42.6634 4.89647C42.3011 4.76047 41.9184 4.68694 41.5315 4.67899C41.0334 4.65673 40.8754 4.65051 39.611 4.65051C38.3465 4.65051 38.1844 4.65051 37.6899 4.67899C37.3032 4.68699 36.9207 4.76053 36.5585 4.89647C36.2489 5.01633 35.9677 5.19951 35.733 5.43427C35.4982 5.66903 35.315 5.95022 35.1952 6.25983C35.0589 6.62184 34.9855 7.00449 34.9782 7.39122C34.956 7.88987 34.9492 8.04779 34.9492 9.31226C34.9492 10.5767 34.9492 10.7383 34.9782 11.2333C34.986 11.6206 35.059 12.0027 35.1952 12.3657C35.3152 12.6752 35.4986 12.9563 35.7334 13.191C35.9682 13.4256 36.2494 13.6087 36.5591 13.7286C36.9202 13.87 37.3028 13.9488 37.6904 13.9616C38.1891 13.9838 38.347 13.9906 39.6115 13.9906C40.876 13.9906 41.038 13.9906 41.5325 13.9616C41.9194 13.954 42.3022 13.8806 42.6644 13.7446C42.9739 13.6245 43.255 13.4413 43.4897 13.2065C43.7245 12.9718 43.9077 12.6907 44.0278 12.3813C44.164 12.0188 44.237 11.6367 44.2448 11.2488C44.267 10.7507 44.2737 10.5928 44.2737 9.32779C44.2727 8.06333 44.2727 7.90281 44.2437 7.40728V7.40728ZM39.6079 11.7035C38.2854 11.7035 37.2141 10.6321 37.2141 9.30967C37.2141 7.98721 38.2854 6.91588 39.6079 6.91588C40.2427 6.91588 40.8516 7.16809 41.3005 7.61701C41.7494 8.06593 42.0016 8.6748 42.0016 9.30967C42.0016 9.94454 41.7494 10.5534 41.3005 11.0023C40.8516 11.4513 40.2427 11.7035 39.6079 11.7035V11.7035ZM42.0969 7.38553C41.7878 7.38553 41.5387 7.13595 41.5387 6.82734C41.5387 6.75407 41.5532 6.68152 41.5812 6.61383C41.6092 6.54614 41.6503 6.48463 41.7021 6.43283C41.754 6.38102 41.8155 6.33992 41.8832 6.31188C41.9508 6.28384 42.0234 6.26941 42.0967 6.26941C42.1699 6.26941 42.2425 6.28384 42.3102 6.31188C42.3779 6.33992 42.4394 6.38102 42.4912 6.43283C42.543 6.48463 42.5841 6.54614 42.6121 6.61383C42.6402 6.68152 42.6546 6.75407 42.6546 6.82734C42.6546 7.13595 42.405 7.38553 42.0969 7.38553Z" fill="white"/>
<path d="M39.6096 10.8644C40.4684 10.8644 41.1646 10.1682 41.1646 9.30941C41.1646 8.45063 40.4684 7.75446 39.6096 7.75446C38.7509 7.75446 38.0547 8.45063 38.0547 9.30941C38.0547 10.1682 38.7509 10.8644 39.6096 10.8644Z" fill="white"/>
</svg>
