<svg width="80" height="20" viewBox="0 0 80 20" fill="none" xmlns="http://www.w3.org/2000/svg">
<circle cx="9.70874" cy="9.70874" r="9.70874" fill="#151875"/>
<path d="M10.8201 13.9791V9.7352H12.2519L12.4647 8.07358H10.8201V7.0152C10.8201 6.53571 10.9537 6.20743 11.6419 6.20743H12.5139V4.726C12.0896 4.68054 11.6631 4.65858 11.2365 4.66024C9.97095 4.66024 9.10208 5.4328 9.10208 6.85105V8.07047H7.67969V9.73209H9.10519V13.9791H10.8201Z" fill="white"/>
<circle cx="70.2913" cy="9.70874" r="9.70874" fill="#151875"/>
<path d="M75.932 5.66303C75.4996 5.85461 75.0351 5.98406 74.5468 6.04257C75.0507 5.74111 75.4276 5.26664 75.6073 4.70769C75.1339 4.98885 74.6159 5.18675 74.0756 5.2928C73.7123 4.9049 73.2311 4.64779 72.7068 4.5614C72.1824 4.475 71.6441 4.56415 71.1756 4.815C70.707 5.06586 70.3344 5.46438 70.1156 5.9487C69.8968 6.43302 69.8439 6.97604 69.9654 7.49345C69.0062 7.44529 68.0679 7.196 67.2114 6.76175C66.3549 6.3275 65.5992 5.718 64.9934 4.9728C64.7863 5.33008 64.6672 5.74432 64.6672 6.18549C64.667 6.58264 64.7648 6.9737 64.952 7.32399C65.1391 7.67428 65.4098 7.97295 65.7401 8.19351C65.3571 8.18133 64.9825 8.07783 64.6476 7.89164V7.9227C64.6475 8.47972 64.8402 9.0196 65.1929 9.45073C65.5456 9.88186 66.0366 10.1777 66.5826 10.288C66.2272 10.3842 65.8547 10.3983 65.4931 10.3294C65.6472 10.8087 65.9472 11.2278 66.3513 11.5281C66.7554 11.8284 67.2432 11.9948 67.7466 12.004C66.8921 12.6748 65.8369 13.0386 64.7506 13.037C64.5582 13.0371 64.3659 13.0258 64.1748 13.0034C65.2774 13.7123 66.561 14.0886 67.8719 14.0871C72.3094 14.0871 74.7353 10.4118 74.7353 7.22419C74.7353 7.12063 74.7327 7.01604 74.7281 6.91248C75.1999 6.57123 75.6072 6.14867 75.9309 5.66458L75.932 5.66303V5.66303Z" fill="white"/>
<circle cx="40.0002" cy="9.70874" r="9.70874" fill="#151875"/>
<path d="M44.2447 7.40728C44.2395 7.01511 44.1661 6.62684 44.0277 6.25983C43.9078 5.95027 43.7246 5.66913 43.4898 5.43437C43.2551 5.19962 42.9739 5.01642 42.6644 4.89647C42.3021 4.76047 41.9193 4.68694 41.5325 4.67899C41.0343 4.65673 40.8764 4.65051 39.6119 4.65051C38.3475 4.65051 38.1854 4.65051 37.6909 4.67899C37.3042 4.68699 36.9216 4.76053 36.5595 4.89647C36.2499 5.01633 35.9687 5.19951 35.734 5.43427C35.4992 5.66903 35.316 5.95022 35.1961 6.25983C35.0599 6.62184 34.9865 7.00449 34.9792 7.39122C34.9569 7.88987 34.9502 8.04779 34.9502 9.31226C34.9502 10.5767 34.9502 10.7383 34.9792 11.2333C34.987 11.6206 35.06 12.0027 35.1961 12.3657C35.3162 12.6752 35.4995 12.9563 35.7344 13.191C35.9692 13.4256 36.2504 13.6087 36.56 13.7286C36.9212 13.87 37.3038 13.9488 37.6914 13.9616C38.1901 13.9838 38.348 13.9906 39.6125 13.9906C40.8769 13.9906 41.039 13.9906 41.5335 13.9616C41.9204 13.954 42.3031 13.8806 42.6654 13.7446C42.9749 13.6245 43.256 13.4413 43.4907 13.2065C43.7254 12.9718 43.9087 12.6907 44.0288 12.3813C44.165 12.0188 44.238 11.6367 44.2457 11.2488C44.268 10.7507 44.2747 10.5928 44.2747 9.32779C44.2737 8.06333 44.2737 7.90281 44.2447 7.40728V7.40728ZM39.6088 11.7035C38.2864 11.7035 37.215 10.6321 37.215 9.30967C37.215 7.98721 38.2864 6.91588 39.6088 6.91588C40.2437 6.91588 40.8526 7.16809 41.3015 7.61701C41.7504 8.06593 42.0026 8.6748 42.0026 9.30967C42.0026 9.94454 41.7504 10.5534 41.3015 11.0023C40.8526 11.4513 40.2437 11.7035 39.6088 11.7035V11.7035ZM42.0979 7.38553C41.7888 7.38553 41.5397 7.13595 41.5397 6.82734C41.5397 6.75407 41.5541 6.68152 41.5822 6.61383C41.6102 6.54614 41.6513 6.48463 41.7031 6.43283C41.7549 6.38102 41.8164 6.33992 41.8841 6.31188C41.9518 6.28384 42.0244 6.26941 42.0976 6.26941C42.1709 6.26941 42.2435 6.28384 42.3111 6.31188C42.3788 6.33992 42.4403 6.38102 42.4922 6.43283C42.544 6.48463 42.5851 6.54614 42.6131 6.61383C42.6411 6.68152 42.6556 6.75407 42.6556 6.82734C42.6556 7.13595 42.406 7.38553 42.0979 7.38553Z" fill="white"/>
<path d="M39.6087 10.8643C40.4674 10.8643 41.1636 10.1681 41.1636 9.30935C41.1636 8.45057 40.4674 7.75439 39.6087 7.75439C38.7499 7.75439 38.0537 8.45057 38.0537 9.30935C38.0537 10.1681 38.7499 10.8643 39.6087 10.8643Z" fill="white"/>
</svg>
