<svg width="110" height="114" viewBox="0 0 110 114" fill="none" xmlns="http://www.w3.org/2000/svg">
<path d="M60.4399 101.073C59.7321 100.365 58.7937 99.9349 57.7953 99.8603C56.797 99.7856 55.8051 100.072 54.9999 100.667C54.1516 100.036 53.0959 99.7497 52.0451 99.866C50.9944 99.9824 50.0268 100.493 49.3372 101.294C48.6475 102.095 48.2871 103.128 48.3284 104.184C48.3697 105.24 48.8097 106.242 49.5599 106.987L54.5265 111.953C54.5885 112.016 54.6622 112.065 54.7435 112.099C54.8247 112.133 54.9118 112.151 54.9999 112.151C55.0879 112.151 55.175 112.133 55.2562 112.099C55.3375 112.065 55.4112 112.016 55.4732 111.953L60.4399 106.987C60.8283 106.599 61.1364 106.138 61.3467 105.63C61.5569 105.123 61.6651 104.579 61.6651 104.03C61.6651 103.481 61.5569 102.937 61.3467 102.43C61.1364 101.922 60.8283 101.462 60.4399 101.073V101.073ZM59.4999 106.047L54.9999 110.54L50.4999 106.047C50.1033 105.648 49.8332 105.142 49.7233 104.591C49.6135 104.04 49.6689 103.468 49.8825 102.949C50.0961 102.429 50.4585 101.984 50.9241 101.669C51.3897 101.354 51.9379 101.184 52.4999 101.18C53.2506 101.182 53.9699 101.482 54.4999 102.013C54.5618 102.076 54.6356 102.125 54.7168 102.159C54.798 102.193 54.8852 102.211 54.9732 102.211C55.0612 102.211 55.1483 102.193 55.2296 102.159C55.3108 102.125 55.3845 102.076 55.4465 102.013C55.9921 101.541 56.6969 101.293 57.4182 101.32C58.1396 101.347 58.8237 101.648 59.332 102.16C59.8403 102.673 60.1349 103.359 60.1562 104.081C60.1774 104.802 59.9238 105.505 59.4465 106.047H59.4999Z" fill="#151875"/>
<path d="M56.9999 78.6667H54.9999V76.6667C54.9999 76.4899 54.9297 76.3203 54.8047 76.1953C54.6796 76.0702 54.5101 76 54.3333 76C54.1565 76 53.9869 76.0702 53.8619 76.1953C53.7368 76.3203 53.6666 76.4899 53.6666 76.6667V78.6667H51.6666C51.4898 78.6667 51.3202 78.7369 51.1952 78.8619C51.0702 78.987 50.9999 79.1565 50.9999 79.3333C50.9999 79.5101 51.0702 79.6797 51.1952 79.8047C51.3202 79.9298 51.4898 80 51.6666 80H53.6666V82C53.6666 82.1768 53.7368 82.3464 53.8619 82.4714C53.9869 82.5964 54.1565 82.6667 54.3333 82.6667C54.5101 82.6667 54.6796 82.5964 54.8047 82.4714C54.9297 82.3464 54.9999 82.1768 54.9999 82V80H56.9999C57.1767 80 57.3463 79.9298 57.4713 79.8047C57.5964 79.6797 57.6666 79.5101 57.6666 79.3333C57.6666 79.1565 57.5964 78.987 57.4713 78.8619C57.3463 78.7369 57.1767 78.6667 56.9999 78.6667ZM61.4733 85.5267L58.9999 83.0733C59.96 81.8763 60.4249 80.3569 60.2991 78.8275C60.1733 77.2982 59.4664 75.8752 58.3236 74.8511C57.1808 73.827 55.6891 73.2797 54.1552 73.3216C52.6213 73.3636 51.1618 73.9917 50.0767 75.0768C48.9916 76.1618 48.3636 77.6214 48.3216 79.1553C48.2796 80.6892 48.8269 82.1809 49.851 83.3237C50.8751 84.4664 52.2981 85.1734 53.8275 85.2992C55.3568 85.425 56.8762 84.9601 58.0733 84L60.5266 86.4533C60.5886 86.5158 60.6623 86.5654 60.7436 86.5993C60.8248 86.6331 60.9119 86.6505 60.9999 86.6505C61.0879 86.6505 61.1751 86.6331 61.2563 86.5993C61.3376 86.5654 61.4113 86.5158 61.4733 86.4533C61.5934 86.329 61.6606 86.1629 61.6606 85.99C61.6606 85.8171 61.5934 85.651 61.4733 85.5267V85.5267ZM54.3333 84C53.4103 84 52.508 83.7263 51.7406 83.2135C50.9732 82.7007 50.375 81.9719 50.0218 81.1192C49.6686 80.2665 49.5762 79.3282 49.7563 78.4229C49.9363 77.5177 50.3808 76.6861 51.0334 76.0335C51.6861 75.3809 52.5176 74.9364 53.4228 74.7563C54.3281 74.5763 55.2664 74.6687 56.1191 75.0219C56.9718 75.3751 57.7007 75.9732 58.2135 76.7407C58.7262 77.5081 58.9999 78.4104 58.9999 79.3333C58.9999 80.571 58.5083 81.758 57.6331 82.6332C56.7579 83.5083 55.5709 84 54.3333 84V84Z" fill="#151875"/>
<g filter="url(#filter0_d_228_1563)">
<g filter="url(#filter1_d_228_1563)">
<circle cx="55" cy="47" r="15" fill="white"/>
</g>
<path d="M48.6665 41.8333C48.6665 41.7007 48.7192 41.5735 48.813 41.4798C48.9067 41.386 49.0339 41.3333 49.1665 41.3333H49.5385C50.1718 41.3333 50.5518 41.7593 50.7685 42.1553C50.9132 42.4193 51.0178 42.7253 51.0998 43.0026C51.122 43.0009 51.1443 43 51.1665 43H59.4985C60.0518 43 60.4518 43.5293 60.2998 44.062L59.0812 48.3346C58.9719 48.7179 58.7407 49.0551 58.4227 49.2952C58.1046 49.5353 57.717 49.6652 57.3185 49.6653H53.3532C52.9515 49.6653 52.5609 49.5334 52.2415 49.2899C51.9221 49.0464 51.6915 48.7047 51.5852 48.3173L51.0785 46.4693L50.2385 43.6373L50.2378 43.632C50.1338 43.254 50.0365 42.9 49.8912 42.636C49.7518 42.3793 49.6398 42.3333 49.5392 42.3333H49.1665C49.0339 42.3333 48.9067 42.2806 48.813 42.1869C48.7192 42.0931 48.6665 41.9659 48.6665 41.8333ZM52.0485 46.2266L52.5492 48.0526C52.6492 48.414 52.9778 48.6653 53.3532 48.6653H57.3185C57.4996 48.6653 57.6758 48.6063 57.8204 48.4972C57.965 48.3881 58.0701 48.2348 58.1198 48.0606L59.2778 44H51.3898L52.0392 46.1913L52.0485 46.2266Z" fill="#151875"/>
<path d="M54.3332 51.6666C54.3332 52.0203 54.1927 52.3594 53.9426 52.6095C53.6926 52.8595 53.3535 53 52.9998 53C52.6462 53 52.3071 52.8595 52.057 52.6095C51.807 52.3594 51.6665 52.0203 51.6665 51.6666C51.6665 51.313 51.807 50.9739 52.057 50.7238C52.3071 50.4738 52.6462 50.3333 52.9998 50.3333C53.3535 50.3333 53.6926 50.4738 53.9426 50.7238C54.1927 50.9739 54.3332 51.313 54.3332 51.6666V51.6666ZM53.3332 51.6666C53.3332 51.5782 53.2981 51.4935 53.2355 51.4309C53.173 51.3684 53.0882 51.3333 52.9998 51.3333C52.9114 51.3333 52.8266 51.3684 52.7641 51.4309C52.7016 51.4935 52.6665 51.5782 52.6665 51.6666C52.6665 51.7551 52.7016 51.8398 52.7641 51.9023C52.8266 51.9649 52.9114 52 52.9998 52C53.0882 52 53.173 51.9649 53.2355 51.9023C53.2981 51.8398 53.3332 51.7551 53.3332 51.6666Z" fill="#151875"/>
<path d="M58.9997 51.6666C58.9997 52.0203 58.8592 52.3594 58.6092 52.6095C58.3591 52.8595 58.02 53 57.6663 53C57.3127 53 56.9736 52.8595 56.7235 52.6095C56.4735 52.3594 56.333 52.0203 56.333 51.6666C56.333 51.313 56.4735 50.9739 56.7235 50.7238C56.9736 50.4738 57.3127 50.3333 57.6663 50.3333C58.02 50.3333 58.3591 50.4738 58.6092 50.7238C58.8592 50.9739 58.9997 51.313 58.9997 51.6666V51.6666ZM57.9997 51.6666C57.9997 51.5782 57.9646 51.4935 57.902 51.4309C57.8395 51.3684 57.7547 51.3333 57.6663 51.3333C57.5779 51.3333 57.4932 51.3684 57.4306 51.4309C57.3681 51.4935 57.333 51.5782 57.333 51.6666C57.333 51.7551 57.3681 51.8398 57.4306 51.9023C57.4932 51.9649 57.5779 52 57.6663 52C57.7547 52 57.8395 51.9649 57.902 51.9023C57.9646 51.8398 57.9997 51.7551 57.9997 51.6666Z" fill="#151875"/>
</g>
<defs>
<filter id="filter0_d_228_1563" x="0" y="0" width="110" height="110" filterUnits="userSpaceOnUse" color-interpolation-filters="sRGB">
<feFlood flood-opacity="0" result="BackgroundImageFix"/>
<feColorMatrix in="SourceAlpha" type="matrix" values="0 0 0 0 0 0 0 0 0 0 0 0 0 0 0 0 0 0 127 0" result="hardAlpha"/>
<feOffset dy="8"/>
<feGaussianBlur stdDeviation="20"/>
<feColorMatrix type="matrix" values="0 0 0 0 0.192157 0 0 0 0 0.12549 0 0 0 0 0.541176 0 0 0 0.05 0"/>
<feBlend mode="normal" in2="BackgroundImageFix" result="effect1_dropShadow_228_1563"/>
<feBlend mode="normal" in="SourceGraphic" in2="effect1_dropShadow_228_1563" result="shape"/>
</filter>
<filter id="filter1_d_228_1563" x="0" y="0" width="110" height="110" filterUnits="userSpaceOnUse" color-interpolation-filters="sRGB">
<feFlood flood-opacity="0" result="BackgroundImageFix"/>
<feColorMatrix in="SourceAlpha" type="matrix" values="0 0 0 0 0 0 0 0 0 0 0 0 0 0 0 0 0 0 127 0" result="hardAlpha"/>
<feOffset dy="8"/>
<feGaussianBlur stdDeviation="20"/>
<feColorMatrix type="matrix" values="0 0 0 0 0.192157 0 0 0 0 0.12549 0 0 0 0 0.541176 0 0 0 0.05 0"/>
<feBlend mode="normal" in2="BackgroundImageFix" result="effect1_dropShadow_228_1563"/>
<feBlend mode="normal" in="SourceGraphic" in2="effect1_dropShadow_228_1563" result="shape"/>
</filter>
</defs>
</svg>
