<svg width="301" height="24" viewBox="0 0 301 24" fill="none" xmlns="http://www.w3.org/2000/svg">
<path d="M150 5C150.494 5 150.978 5.14662 151.389 5.42133C151.8 5.69603 152.12 6.08648 152.31 6.54329C152.499 7.00011 152.548 7.50277 152.452 7.98773C152.356 8.47268 152.117 8.91814 151.768 9.26777C151.418 9.6174 150.973 9.8555 150.488 9.95196C150.003 10.0484 149.5 9.99892 149.043 9.8097C148.586 9.62048 148.196 9.30005 147.921 8.88893C147.647 8.4778 147.5 7.99445 147.5 7.5C147.5 6.83696 147.763 6.20107 148.232 5.73223C148.701 5.26339 149.337 5 150 5ZM150 4C149.308 4 148.631 4.20527 148.056 4.58986C147.48 4.97444 147.031 5.52107 146.766 6.16061C146.502 6.80015 146.432 7.50388 146.567 8.18282C146.702 8.86175 147.036 9.48539 147.525 9.97487C148.015 10.4644 148.638 10.7977 149.317 10.9327C149.996 11.0678 150.7 10.9985 151.339 10.7336C151.979 10.4687 152.526 10.0201 152.91 9.4445C153.295 8.86892 153.5 8.19223 153.5 7.5C153.5 6.57174 153.131 5.6815 152.475 5.02513C151.818 4.36875 150.928 4 150 4Z" fill="white"/>
<path d="M155 18H154V15.5C154 15.1717 153.935 14.8466 153.81 14.5433C153.684 14.24 153.5 13.9644 153.268 13.7322C153.036 13.5001 152.76 13.3159 152.457 13.1903C152.153 13.0647 151.828 13 151.5 13H148.5C147.837 13 147.201 13.2634 146.732 13.7322C146.263 14.2011 146 14.837 146 15.5V18H145V15.5C145 14.5717 145.369 13.6815 146.025 13.0251C146.682 12.3687 147.572 12 148.5 12H151.5C152.428 12 153.318 12.3687 153.975 13.0251C154.631 13.6815 155 14.5717 155 15.5V18Z" fill="white"/>
<path d="M248.441 7.07329C247.733 6.3653 246.795 5.93484 245.796 5.86021C244.798 5.78558 243.806 6.07173 243.001 6.66662C242.153 6.03572 241.097 5.74963 240.046 5.86598C238.995 5.98233 238.028 6.49248 237.338 7.29368C236.649 8.09488 236.288 9.12764 236.329 10.184C236.371 11.2403 236.811 12.2417 237.561 12.9866L242.528 17.9533C242.589 18.0158 242.663 18.0654 242.744 18.0992C242.826 18.1331 242.913 18.1505 243.001 18.1505C243.089 18.1505 243.176 18.1331 243.257 18.0992C243.338 18.0654 243.412 18.0158 243.474 17.9533L248.441 12.9866C248.829 12.5984 249.137 12.1375 249.348 11.6302C249.558 11.1229 249.666 10.5791 249.666 10.03C249.666 9.4808 249.558 8.93703 249.348 8.42971C249.137 7.92239 248.829 7.46147 248.441 7.07329ZM247.501 12.0466L243.001 16.54L238.501 12.0466C238.104 11.6484 237.834 11.142 237.724 10.5909C237.614 10.0397 237.67 9.46841 237.883 8.94862C238.097 8.42883 238.459 7.98369 238.925 7.66904C239.391 7.35439 239.939 7.18425 240.501 7.17996C241.252 7.1818 241.971 7.48151 242.501 8.01329C242.563 8.07578 242.637 8.12537 242.718 8.15922C242.799 8.19306 242.886 8.21049 242.974 8.21049C243.062 8.21049 243.149 8.19306 243.231 8.15922C243.312 8.12537 243.386 8.07578 243.448 8.01329C243.993 7.54055 244.698 7.29272 245.419 7.31997C246.141 7.34723 246.825 7.64752 247.333 8.16008C247.841 8.67264 248.136 9.35918 248.157 10.0807C248.178 10.8023 247.925 11.505 247.448 12.0466H247.501Z" fill="white"/>
<path d="M279.5 4.25C279.5 4.05109 279.579 3.86032 279.72 3.71967C279.86 3.57902 280.051 3.5 280.25 3.5H280.808C281.758 3.5 282.328 4.139 282.653 4.733C282.87 5.129 283.027 5.588 283.15 6.004C283.183 6.00137 283.217 6.00004 283.25 6H295.748C296.578 6 297.178 6.794 296.95 7.593L295.122 14.002C294.958 14.5769 294.611 15.0827 294.134 15.4428C293.657 15.803 293.076 15.9979 292.478 15.998H286.53C285.927 15.998 285.342 15.8002 284.863 15.4349C284.383 15.0696 284.037 14.557 283.878 13.976L283.118 11.204L281.858 6.956L281.857 6.948C281.701 6.381 281.555 5.85 281.337 5.454C281.128 5.069 280.96 5 280.809 5H280.25C280.051 5 279.86 4.92098 279.72 4.78033C279.579 4.63968 279.5 4.44891 279.5 4.25ZM284.573 10.84L285.324 13.579C285.474 14.121 285.967 14.498 286.53 14.498H292.478C292.75 14.498 293.014 14.4095 293.231 14.2458C293.448 14.0821 293.605 13.8523 293.68 13.591L295.417 7.5H283.585L284.559 10.787L284.573 10.84Z" fill="white"/>
<path d="M288 19C288 19.5304 287.789 20.0391 287.414 20.4142C287.039 20.7893 286.53 21 286 21C285.47 21 284.961 20.7893 284.586 20.4142C284.211 20.0391 284 19.5304 284 19C284 18.4696 284.211 17.9609 284.586 17.5858C284.961 17.2107 285.47 17 286 17C286.53 17 287.039 17.2107 287.414 17.5858C287.789 17.9609 288 18.4696 288 19ZM286.5 19C286.5 18.8674 286.447 18.7402 286.354 18.6464C286.26 18.5527 286.133 18.5 286 18.5C285.867 18.5 285.74 18.5527 285.646 18.6464C285.553 18.7402 285.5 18.8674 285.5 19C285.5 19.1326 285.553 19.2598 285.646 19.3536C285.74 19.4473 285.867 19.5 286 19.5C286.133 19.5 286.26 19.4473 286.354 19.3536C286.447 19.2598 286.5 19.1326 286.5 19Z" fill="white"/>
<path d="M295 19C295 19.5304 294.789 20.0391 294.414 20.4142C294.039 20.7893 293.53 21 293 21C292.47 21 291.961 20.7893 291.586 20.4142C291.211 20.0391 291 19.5304 291 19C291 18.4696 291.211 17.9609 291.586 17.5858C291.961 17.2107 292.47 17 293 17C293.53 17 294.039 17.2107 294.414 17.5858C294.789 17.9609 295 18.4696 295 19ZM293.5 19C293.5 18.8674 293.447 18.7402 293.354 18.6464C293.26 18.5527 293.133 18.5 293 18.5C292.867 18.5 292.74 18.5527 292.646 18.6464C292.553 18.7402 292.5 18.8674 292.5 19C292.5 19.1326 292.553 19.2598 292.646 19.3536C292.74 19.4473 292.867 19.5 293 19.5C293.133 19.5 293.26 19.4473 293.354 19.3536C293.447 19.2598 293.5 19.1326 293.5 19Z" fill="white"/>
</svg>
