<svg width="47" height="47" viewBox="0 0 47 47" fill="none" xmlns="http://www.w3.org/2000/svg">
<path d="M23.5 0C10.5195 0 0 10.5195 0 23.5C0 30.5037 3.0624 36.7951 7.92894 41.1065C12.0831 44.7703 17.5325 47 23.5 47C29.4768 47 34.9262 44.7703 39.0711 41.0972C43.9376 36.7951 47 30.5037 47 23.5C47 10.5195 36.4805 0 23.5 0Z" fill="#CBD5FC"/>
<path d="M37.2302 39.1913C36.0274 38.2938 33.8439 36.8043 31.4662 35.7033C29.0884 34.6116 27.6914 32.0488 28.0707 29.4675C28.0707 29.4305 28.08 29.3934 28.0892 29.3472C28.0892 29.3472 33.5016 25.6834 32.7522 22.1121C32.7522 22.1121 32.9187 22.1214 33.1685 22.1029C35.5556 21.8808 35.7036 18.3281 33.3443 17.9488C33.3258 17.9488 33.2981 17.9395 33.2796 17.9395L33.2056 17.5509C33.9272 15.0251 35.6851 7.37376 30.3652 8.11392C30.3652 8.11392 26.5441 1.79482 18.4672 4.83872C10.3809 7.87337 12.4904 15.1177 12.4904 15.1177L13.4896 18.0043C11.3154 18.5409 11.5189 21.8994 13.8319 22.1121C14.0817 22.1307 14.2575 22.1214 14.2575 22.1214C13.4989 25.6927 18.9113 29.3564 18.9113 29.3564C18.9205 29.4027 18.9205 29.4397 18.9298 29.4767C19.2998 32.058 17.9028 34.6208 15.5343 35.7125C13.1473 36.8135 10.9731 38.3123 9.77032 39.2005C9.04866 39.7279 8.41028 40.3663 7.91992 41.1157C12.0833 44.7702 17.5327 46.9999 23.5002 46.9999C29.477 46.9999 34.9264 44.7702 39.0713 41.0972C38.5902 40.357 37.9518 39.7186 37.2302 39.1913Z" fill="#819FDE"/>
</svg>
