<svg width="39" height="17" viewBox="0 0 39 17" fill="none" xmlns="http://www.w3.org/2000/svg">
<path d="M20.4237 16.3694C19.401 16.3694 18.4898 16.1439 17.6857 15.6906C16.8802 15.2374 16.1982 14.6445 15.6375 13.9098C15.0762 13.1752 14.644 12.3438 14.3454 11.4116C14.0449 10.4814 13.8956 9.54272 13.8956 8.59755C13.8956 7.61587 14.0374 6.63848 14.3169 5.66968C14.597 4.70088 15.0083 3.82661 15.5503 3.04685C16.094 2.26924 16.7728 1.63984 17.5919 1.16081C18.4075 0.683928 19.3505 0.441198 20.4237 0.441198C21.4954 0.441198 22.4361 0.686061 23.2448 1.17153C24.0547 1.65701 24.7369 2.28856 25.2847 3.06618C25.8352 3.84379 26.249 4.71806 26.5291 5.68901C26.8094 6.65995 26.9503 7.62875 26.9503 8.59755C26.9503 9.54272 26.8045 10.4814 26.5115 11.4116C26.2161 12.3438 25.7873 13.1752 25.2277 13.9098C24.6656 14.6445 23.9799 15.2374 23.1703 15.6906C22.3587 16.1439 21.4449 16.3694 20.4237 16.3694ZM20.4237 3.12203C19.7963 3.12203 19.2668 3.31107 18.8337 3.68913C18.4 4.06505 18.0458 4.53119 17.7715 5.08755C17.4969 5.63962 17.2991 6.23893 17.1773 6.87477C17.0566 7.51275 16.996 8.08845 16.996 8.59755C16.996 9.13458 17.0615 9.69953 17.1891 10.2924C17.315 10.8853 17.5154 11.4395 17.7899 11.9486C18.0651 12.4577 18.42 12.8787 18.8539 13.2138C19.2876 13.5446 19.8113 13.7079 20.4237 13.7079C21.0346 13.7079 21.5584 13.5446 21.9929 13.2138C22.426 12.8787 22.7817 12.462 23.0552 11.9593C23.3288 11.4545 23.5292 10.9025 23.6568 10.301C23.7844 9.70166 23.8491 9.13458 23.8491 8.59755C23.8491 8.06052 23.7945 7.47622 23.6871 6.83609C23.5789 6.1981 23.39 5.60739 23.1215 5.05748C22.8539 4.50756 22.499 4.05 22.0576 3.67838C21.6187 3.30676 21.0742 3.12203 20.4237 3.12203ZM36.3214 16.0837H35.5453V12.7735H28.4808V10.6662L35.927 0.78919H38.4738V9.0916C37.1783 9.97447 36.3214 11.4653 36.3214 13.1494V16.0837ZM35.5453 5.13265L31.6594 10.2043L35.5453 10.2258V5.13265ZM10.0106 16.0837H7.08205V12.7735H0.0175781V10.6662L7.46377 0.78919H10.0106V10.2258H12.1729V12.7735H10.0106V16.0837ZM7.08205 5.13265L3.19527 10.2043L7.08205 10.2258V5.13265Z" fill="#E3E3E3"/>
</svg>
