<svg width="109" height="24" viewBox="0 0 109 24" fill="none" xmlns="http://www.w3.org/2000/svg">
<path d="M96.9237 23.2129H12.1873C5.99649 23.2129 0.978516 18.1925 0.978516 11.9998C0.978516 5.81323 5.99649 0.796976 12.1873 0.796976H28.6096H79.466H96.9237C103.115 0.796976 108.132 5.8156 108.132 12.0067C108.132 18.1949 103.115 23.2129 96.9237 23.2129V23.2129ZM5.70004 11.9998C5.70004 15.5787 8.61288 18.4937 12.1873 18.4937H96.9237C100.502 18.4937 103.411 15.5787 103.411 12.0067C103.411 8.42791 100.502 5.51873 96.9237 5.51873H12.1873C8.61288 5.51873 5.70004 8.42533 5.70004 11.9998" fill="#B8C6E3"/>
</svg>
