<svg width="23" height="36" viewBox="0 0 23 36" fill="none" xmlns="http://www.w3.org/2000/svg">
<path d="M22.3062 16.436C22.9442 17.1169 22.9056 18.1888 22.2225 18.8225C21.896 19.1275 21.4835 19.2757 21.0711 19.2757C20.62 19.2757 20.1667 19.0953 19.8338 18.7387L16.1369 14.6101V19.4433L16.6288 33.4167C16.6675 34.5058 15.8147 35.4188 14.7277 35.4596H14.6568C13.6 35.4596 12.7278 34.6218 12.6892 33.5585L12.3197 23.0822H10.7817L9.40044 33.7411C9.2694 34.7357 8.42305 35.4596 7.44566 35.4596L7.19003 35.4424C6.11168 35.3028 5.34912 34.3125 5.49089 33.232L7.44566 18.3628L7.49507 12.3181L3.17093 10.3418C2.6962 10.127 2.34392 9.7081 2.21288 9.2033L0.455719 2.38736C0.217279 1.46153 0.771495 0.520651 1.69518 0.28436C2.61672 0.0437719 3.56189 0.600136 3.79818 1.52382L5.35126 7.54282L8.86771 9.1453H15.0091L15.2777 9.17965C15.6171 9.24409 15.9393 9.40951 16.1927 9.68232L22.3062 16.436" fill="#81B0FF"/>
</svg>
