<svg width="6" height="23" viewBox="0 0 6 23" fill="none" xmlns="http://www.w3.org/2000/svg">
<path d="M0.830028 22.4841H0.507812L0.840976 20.8344L0.879431 20.6432L1.02894 19.9081L1.06652 19.7193L1.53224 17.4144L1.5709 17.2256L1.7202 16.4862L1.758 16.2974L1.80913 16.0441L2.22371 13.9925L2.26238 13.8036L2.41081 13.0668L2.44949 12.8757L2.91519 10.5731L2.95385 10.3817L3.1023 9.64663L3.14096 9.45544L3.60666 7.15031L3.64425 6.9615L3.79377 6.22491L3.83221 6.03609L4.29642 3.73783L4.29706 3.73096L4.33573 3.54385L4.48502 2.80556L4.52283 2.61588L4.85686 0.964197H5.49871H5.1765L0.830028 22.4841Z" fill="#D9C0A5"/>
</svg>
