<svg width="80" height="34" viewBox="0 0 80 34" fill="none" xmlns="http://www.w3.org/2000/svg">
<path d="M79.6866 33.2642H79.5532L79.309 33.093L79.2469 33.0562C78.9591 32.9168 78.5335 32.6676 78.0193 32.3169C74.5713 29.9456 66.8315 22.2207 65.2331 0.112865C66.8315 22.2207 74.5713 29.9456 78.0193 32.3169C78.5335 32.6676 78.9591 32.9168 79.2469 33.0562L79.309 33.093C79.518 33.198 79.6497 33.2517 79.6866 33.2642V33.2642ZM79.5515 33.2642H0.0253906C0.314955 33.155 6.17692 30.7964 10.4169 19.9511H24.4979C28.9896 19.9511 32.644 16.2993 32.644 11.8076V9.37336L79.5515 33.2642ZM24.4979 18.6983H10.8851C12.5431 14.0605 13.8934 8.00307 14.4613 0.112865L31.3903 8.73559V11.8076C31.3903 15.6095 28.2998 18.6983 24.4979 18.6983" fill="#F1F2F7"/>
</svg>
