<svg width="15" height="21" viewBox="0 0 15 21" fill="none" xmlns="http://www.w3.org/2000/svg">
<path d="M13.2448 20.5361C12.7338 20.5361 12.2522 20.2264 12.0582 19.7196L10.1477 14.7279L10.062 14.2789L10.0536 11.2774H9.20121L8.02728 13.8534V19.2666C8.02728 19.9688 7.46254 20.5335 6.75925 20.5335C6.05961 20.5335 5.49143 19.9688 5.49143 19.2666V13.5782L5.60464 13.0547L6.48407 11.1231V6.07336L6.02181 7.17082C5.89077 7.48208 5.60721 7.70377 5.27318 7.75232L1.79025 8.27259L1.64589 8.28355C1.17417 8.28355 0.761521 7.9377 0.692566 7.45867C0.612872 6.93002 0.977838 6.44004 1.50412 6.3612L4.45089 5.91805L6.46645 1.13272C6.62348 0.762599 6.97921 0.541989 7.35341 0.541989C7.36179 0.541989 7.37016 0.541988 7.3794 0.543706C8.10954 0.543706 11.4542 0.520067 11.4542 0.520067C12.0726 0.520067 12.5785 1.02273 12.5785 1.64375L12.5995 14.0355L14.428 18.811C14.6772 19.4687 14.3524 20.2012 13.697 20.4504L13.2448 20.5361" fill="#BABCBB"/>
</svg>
