<svg width="11" height="19" viewBox="0 0 11 19" fill="none" xmlns="http://www.w3.org/2000/svg">
<path d="M6.25099 18.7036C5.83815 18.7036 5.49915 18.3681 5.49915 17.9518V12.6479L5.26587 12.4372L5.03261 12.6479V17.9518C5.03261 18.3681 4.6978 18.7036 4.28245 18.7036C3.86793 18.7036 3.53061 18.3681 3.53061 17.9518C3.53061 17.9518 3.53061 7.68791 3.53061 7.25614C3.53061 6.82652 3.36782 6.57519 3.36782 6.57519L0.575286 1.76559L0.480469 1.409C0.480469 1.0116 0.800172 0.691538 1.19875 0.691538C1.46978 0.691538 1.70893 0.841905 1.8289 1.06746L4.07098 5.00493L4.30176 5.04359C4.4469 4.93833 4.7364 4.80086 5.26168 4.79012L5.26587 4.79227L5.27176 4.79012C5.79871 4.80086 6.08653 4.93833 6.23252 5.04359L6.46161 5.00493L8.70116 1.06746C8.82446 0.841905 9.06119 0.691538 9.33378 0.691538C9.73161 0.691538 10.0512 1.0116 10.0512 1.409L9.95566 1.76559L7.16561 6.57519C7.16561 6.57519 7.00534 6.82652 7.00534 7.25614C7.00534 7.68791 7.00199 17.9518 7.00199 17.9518C7.00199 18.3681 6.66635 18.7036 6.25099 18.7036Z" fill="#BABCBB"/>
</svg>
