<svg width="78" height="54" viewBox="0 0 78 54" fill="none" xmlns="http://www.w3.org/2000/svg">
<path d="M77.0355 53.2139H13.7923C13.7931 49.8371 13.794 46.6643 13.794 46.3872C13.794 45.775 14.0213 45.4206 14.0213 45.4206L16.0746 41.8827H27.4948C28.1098 41.8827 28.6084 41.3822 28.6084 40.7657V37.4167C28.6084 36.8002 28.1098 36.304 27.4948 36.304H14.6977V34.8154H27.4948C28.1098 34.8154 28.6084 34.3171 28.6084 33.7048V32.3365C28.6084 31.72 28.1098 31.2216 27.4948 31.2216H14.6977V29.98H8.355V31.2216H6.4217C5.80648 31.2216 5.30813 31.72 5.30813 32.3365V33.7048C5.30813 34.3171 5.80648 34.8154 6.4217 34.8154H8.355V36.304H6.4217C5.93494 36.304 5.52035 36.6155 5.36848 37.0516C4.87936 37.1268 4.50603 37.5499 4.50603 38.0633L4.64028 38.5703L5.30813 39.7195V40.7657C5.30813 41.3822 5.80648 41.8827 6.4217 41.8827H6.56177L8.61492 45.4206C8.61492 45.4206 8.84734 45.775 8.84734 46.3872C8.84734 46.6643 8.84734 49.8371 8.84734 53.2139H3.92453C1.96674 53.2139 0.375 51.62 0.375 49.6653V3.84402C0.375 1.88494 1.96674 0.29319 3.92453 0.29319H63.7516H77.0355V1.9365C76.9039 1.88279 76.7595 1.85272 76.6076 1.85272C75.9918 1.85272 75.4932 2.35109 75.4932 2.9633C75.4932 3.5798 75.9918 4.0803 76.6076 4.0803C76.7595 4.0803 76.9039 4.05022 77.0355 3.99437V5.56465H0.375V6.30789H77.0355V9.77923H32.9096V41.8827H77.0355V45.3089H41.6429V47.457H77.0355V49.2528H41.6429V51.4009H77.0355V53.2139ZM30.2631 9.77923V49.4805H30.7976V9.77923H30.2631ZM15.6803 28.1155C15.1987 28.1155 14.8068 28.457 14.8068 28.8738C14.8068 29.2905 15.1987 29.6299 15.6803 29.6299H27.7356C28.2157 29.6299 28.6084 29.2905 28.6084 28.8738C28.6084 28.457 28.2157 28.1155 27.7356 28.1155H15.6803ZM15.6803 24.4444C15.1987 24.4444 14.8068 24.788 14.8068 25.2048C14.8068 25.6194 15.1987 25.9609 15.6803 25.9609H27.7356C28.2157 25.9609 28.6084 25.6194 28.6084 25.2048C28.6084 24.788 28.2157 24.4444 27.7356 24.4444H15.6803ZM11.7524 19.4479C11.1366 19.4479 10.6374 19.9484 10.6374 20.5627V21.9289C10.6374 22.5454 11.1366 23.0438 11.7524 23.0438H27.4948C28.1098 23.0438 28.6084 22.5454 28.6084 21.9289V20.5627C28.6084 19.9484 28.1098 19.4479 27.4948 19.4479H11.7524ZM6.4217 14.6146C5.80648 14.6146 5.30813 15.1151 5.30813 15.7273V17.0935C5.30813 17.71 5.80648 18.2084 6.4217 18.2084H27.4948C28.1098 18.2084 28.6084 17.71 28.6084 17.0935V15.7273C28.6084 15.1151 28.1098 14.6146 27.4948 14.6146H6.4217ZM6.4217 9.77923C5.80648 9.77923 5.30813 10.2797 5.30813 10.8941V12.2603C5.30813 12.8768 5.80648 13.3752 6.4217 13.3752H27.4948C28.1098 13.3752 28.6084 12.8768 28.6084 12.2603V10.8941C28.6084 10.2797 28.1098 9.77923 27.4948 9.77923H6.4217ZM72.2349 1.85272C71.6191 1.85272 71.1207 2.35109 71.1207 2.9633C71.1207 3.5798 71.6191 4.0803 72.2349 4.0803C72.8502 4.0803 73.3485 3.5798 73.3485 2.9633C73.3485 2.35109 72.8502 1.85272 72.2349 1.85272ZM12.8744 43.3455C12.8332 43.3455 12.7786 43.3133 12.694 43.2403C12.4867 43.0856 12.0764 42.888 11.3237 42.8751L11.3185 42.8794L11.3127 42.8751C10.5643 42.888 10.154 43.0856 9.94245 43.2403C9.85867 43.3133 9.80562 43.3455 9.76459 43.3455C9.70594 43.3455 9.67393 43.2789 9.61701 43.178L8.87763 41.8827H10.0842C10.4324 42.134 10.8588 42.2865 11.3185 42.2973C11.7802 42.2865 12.2055 42.134 12.5528 41.8827H13.7611L13.0237 43.178C12.9666 43.2789 12.9339 43.3455 12.8744 43.3455Z" fill="#FEFFFF"/>
</svg>
