<svg width="13" height="13" viewBox="0 0 13 13" fill="none" xmlns="http://www.w3.org/2000/svg">
<path d="M8.1146 8.14271C7.00403 9.15877 5.28126 9.08143 4.25876 7.97086C3.247 6.86243 3.32435 5.13322 4.43492 4.11502C5.54549 3.10111 7.27255 3.17845 8.28431 4.28687C9.30681 5.40174 9.22947 7.12666 8.1146 8.14271ZM9.65693 3.03666C9.39271 2.74882 9.31541 2.69082 9.31541 2.69082C9.02542 2.48031 8.87719 2.02492 8.98674 1.68122L9.1199 1.2516C9.22945 0.91005 9.03613 0.538411 8.69243 0.428858L7.75588 0.134569C7.41648 0.0250149 7.04485 0.216192 6.93529 0.55989L6.81714 0.944409C6.70543 1.28596 6.32308 1.58454 5.96219 1.60817L4.74853 1.8638C4.40913 1.98625 3.93436 1.87026 3.68948 1.60389L3.44032 1.32893C3.19758 1.06471 2.78299 1.04752 2.51662 1.2924L1.79274 1.95188C1.52637 2.19462 1.5049 2.60919 1.74764 2.8777L2.0011 3.15052C2.24169 3.41473 2.31687 3.90236 2.16651 4.22672L1.79919 5.41678C1.74119 5.77122 1.41034 6.12778 1.0602 6.20297L0.669282 6.2932C0.316993 6.36838 0.0957234 6.71852 0.170907 7.07081L0.383568 8.02886C0.460899 8.38115 0.808918 8.60242 1.16121 8.52508L1.60153 8.43055C1.95167 8.35322 2.39204 8.54227 2.57893 8.8473C2.57893 8.8473 2.63262 8.93107 2.89469 9.22107C3.20402 9.55832 3.39092 9.69149 3.39092 9.69149C3.68736 9.89556 3.83989 10.3467 3.73033 10.6882L3.57783 11.1672C3.46827 11.5109 3.6616 11.8804 4.00315 11.99L4.94184 12.2864C5.28554 12.396 5.65503 12.2026 5.76028 11.8632L5.92999 11.3326C6.0374 10.9868 6.41975 10.6796 6.77633 10.6431L7.80744 10.4025C8.14469 10.2758 8.6194 10.3896 8.86429 10.6581L9.25741 11.0856C9.498 11.3541 9.91689 11.3735 10.1833 11.1329L10.9071 10.467C11.1735 10.2242 11.1907 9.80965 10.9501 9.54328L10.5527 9.10936C10.31 8.84514 10.2391 8.36397 10.3938 8.03746L10.7245 7.03858C10.7911 6.67985 11.1348 6.32758 11.4871 6.25025L12.0306 6.13209C12.3829 6.05691 12.6042 5.70247 12.529 5.35018L12.3142 4.39428C12.239 4.04199 11.8867 3.81857 11.5365 3.8959L11.0403 4.00331C10.6881 4.08064 10.2584 3.88731 10.078 3.57369C10.078 3.57369 9.9684 3.37606 9.65693 3.03666Z" fill="#6CDD6C"/>
</svg>
