<svg width="92" height="86" viewBox="0 0 92 86" fill="none" xmlns="http://www.w3.org/2000/svg">
<path d="M91.3285 85.0436H25.7769L26.8819 79.57H27.757L27.742 80.5586H28.7213L28.7312 79.544H90.0362V80.5687C90.0362 82.2124 90.5112 83.7463 91.3285 85.0436ZM54.647 81.4756C54.2627 81.6618 53.9942 82.0571 53.9942 82.5127C53.9942 83.1505 54.5085 83.6707 55.1387 83.6707C55.7681 83.6707 56.2815 83.1505 56.2815 82.5127C56.2815 82.0571 56.0147 81.6618 55.6296 81.4756V81.546V81.5957V81.6661C55.9209 81.8322 56.1163 82.152 56.1163 82.5127C56.1163 83.0581 55.6783 83.5012 55.1387 83.5012C54.5991 83.5012 54.1594 83.0581 54.1594 82.5127C54.1594 82.152 54.3583 81.8322 54.647 81.6661V81.5957V81.546V81.4756ZM34.8449 81.7441C34.3088 81.7441 34.0327 82.1544 34.0327 82.5556C34.0327 82.7662 34.1032 82.9683 34.2357 83.1144C34.3844 83.2821 34.5949 83.3704 34.8449 83.3704H35.8141V83.1118H34.8449C34.4632 83.1118 34.2903 82.8265 34.2903 82.5597C34.2903 82.2938 34.4632 82.0034 34.8449 82.0034H35.3568V82.2485L36.0056 81.8726L35.3568 81.5007V81.7441H34.8449ZM74.7234 82.8525V82.996V83.0581V83.0884H76.812V83.0581V82.996V82.8525H74.7234ZM74.7234 82.3155V82.459V82.5211V82.5513H76.812V82.5211V82.459V82.3155H74.7234ZM55.0221 81.2047V82.079V82.1217V82.2098H55.2528V82.1217V82.079V81.2047H55.0221ZM74.7234 81.7828V81.9245V81.9892V82.0186H76.812V81.9892V81.9245V81.7828H74.7234ZM24.8109 85.0436H17.1282L17.5428 82.9919H25.2255L24.8109 85.0436ZM16.1633 85.0436H5.21201L10.4044 79.544H17.2734L16.1633 85.0436ZM25.4513 81.8751H17.7675L18.2332 79.5726H18.9835L18.9616 80.5586H19.9358L19.9586 79.5726H25.917L25.4513 81.8751ZM0.324219 80.139V75.1127V59.047V52.1945V43.9802V42.7386V35.261V33.607V27.7663V8.08317V5.14885C0.324219 3.46473 1.1811 1.97395 2.47663 1.09107C3.25854 0.558342 4.2009 0.244728 5.21201 0.244728H8.03398H8.86207H26.2048H37.7893H44.7692H69.1424H76.6207H90.0362V5.74173H80.1064L85.2971 0.244728H5.21201C2.52688 0.244728 0.324219 2.44868 0.324219 5.14885V80.139Z" fill="#B0B1B1"/>
</svg>
