<svg width="22" height="31" viewBox="0 0 22 31" fill="none" xmlns="http://www.w3.org/2000/svg">
<path d="M20.1721 9.28762L15.7899 8.63244L12.7933 1.51149C12.5549 0.950833 12.0072 0.62001 11.4358 0.637195C10.3488 0.637195 5.37807 0.602818 5.37807 0.602818C4.45654 0.602818 3.70469 1.35036 3.70469 2.2719L3.67249 20.7027L0.953008 27.8043C0.581385 28.7795 1.06682 29.8686 2.04206 30.2403C2.26546 30.324 2.48889 30.3691 2.71229 30.3691C3.47272 30.3691 4.18804 29.9051 4.47803 29.1533L7.31997 21.7316C7.4016 21.5168 7.44458 21.2891 7.44673 21.0614L7.45963 16.5998H8.72484L10.4712 20.432V28.4831C10.4712 29.5228 11.3111 30.367 12.3573 30.367C13.3991 30.367 14.2433 29.5228 14.2433 28.4831V20.0196C14.2433 19.751 14.1853 19.4868 14.0758 19.2419L12.7654 16.3721V8.86015L13.4571 10.4927C13.6483 10.9567 14.0715 11.2832 14.5677 11.3584L19.7468 12.1296L19.9616 12.1467C20.6619 12.1467 21.2762 11.6312 21.3793 10.9202C21.4975 10.134 20.9562 9.40577 20.1721 9.28762" fill="#81B0FF"/>
</svg>
