<svg width="148" height="121" viewBox="0 0 148 121" fill="none" xmlns="http://www.w3.org/2000/svg">
<path d="M108.792 120.08L99.4819 109.789H124.462C126.256 109.789 127.712 108.332 127.712 106.537V96.7605C127.712 94.9626 126.256 93.5062 124.462 93.5062H84.7524L80.8278 89.167H124.462C126.256 89.167 127.712 87.7127 127.712 85.9169V81.9279C127.712 80.1321 126.256 78.6735 124.462 78.6735H71.3332L67.1315 74.0271H97.4348C98.8418 74.0271 99.9868 73.0326 99.9868 71.8189C99.9868 70.603 98.8418 69.6063 97.4348 69.6063H63.1338L54.8679 60.4704V16.082H53.3063V58.7434L47.139 51.9274V16.082H14.7155L0.269531 0.115105H144.236C146.04 0.115105 147.544 1.61877 147.544 3.4017V115.64H117.964C114.222 115.64 110.895 117.382 108.792 120.08ZM62.2467 58.8959C60.8418 58.8959 59.6969 59.8904 59.6969 61.1063C59.6969 62.3242 60.8418 63.3188 62.2467 63.3188H97.4348C98.8418 63.3188 99.9868 62.3242 99.9868 61.1063C99.9868 59.8904 98.8418 58.8959 97.4348 58.8959H62.2467ZM62.947 44.3059C61.1512 44.3059 59.6969 45.7602 59.6969 47.556V51.5429C59.6969 53.3387 61.1512 54.7951 62.947 54.7951H108.901C110.699 54.7951 112.156 53.3387 112.156 51.5429V47.556C112.156 45.7602 110.699 44.3059 108.901 44.3059H62.947ZM62.947 30.1929C61.1512 30.1929 59.6969 31.6514 59.6969 33.4473V37.4342C59.6969 39.23 61.1512 40.6864 62.947 40.6864H124.462C126.256 40.6864 127.712 39.23 127.712 37.4342V33.4473C127.712 31.6514 126.256 30.1929 124.462 30.1929H62.947ZM62.947 16.082C61.1512 16.082 59.6969 17.5405 59.6969 19.3364V23.3232C59.6969 25.119 61.1512 26.5755 62.947 26.5755H124.462C126.256 26.5755 127.712 25.119 127.712 23.3232V19.3364C127.712 17.5405 126.256 16.082 124.462 16.082H62.947Z" fill="#E6E8E7"/>
</svg>
