<svg width="94" height="64" viewBox="0 0 94 64" fill="none" xmlns="http://www.w3.org/2000/svg">
<path d="M10.5297 63.0637H0.857422V55.5881H10.5297C10.847 55.5881 11.1045 55.8457 11.1045 56.1638V56.5204H11.6819C12.3128 56.5204 12.8314 57.0406 12.8314 57.6741V58.6988H24.8853H38.498C42.3 58.6988 45.3905 55.61 45.3905 51.8081V48.7361V40.1133V24.0477V17.1952V11.5178C45.3905 7.02823 49.0446 3.3743 53.5365 3.3743H84.0102V2.3475C84.0102 2.31957 84.0119 2.29164 84.0134 2.26372C84.0572 1.66869 84.5564 1.19827 85.1596 1.19827H85.737V0.837372C85.737 0.519452 85.9946 0.261694 86.3119 0.261694H93.3233V7.73924H86.3119C85.9946 7.73924 85.737 7.48148 85.737 7.16571V6.80697H85.1596C84.5287 6.80697 84.0102 6.28713 84.0102 5.65559V5.32047V4.62663H53.5365C52.4581 4.62663 51.4369 4.87581 50.5274 5.32047C50.4593 5.35269 50.3923 5.38708 50.3251 5.42145C48.1385 6.57928 46.6441 8.87775 46.6441 11.5178V17.1952V24.0477V40.1133V49.3738V51.8081C46.6441 56.2998 42.9897 59.9515 38.498 59.9515H24.417H12.8314V60.9803C12.8314 61.6138 12.3128 62.1314 11.6819 62.1314H11.1045V62.4897C11.1045 62.8062 10.847 63.0637 10.5297 63.0637" fill="#C2C3C2"/>
</svg>
