<svg width="12" height="12" viewBox="0 0 12 12" fill="none" xmlns="http://www.w3.org/2000/svg">
<path d="M4.75797 6.09859C4.75797 6.63347 4.32405 7.07169 3.78487 7.07169C3.24999 7.07169 2.81392 6.63347 2.81392 6.09859C2.81392 5.56371 3.24999 5.12549 3.78487 5.12549C4.32405 5.12549 4.75797 5.56371 4.75797 6.09859ZM6.17139 4.68297C5.63221 4.68297 5.20049 4.24907 5.20049 3.7099C5.20049 3.17502 5.63221 2.73895 6.17139 2.73895C6.70842 2.73895 7.14664 3.17502 7.14664 3.7099C7.14664 4.24907 6.70842 4.68297 6.17139 4.68297ZM6.17139 7.51634C6.70842 7.51634 7.14664 7.95026 7.14664 8.48944C7.14664 9.02431 6.70842 9.46038 6.17139 9.46038C5.63221 9.46038 5.20049 9.02431 5.20049 8.48944C5.20049 7.95026 5.63221 7.51634 6.17139 7.51634ZM5.83202 5.87088C5.95447 5.65822 6.22299 5.58948 6.4292 5.71192C6.64187 5.83007 6.7149 6.10074 6.58816 6.3091C6.46787 6.52391 6.20149 6.5905 5.98883 6.46806C5.78047 6.34777 5.71173 6.07925 5.83202 5.87088ZM8.56441 7.07169C8.02523 7.07169 7.59131 6.63347 7.59131 6.09859C7.59131 5.56371 8.02523 5.12549 8.56441 5.12549C9.09929 5.12549 9.53536 5.56371 9.53536 6.09859C9.53536 6.63347 9.09929 7.07169 8.56441 7.07169ZM11.1894 6.3091L11.1958 6.08999L11.1894 5.87088C11.4923 5.81503 11.6813 5.6883 11.6813 5.6883L11.6663 5.51431V5.51216L11.6427 5.33815C11.6427 5.33815 11.4343 5.25009 11.1292 5.26298L11.0412 4.83335C11.3226 4.72165 11.4816 4.55839 11.4816 4.55839L11.43 4.39083V4.38656L11.4236 4.38441L11.3677 4.22115C11.3677 4.22115 11.1464 4.17602 10.8478 4.25765L10.6696 3.85381C10.9273 3.68411 11.0433 3.48864 11.0433 3.48864L10.9595 3.33828V3.33183H10.9574L10.8672 3.18575C10.8672 3.18575 10.6416 3.1922 10.3645 3.32968L10.1067 2.97094C10.3258 2.75398 10.3946 2.53702 10.3946 2.53702L10.2829 2.40598V2.40383H10.2764L10.1647 2.27495C10.1647 2.27495 9.94135 2.32651 9.69862 2.51769L9.3721 2.22555C9.5375 1.96563 9.56541 1.74223 9.56541 1.74223L9.4301 1.63912V1.63482L9.4215 1.63052L9.28405 1.53602C9.28405 1.53602 9.07565 1.63052 8.88232 1.86681L8.50211 1.64772C8.61166 1.36202 8.58376 1.13647 8.58376 1.13647L8.4312 1.06127H8.4269V1.05912L8.27009 0.99254C8.27009 0.99254 8.08535 1.12787 7.94358 1.39853L7.52256 1.26105C7.57411 0.960318 7.50326 0.745502 7.50326 0.745502L7.33785 0.704701H7.33355H7.3314L7.16384 0.670324C7.16384 0.670324 7.01346 0.842182 6.93183 1.13647L6.49576 1.09134C6.47857 0.786313 6.3669 0.590845 6.3669 0.590845L6.19504 0.582244H6.19289H6.19074L6.01458 0.590845C6.01458 0.590845 5.90506 0.786313 5.88573 1.09134L5.36375 1.1515C5.27998 0.855059 5.12744 0.683199 5.12744 0.683199L4.96203 0.719726H4.95773H4.94913L4.78372 0.758403C4.78372 0.758403 4.72147 0.983948 4.77302 1.28898L4.3584 1.42861C4.21448 1.15365 4.01904 1.01187 4.01904 1.01187L3.86863 1.08277V1.08062L3.86433 1.08277L3.85793 1.08704L3.70967 1.1601C3.70967 1.1601 3.69252 1.39209 3.80207 1.68852L3.4347 1.91194C3.23278 1.6692 3.02013 1.56822 3.02013 1.56822L2.87623 1.6692L2.87408 1.6735H2.87193V1.67562L2.73872 1.7809C2.73872 1.7809 2.76454 2.01503 2.94498 2.2771L2.62701 2.57784C2.37998 2.37592 2.14369 2.3222 2.14369 2.3222L2.02989 2.44896H2.02559V2.45754L1.91603 2.58644C1.91603 2.58644 1.99979 2.81414 2.22535 3.03754L1.97833 3.38768C1.69264 3.23946 1.44771 3.23945 1.44771 3.23945L1.36395 3.38768L1.3618 3.39198L1.3575 3.39626L1.2866 3.54234C1.2866 3.54234 1.40476 3.74641 1.67972 3.92041L1.50786 4.3178C1.20068 4.23403 0.962232 4.27915 0.962232 4.27915L0.908529 4.44454H0.906432V4.45314L0.861277 4.61639C0.861277 4.61639 1.02672 4.79038 1.32745 4.89993L1.2415 5.31883C0.91928 5.30809 0.700169 5.40046 0.700169 5.40046L0.68517 5.57229V5.57659V5.58089L0.667969 5.75275C0.667969 5.75275 0.867726 5.89022 1.18779 5.93103V6.08999L1.19209 6.36066C0.874174 6.41221 0.67872 6.54969 0.67872 6.54969L0.693719 6.72797V6.73012L0.719521 6.89553C0.719521 6.89553 0.94078 6.99219 1.26085 6.96856L1.35535 7.38746C1.05462 7.50345 0.89353 7.6839 0.89353 7.6839L0.947233 7.845V7.85143L1.00524 8.01469C1.00524 8.01469 1.24154 8.05765 1.55086 7.96528L1.72697 8.3584C1.45846 8.53455 1.33605 8.73647 1.33605 8.73647L1.41981 8.88468V8.89328L1.51431 9.03934C1.51431 9.03934 1.75489 9.0372 2.03844 8.88468L2.29625 9.22622C2.06425 9.46037 1.98903 9.68162 1.98903 9.68162L2.10289 9.8148H2.10504L2.11149 9.8234V9.8191L2.22535 9.94156C2.22535 9.94156 2.46164 9.88999 2.70867 9.68162L3.02874 9.96948C2.85474 10.238 2.82468 10.4764 2.82468 10.4764L2.96213 10.5838H2.96643L3.11034 10.6805C3.11034 10.6805 3.32519 10.5774 3.52711 10.3282L3.90303 10.5387C3.78488 10.8352 3.81062 11.0822 3.81062 11.0822L3.96103 11.1509H3.96533L3.96958 11.1552L4.12644 11.2218C4.12644 11.2218 4.31543 11.0757 4.45505 10.7857L4.87183 10.9168C4.82242 11.239 4.89328 11.4581 4.89328 11.4581L5.06084 11.4989H5.06299H5.06944L5.23484 11.5333C5.23484 11.5333 5.38953 11.355 5.46901 11.0392L5.89863 11.0865C5.91366 11.4066 6.03393 11.6149 6.03393 11.6149L6.20579 11.6171H6.21009H6.21224L6.3841 11.6085C6.3841 11.6085 6.50007 11.4001 6.51296 11.0843L6.94258 11.0371C7.02421 11.3443 7.17889 11.5247 7.17889 11.5247L7.35075 11.486H7.355L7.52256 11.4495C7.52256 11.4495 7.59131 11.2218 7.53976 10.9104L7.94788 10.7729C8.09395 11.0543 8.28084 11.1917 8.28084 11.1917L8.4441 11.1316V11.1252L8.44625 11.123L8.60091 11.0543C8.60091 11.0543 8.62241 10.8201 8.51071 10.5258L8.88232 10.3067C9.0821 10.5473 9.29474 10.644 9.29474 10.644L9.4387 10.5473V10.5452L9.44085 10.5409L9.57616 10.4399C9.57616 10.4399 9.5461 10.2079 9.3721 9.94798L9.70507 9.65584C9.94136 9.84702 10.169 9.89858 10.169 9.89858L10.2829 9.7697H10.2893V9.76755L10.4032 9.63652C10.4032 9.63652 10.3258 9.41741 10.1067 9.2026L10.3645 8.8503C10.6416 8.98778 10.8672 8.99209 10.8672 8.99209L10.9574 8.84815L10.9595 8.84173L11.0433 8.68489C11.0433 8.68489 10.9273 8.49158 10.6696 8.32188L10.8478 7.92018C11.1464 7.99751 11.3677 7.95883 11.3677 7.95883L11.4236 7.7913L11.43 7.78915V7.78485L11.4816 7.61944C11.4816 7.61944 11.3226 7.45403 11.0412 7.34233L11.1292 6.91486C11.4343 6.9256 11.6427 6.83753 11.6427 6.83753L11.6663 6.66785V6.6614V6.65925L11.6813 6.49169C11.6813 6.49169 11.4923 6.35851 11.1894 6.3091" fill="#415B91"/>
</svg>
