<svg width="289" height="176" viewBox="0 0 289 176" fill="none" xmlns="http://www.w3.org/2000/svg">
<path d="M12.713 163.664V15.4016C12.713 13.6187 14.1952 12.115 15.9781 12.115H273.235C275.04 12.115 276.543 13.6187 276.543 15.4016V163.664H12.713ZM284.04 4.61813C283.697 4.27444 283.331 3.95222 282.945 3.63002C281.634 2.53448 280.131 1.67523 278.498 1.07376C278.262 0.987839 278.004 0.901917 277.789 0.837479C277.295 0.687103 276.823 0.579697 276.329 0.47229C275.34 0.257477 274.288 0.15007 273.235 0.15007H15.9351C15.6989 0.15007 15.4411 0.171539 15.2048 0.171539C14.8182 0.193024 14.41 0.235992 14.0234 0.278946C13.5937 0.343399 13.1856 0.429321 12.7774 0.493759C10.393 1.00931 8.22346 2.08337 6.41905 3.56557H6.39758C5.96796 3.93074 5.51685 4.3174 5.13019 4.72554C4.57168 5.28406 4.07762 5.86403 3.62651 6.50845C2.93912 7.43214 2.35913 8.46326 1.92951 9.53731L1.71469 10.0743L1.52136 10.6328C1.30655 11.1913 1.15619 11.7713 1.07026 12.3728C0.984339 12.7595 0.919895 13.1676 0.855452 13.5543C0.833971 13.7691 0.833982 13.9624 0.812501 14.1772L0.769523 14.7787C0.748042 14.9935 0.748047 15.1868 0.748047 15.4016V175.414H288.508V15.4016C288.508 11.1913 286.79 7.36772 284.04 4.61813Z" fill="#B6D0FB"/>
</svg>
