<svg width="164" height="120" viewBox="0 0 164 120" fill="none" xmlns="http://www.w3.org/2000/svg">
<path d="M120.322 119.113H73.6425V103.047H120.322V119.113ZM81.8229 108.443C80.4567 108.443 79.3483 109.55 79.3483 110.916C79.3483 112.284 80.4567 113.39 81.8229 113.39C83.188 113.39 84.2956 112.284 84.2956 110.916C84.2956 109.55 83.188 108.443 81.8229 108.443ZM72.3888 119.113H55.4598H33.5575L31.2047 103.047H72.3888V119.113ZM163.233 4.71767C163.186 4.65108 163.138 4.58448 163.088 4.51789C162.826 4.14412 162.538 3.80688 162.214 3.48037C162.213 3.48037 162.213 3.48037 162.213 3.48037C162.212 3.47822 162.211 3.47821 162.21 3.47607C162.09 3.35148 161.96 3.22904 161.825 3.10875C161.756 3.04646 161.684 2.98416 161.612 2.92187C161.564 2.88105 161.518 2.84237 161.471 2.80156H161.466C161.302 2.66837 161.132 2.54166 160.959 2.42136C160.766 2.28389 160.566 2.15498 160.361 2.03255C161.508 2.70275 162.49 3.62215 163.233 4.71767ZM0.53125 2.5395V2.53304C2.00556 1.4504 3.82473 0.810287 5.78825 0.810287H119.488H126.964H144.369H5.81426C5.46266 0.810287 5.11024 0.829597 4.7662 0.870415C4.50776 0.900482 4.25351 0.941315 4.00431 0.995018C3.7727 1.03798 3.54784 1.09596 3.32295 1.16255C3.26841 1.17759 3.21303 1.19264 3.15765 1.20983L2.84046 1.31509L2.74732 1.34731C2.2489 1.52776 1.77145 1.7533 1.32001 2.01752C1.0473 2.17863 0.78382 2.35046 0.53125 2.5395H0.53125ZM157.547 0.97567C157.486 0.962776 157.425 0.952057 157.363 0.941315C157.425 0.952057 157.486 0.962776 157.547 0.97567ZM156.79 0.859688C156.724 0.853241 156.658 0.846779 156.593 0.840332C156.546 0.836037 156.499 0.833908 156.453 0.829613C156.566 0.838203 156.678 0.846802 156.79 0.859688ZM156.319 0.821007L155.913 0.810287C156.05 0.810287 156.185 0.814568 156.319 0.821007Z" fill="#EBEDEA"/>
</svg>
