<svg width="29" height="27" viewBox="0 0 29 27" fill="none" xmlns="http://www.w3.org/2000/svg">
<path d="M2.16886 7.59856L10.104 5.73829L10.3059 5.71251L10.2994 5.70179L15.0059 1.57526C15.4141 0.851347 16.1165 0.490471 17.1541 0.479731C17.9489 0.471138 18.778 0.668751 19.6738 1.00385C20.8896 1.45496 21.7144 2.56553 21.418 3.82432L19.1797 16.438L19.1582 16.5175L18.8661 21.0779L26.2942 22.2873C27.5637 22.4806 28.4337 23.6685 28.2425 24.9338C28.0471 26.199 26.8635 27.0711 25.594 26.88L16.0757 25.329C14.9007 25.1486 14.0758 24.1132 14.1144 22.9511L14.108 22.7191L14.4088 18.034L8.53152 17.0868L8.45422 23.9886C8.45422 25.2689 7.41238 26.3086 6.12996 26.3064C4.84754 26.3043 3.80784 25.2646 3.80999 23.98L3.91955 14.335C3.92169 13.0526 4.96354 12.015 6.24596 12.015C6.47366 12.0172 6.68848 12.0602 6.89469 12.1225L12.1984 12.9753L13.4829 7.53195L11.6957 9.05713L11.6935 9.04853C11.4078 9.28267 11.0964 9.46312 10.7999 9.534L2.95505 11.0678C1.99914 11.2847 1.04325 10.6854 0.826295 9.72734C0.607188 8.77143 1.20866 7.81766 2.16886 7.59856Z" fill="#81B0FF"/>
</svg>
