<svg width="6" height="21" viewBox="0 0 6 21" fill="none" xmlns="http://www.w3.org/2000/svg">
<path d="M5.37322 20.5551H5.05766L0.951172 0.218504H1.2675L1.43198 1.03499L1.43366 1.04165L1.47058 1.22618L1.61657 1.94794L1.65433 2.13676L2.11164 4.4015L2.14857 4.58603L2.29458 5.3093L2.33234 5.49639L2.78965 7.75856L2.82741 7.94588L2.97342 8.66915L3.01032 8.85367L3.35185 10.5444L3.46763 11.1184L3.5054 11.3072L3.6514 12.0288L3.68917 12.2118L4.14644 14.48L4.18424 14.6645L4.33031 15.3886L4.36726 15.5732L4.82438 17.8371L4.86218 18.0244L5.00826 18.7459L5.04606 18.933L5.37322 20.5551" fill="#415B91"/>
</svg>
