<svg width="164" height="97" viewBox="0 0 164 97" fill="none" xmlns="http://www.w3.org/2000/svg">
<path d="M119.324 96.1951H72.6447V90.5177C72.6447 87.8777 74.1392 85.5792 76.3257 84.4214V87.9808H119.324V96.1951V96.1951ZM71.3911 96.1951H29.2034L26.8581 80.181L26.7691 80.6665C26.2471 77.5539 23.4782 75.1802 20.1411 75.1802H2.88657V9.70593C2.88657 8.66839 3.76259 7.78983 4.81652 7.78983H154.885C155.926 7.78983 156.789 8.66839 156.789 9.70593V28.8563L145.205 34.8474V17.1062H61.4561V71.7669H119.324V77.6076H76.3257V81.2636H110.014C110.013 81.2916 110.011 81.3195 110.011 81.3474V82.3742H79.5371C75.0452 82.3742 71.3911 86.0282 71.3911 90.5177V96.1951V96.1951ZM41.6213 80.34C41.1574 80.34 40.674 80.456 40.152 80.6493C39.4372 80.9006 38.9538 81.5579 39.1274 82.2926L40.4423 89.6391V89.6971L40.616 92.3457L36.2855 93.061C35.5512 93.177 35.0284 93.8537 35.145 94.6077C35.2501 95.2714 35.8281 95.7462 36.4801 95.7462C36.5497 95.7462 36.6201 95.7397 36.6914 95.729L42.2398 94.8397C42.9362 94.7237 43.4195 94.1244 43.3809 93.4477L43.4002 93.3124L43.2064 90.5864L46.6475 90.0258L46.687 94.047C46.687 94.801 47.3055 95.4003 48.0397 95.4003C48.7939 95.4003 49.393 94.801 49.393 94.047L49.3352 88.4211C49.3352 87.6672 48.7361 87.0678 47.9817 87.0678L47.5948 87.1258L44.502 87.6285L43.7475 84.4579L44.7922 85.3472V85.3279L45.3142 85.6179L49.8956 86.5072C49.9779 86.5265 50.0593 86.5373 50.1399 86.5373C50.6105 86.5373 51.0343 86.2129 51.1334 85.7339C51.2685 85.1732 50.9203 84.6125 50.3596 84.4966L45.7204 83.4139L45.6037 83.3946L45.6231 83.3752L42.8589 80.978C42.6264 80.5526 42.2205 80.34 41.6213 80.34V80.34ZM56.9483 17.1062V84.7071H57.8595V17.1062H56.9483ZM49.8127 82.5912C49.8748 82.5912 49.936 82.5998 49.9921 82.6213L50.5921 82.7566C50.7852 82.7953 51.0176 82.9693 51.0754 83.1626L51.172 83.4719C51.2189 83.6437 51.3791 83.7404 51.5411 83.7404C51.5798 83.7404 51.6184 83.734 51.6554 83.7232L52.1965 83.5492C52.4087 83.4912 52.5062 83.2786 52.4474 83.0659L52.3703 82.7952C52.2929 82.6019 52.3896 82.3313 52.564 82.2153C52.564 82.2153 52.6605 82.1379 52.8536 81.9253L53.028 81.7126C53.1238 81.5687 53.3101 81.4656 53.492 81.4656C53.5307 81.4656 53.5702 81.4699 53.6078 81.4806L53.8587 81.5386C53.884 81.5429 53.9083 81.5451 53.9317 81.5451C54.1147 81.5451 54.2715 81.4205 54.3229 81.2486L54.4395 80.688C54.478 80.4753 54.3613 80.282 54.1491 80.224L53.9175 80.1853C53.7238 80.1273 53.5307 79.9146 53.492 79.7213L53.2789 79.0253L53.3754 78.3873L53.5113 78.2327L53.492 77.6913L53.0667 77.3047L52.5253 77.324L52.3896 77.498C52.2745 77.614 52.0951 77.6742 51.9314 77.6742C51.8751 77.6742 51.8206 77.6677 51.7711 77.6527L51.0563 77.498C50.843 77.4787 50.6307 77.3047 50.5536 77.1114L50.4947 76.8794C50.4471 76.7204 50.2808 76.613 50.1165 76.613C50.0812 76.613 50.0458 76.6173 50.0114 76.628L49.4703 76.802C49.2579 76.8794 49.1614 77.092 49.2194 77.2853L49.2965 77.5367C49.3545 77.73 49.2772 78.0007 49.1036 78.136L48.9097 78.3293C48.7168 78.5227 48.6588 78.6387 48.6588 78.6387C48.5758 78.8041 48.3804 78.8986 48.1924 78.8986C48.1604 78.8986 48.1286 78.8964 48.0975 78.89L47.8079 78.832C47.7744 78.8234 47.7417 78.8191 47.7097 78.8191C47.5387 78.8191 47.3961 78.9437 47.3632 79.122L47.2281 79.6826C47.1897 79.876 47.3246 80.0886 47.5177 80.1273L47.8466 80.2046C48.0397 80.2433 48.2334 80.4559 48.2721 80.6686L48.4843 81.2486L48.3879 81.8673L48.1563 82.1186L48.1754 82.6599L48.601 83.0466L49.1421 83.0273L49.3739 82.7759C49.4727 82.6621 49.6447 82.5912 49.8127 82.5912V82.5912ZM41.5056 75.1781C40.1714 75.1781 39.0889 76.2607 39.0889 77.5947C39.0889 78.9287 40.1714 80.0113 41.5056 80.0113C42.8398 80.0113 43.9222 78.9287 43.9222 77.5947C43.9222 76.2607 42.8398 75.1781 41.5056 75.1781ZM9.99294 67.9669H10.8815L11.114 74.0761C11.1333 74.6947 11.6359 75.1781 12.2543 75.1781H12.2929C12.9315 75.1587 13.4341 74.6367 13.3955 73.9988L13.1245 65.8403V63.0176L14.4587 64.5192V69.8615C14.4587 70.9248 15.3095 71.7755 16.3533 71.7755H52.2351C53.2789 71.7755 54.1298 70.9248 54.1298 69.8615V64.1583C54.1298 63.1143 53.2789 62.2637 52.2351 62.2637H16.3533C15.9791 62.2637 15.63 62.3732 15.3355 62.5622L13.1438 60.1563C13.0087 59.9824 12.8148 59.8857 12.6219 59.847L12.4674 59.8277H8.87107L6.82197 58.8997L5.91321 55.3811C5.7991 54.9257 5.39801 54.6336 4.95077 54.6336C4.86685 54.6336 4.78127 54.6443 4.69568 54.6658C4.15445 54.8011 3.82553 55.3425 3.96062 55.8838L4.98516 59.8664C5.06237 60.1564 5.2755 60.4077 5.54569 60.5237L8.07895 61.6837L8.04035 65.2022L6.89917 73.8828C6.82197 74.5207 7.26669 75.1007 7.90442 75.1781H8.04035C8.62017 75.1781 9.10349 74.7527 9.18069 74.1727L9.99294 67.9669V67.9669ZM16.3533 53.6218C15.3095 53.6218 14.4587 54.4725 14.4587 55.5164V57.8364C14.4587 58.8804 15.3095 59.731 16.3533 59.731H52.2351C53.2789 59.731 54.1298 58.8804 54.1298 57.8364V55.5164C54.1298 54.4725 53.2789 53.6218 52.2351 53.6218H16.3533V53.6218ZM10.3789 54.6271C9.16138 54.6271 8.17544 55.6131 8.17544 56.8311C8.17544 58.0491 9.16138 59.035 10.3789 59.035C11.5973 59.035 12.5833 58.0491 12.5833 56.8311C12.5833 55.6131 11.5973 54.6271 10.3789 54.6271ZM32.1091 48.3246C31.2978 48.3246 30.6207 48.9046 30.6207 49.6199C30.6207 50.3159 31.2978 50.9152 32.1091 50.9152H52.6411C53.4535 50.9152 54.1298 50.3159 54.1298 49.6199C54.1298 48.9046 53.4535 48.3246 52.6411 48.3246H32.1091ZM32.116 42.0779C31.2969 42.0779 30.6291 42.66 30.6291 43.3689C30.6291 44.0778 31.2969 44.6578 32.116 44.6578H52.6446C53.4628 44.6578 54.1306 44.0778 54.1306 43.3689C54.1306 42.66 53.4628 42.0779 52.6446 42.0779H32.116ZM25.4274 33.5693C24.3794 33.5693 23.5302 34.4156 23.5302 35.4639V37.7881C23.5302 38.8385 24.3794 39.6849 25.4274 39.6849H52.236C53.2832 39.6849 54.1306 38.8385 54.1306 37.7881V35.4639C54.1306 34.4156 53.2832 33.5693 52.236 33.5693H25.4274ZM16.3508 25.3355C15.3036 25.3355 14.4553 26.1862 14.4553 27.2323V29.5587C14.4553 30.607 15.3036 31.4555 16.3508 31.4555H52.236C53.2832 31.4555 54.1306 30.607 54.1306 29.5587V27.2323C54.1306 26.1862 53.2832 25.3355 52.236 25.3355H16.3508ZM16.3508 17.1062C15.3036 17.1062 14.4553 17.9547 14.4553 19.0008V21.3251C14.4553 22.3755 15.3036 23.2261 16.3508 23.2261H52.236C53.2832 23.2261 54.1306 22.3755 54.1306 21.3251V19.0008C54.1306 17.9547 53.2832 17.1062 52.236 17.1062H16.3508ZM110.011 84.3204H76.5281C77.4376 83.8757 78.4588 83.6266 79.5371 83.6266H110.011V84.3204V84.3204ZM50.8758 81.7233C50.4924 81.7233 50.1072 81.588 49.7992 81.3066C49.1614 80.7073 49.1036 79.702 49.7027 79.064C50.0207 78.7138 50.4537 78.5399 50.8859 78.5399C51.2659 78.5399 51.6461 78.6752 51.9447 78.948C52.6027 79.5473 52.6411 80.5526 52.0614 81.2099C51.7426 81.5493 51.3095 81.7233 50.8758 81.7233ZM156.789 44.2453H145.205V35.277L156.789 29.2838V44.2453ZM163.756 9.31928L163.733 8.99277L163.723 8.85098L163.735 8.98632L163.756 9.31928V9.31928ZM163.661 8.35049C163.637 8.21301 163.611 8.07337 163.582 7.94019C163.577 7.90582 163.572 7.8736 163.566 7.83923C163.573 7.87146 163.579 7.90367 163.586 7.93589C163.614 8.07337 163.639 8.21086 163.661 8.35049ZM163.325 6.94347C163.323 6.93702 163.321 6.93058 163.318 6.92414L163.205 6.59977L163.08 6.28401C163.047 6.20238 163.012 6.12075 162.976 6.03697C163.014 6.1186 163.05 6.20238 163.084 6.28401L163.207 6.60407L163.322 6.93059C163.322 6.93489 163.324 6.93917 163.325 6.94347ZM161.216 3.48072C161.215 3.48072 161.214 3.47857 161.213 3.47857C161.213 3.47857 161.213 3.47857 161.212 3.47642C161.213 3.47857 161.215 3.47857 161.215 3.48072C161.215 3.48072 161.215 3.48072 161.216 3.48072ZM160.828 3.1091C160.757 3.04681 160.685 2.98451 160.614 2.92222C160.686 2.98451 160.758 3.04681 160.828 3.1091ZM160.469 2.80191H160.462C160.3 2.66873 160.133 2.54201 159.961 2.42172C160.135 2.54201 160.304 2.66873 160.469 2.80191V2.80191ZM0.322266 2.01787C0.773703 1.75366 1.25115 1.5281 1.74958 1.34766L1.84272 1.31544L1.74623 1.34979C1.24947 1.53238 0.772863 1.7558 0.322266 2.01787V2.01787ZM2.32521 1.1629C2.55009 1.09631 2.77496 1.03833 3.00656 0.995371C3.25577 0.941669 3.51002 0.900838 3.76845 0.870764C3.51085 0.902986 3.25828 0.943819 3.01159 0.997522C2.78 1.04908 2.55428 1.10061 2.32521 1.1629V1.1629ZM156.608 0.986771C156.417 0.954549 156.225 0.915889 156.026 0.885816C155.884 0.868631 155.739 0.853576 155.595 0.840688C155.661 0.847132 155.726 0.853595 155.792 0.86004C155.87 0.868632 155.949 0.877223 156.027 0.885816C156.141 0.900853 156.254 0.920188 156.365 0.941669C156.428 0.952409 156.488 0.963131 156.549 0.97602C156.569 0.980316 156.589 0.982474 156.608 0.986771" fill="#F4F5F3"/>
</svg>
