<svg width="14" height="21" viewBox="0 0 14 21" fill="none" xmlns="http://www.w3.org/2000/svg">
<path d="M9.19557 20.9911C8.97088 20.9911 8.75843 20.9245 8.57799 20.8107C8.3011 20.6324 8.10155 20.3381 8.05536 19.9879L7.24897 13.7692H6.35191L6.13539 19.8827C6.12207 20.2736 5.91305 20.613 5.60587 20.8107C5.42715 20.9245 5.21492 20.9911 4.98829 20.9911H4.9464C4.73417 20.9825 4.53784 20.9159 4.37007 20.8107C4.03862 20.598 3.82295 20.2221 3.83798 19.7989L4.12497 11.6468V8.82636L1.96849 11.2365C1.77473 11.4449 1.51029 11.5501 1.24694 11.5501C1.00678 11.5501 0.765116 11.4621 0.575653 11.2859C0.176965 10.9143 0.155056 10.2914 0.526893 9.89397L4.09232 5.95435C4.24076 5.79324 4.42785 5.69657 4.62677 5.66006L4.78272 5.64073H8.36576L10.4166 4.70628L11.3228 1.19414C11.4395 0.738737 11.8506 0.437998 12.2979 0.437998C12.381 0.437998 12.4656 0.448744 12.5496 0.470224C13.0884 0.607704 13.4121 1.15761 13.2729 1.69893L12.2474 5.67293C12.1711 5.96937 11.9656 6.21428 11.6895 6.33887L9.16636 7.49025L9.19557 11.0174L10.3351 19.6915C10.3955 20.149 10.1783 20.5787 9.81402 20.8107C9.67654 20.8966 9.51715 20.9567 9.34422 20.9803L9.19557 20.9911Z" fill="#BABCBB"/>
</svg>
