<svg width="26" height="75" viewBox="0 0 26 75" fill="none" xmlns="http://www.w3.org/2000/svg">
<path d="M19.9187 74.5365H15.2835L15.2794 71.4963H19.3826L19.9968 74.5339C19.9708 74.5339 19.9448 74.5365 19.9187 74.5365ZM14.2775 74.5365H0.53125V45.2123L2.64244 37.9749C2.68019 37.8937 2.75488 37.7115 2.79348 37.4598L2.85724 37.2406C3.05695 37.2278 3.25415 37.2063 3.45134 37.1784C3.56713 37.6376 3.79871 37.9061 3.79871 37.9061L4.0471 37.8591H4.05296H4.05969L4.30721 37.8013C4.30721 37.8013 4.4121 37.4641 4.33658 36.9936C4.54217 36.9378 4.7444 36.8733 4.94578 36.8003C5.15387 37.2256 5.43581 37.4404 5.43581 37.4404L5.66993 37.3459H5.67077L5.67579 37.3438L5.68168 37.3395L5.91075 37.2342C5.91075 37.2342 5.94431 36.8776 5.77229 36.433L6.32611 36.1193C6.6198 36.4974 6.94116 36.6478 6.94116 36.6478L7.15178 36.5017H7.15597L7.16102 36.4974L7.36324 36.3449C7.36324 36.3449 7.32296 35.9883 7.06031 35.5909L7.53777 35.1656C7.90194 35.4749 8.25017 35.5565 8.25017 35.5565L8.42638 35.3718V35.3739L8.42973 35.3675L8.4331 35.3632L8.60007 35.172C8.60007 35.172 8.48597 34.8348 8.14695 34.4997L8.52538 33.9884C8.94747 34.2097 9.30156 34.2183 9.30156 34.2183L9.43582 33.9992L9.43749 33.9949L9.4417 33.9927L9.56505 33.7693C9.56505 33.7693 9.38463 33.4643 8.98607 33.2065C9.08172 33.0175 9.16982 32.8306 9.24953 32.6308C9.48198 32.6974 9.68672 32.7146 9.83188 32.7146C9.97201 32.7146 10.0568 32.6996 10.0568 32.6996L10.1423 32.4611L10.1457 32.4568L10.1465 32.4504L10.2221 32.2055C10.2221 32.2055 9.98376 31.9434 9.53736 31.7716C9.5919 31.5675 9.63888 31.3613 9.6758 31.1508C9.73034 31.1551 9.78405 31.1572 9.8344 31.1572C10.2246 31.1572 10.4822 31.0498 10.4822 31.0498L10.5166 30.7985V30.7942L10.5183 30.7856L10.5418 30.5364C10.5418 30.5364 10.2514 30.3259 9.77902 30.2528L9.78993 29.849L9.78656 29.6149C10.2598 29.5526 10.556 29.3507 10.556 29.3507L10.5376 29.0972V29.0907V29.0843H10.5367L10.5074 28.833C10.5074 28.833 10.2296 28.7105 9.81511 28.7105C9.77902 28.7105 9.74209 28.7127 9.70349 28.7148C9.67161 28.5043 9.62799 28.2938 9.58015 28.0876C10.0274 27.9286 10.2741 27.6687 10.2741 27.6687L10.2053 27.426L10.2045 27.4217L10.2011 27.4131L10.1188 27.1746C10.1188 27.1746 10.019 27.1531 9.85622 27.1531C9.7144 27.1531 9.52477 27.1682 9.31163 27.2262C9.23611 27.0243 9.15053 26.8309 9.0599 26.6376C9.46434 26.3884 9.65063 26.0877 9.65063 26.0877L9.53147 25.8621L9.52728 25.8557L9.52561 25.8514L9.39721 25.6344C9.39721 25.6344 9.03977 25.6344 8.61769 25.8492L8.25017 25.3273C8.59084 25.0007 8.70916 24.6656 8.70916 24.6656L8.54553 24.4723L8.5447 24.468L8.54051 24.4637L8.36765 24.2747C8.36765 24.2747 8.02445 24.3499 7.65609 24.6484L7.18535 24.2102C7.44966 23.8193 7.49498 23.4734 7.49498 23.4734L7.29611 23.3188V23.3145H7.29022L7.28603 23.3102L7.07962 23.1619C7.07962 23.1619 7.02508 23.1856 6.94116 23.2393L6.97054 23.1383C7.03767 23.0889 7.10899 23.0309 7.18198 22.9622L7.6653 23.3102C7.47148 23.6968 7.45219 24.0062 7.45219 24.0062L7.6653 24.1415L7.8776 24.2575C7.8776 24.2575 8.14863 24.0835 8.38024 23.7355L8.92145 23.9675C8.80565 24.3928 8.86356 24.7021 8.86356 24.7021L9.09599 24.7795L9.32757 24.8568C9.32757 24.8568 9.56002 24.6441 9.7144 24.2382C9.90739 24.2768 10.1012 24.3348 10.2942 24.3542C10.2749 24.7988 10.3907 25.0888 10.3907 25.0888L10.6232 25.1275H10.6425L10.874 25.1468C10.874 25.1468 11.0679 24.8761 11.1258 24.4508C11.3188 24.4508 11.5126 24.4508 11.7249 24.4508C11.7828 24.8761 11.9573 25.1468 11.9573 25.1468L12.2082 25.1275L12.4407 25.1081C12.4407 25.1081 12.5757 24.7988 12.5565 24.3542C12.7494 24.3348 12.9433 24.2962 13.117 24.2382C13.2714 24.6441 13.5231 24.8762 13.5231 24.8762L13.7354 24.8182L13.7547 24.7988L13.9678 24.7408C13.9678 24.7408 14.045 24.4122 13.9292 23.9868L14.4704 23.7548C14.702 24.1222 14.9731 24.2962 14.9731 24.2962L15.1854 24.1802L15.3985 24.0642C15.3985 24.0642 15.3792 23.7355 15.1854 23.3295L15.6687 22.9815C15.9783 23.3102 16.288 23.4262 16.288 23.4262L16.4616 23.2715V23.2522L16.6353 23.0975C16.6353 23.0975 16.5581 22.7688 16.288 22.4402L16.6739 21.9955C17.0415 22.2469 17.3704 22.2855 17.3704 22.2855L17.5248 22.1115V22.0922L17.6599 21.8989C17.6599 21.8989 17.5248 21.6089 17.1766 21.3382L17.4862 20.8162C17.7673 20.9365 18.0115 20.9559 18.1348 20.9559C18.1894 20.9559 18.2212 20.9516 18.2212 20.9516L18.3177 20.7389L18.4142 20.5262C18.4142 20.5262 18.2212 20.2556 17.8151 20.0622L18.0081 19.5016C18.1499 19.5274 18.2808 19.536 18.3924 19.536C18.6165 19.536 18.7625 19.5016 18.7625 19.5016L18.8204 19.2696V19.2503L18.859 19.0183C18.859 19.0183 18.6072 18.8056 18.1818 18.6896C18.2212 18.4963 18.2405 18.303 18.2599 18.1096C18.7046 18.0903 18.9941 17.9356 18.9941 17.9356V17.7036V17.6843V17.4523C18.9941 17.4523 18.7046 17.2976 18.2599 17.2783L18.2405 16.8916L18.2019 16.679C18.6458 16.5823 18.8976 16.3696 18.8976 16.3696L18.859 16.1376H18.8397V16.1183L18.8011 15.9057C18.8011 15.9057 18.6181 15.8477 18.3312 15.8477C18.2447 15.8477 18.1499 15.8541 18.0467 15.867L17.873 15.3063C18.2791 15.113 18.4721 14.8617 18.4721 14.8617L18.3756 14.6297L18.2791 14.417C18.2791 14.417 18.2422 14.4127 18.1793 14.4127C18.0517 14.4127 17.8151 14.4299 17.5441 14.533L17.2546 14.0304C17.602 13.7597 17.7379 13.4697 17.7379 13.4697L17.6213 13.257H17.602L17.4669 13.0637C17.4669 13.0637 17.138 13.1024 16.7713 13.3344L16.3844 12.909C16.6739 12.561 16.7511 12.2517 16.7511 12.2517L16.5774 12.0777H16.5581L16.3844 11.9231C16.3844 11.9231 16.0748 12.0197 15.766 12.3291L15.302 11.9811C15.5143 11.5944 15.5143 11.2658 15.5143 11.2658L15.3205 11.1498H15.302L15.1082 11.0337C15.1082 11.0337 14.8187 11.1884 14.5862 11.5557L14.045 11.3044C14.1608 10.8791 14.1029 10.5697 14.1029 10.5697L13.8906 10.4924H13.8713L13.6582 10.4151C13.6582 10.4151 13.4266 10.6278 13.2521 11.0337C13.0591 10.9757 12.8854 10.9371 12.6722 10.8984C12.7108 10.4731 12.5757 10.1831 12.5757 10.1831L12.3442 10.1444L12.1117 10.1251C12.1117 10.1251 11.9187 10.3764 11.8608 10.8018C11.6091 10.7824 11.3767 10.7824 11.1451 10.7824C11.0679 10.3764 10.8933 10.1251 10.8933 10.1251L10.7641 10.1358L12.3123 4.82787H25.7799C25.587 4.05454 25.2388 3.35856 24.7939 2.75924H12.9156L13.6397 0.276039H19.9187C23.2685 0.276039 25.9863 3.01271 25.9863 6.38524V18.0688C25.9779 18.1311 25.9736 18.1977 25.9736 18.2643V23.1168C25.9736 23.1834 25.9779 23.25 25.9863 23.3123V26.3218C25.9779 26.3863 25.9736 26.4528 25.9736 26.5194V31.372C25.9736 31.4386 25.9779 31.5052 25.9863 31.5696V57.4414L23.4949 45.1006L23.4941 45.083H22.5418L22.5805 46.7033H20.251C20.6664 46.7033 21.002 46.3677 21.002 45.9514C21.002 45.9514 21.0054 35.6876 21.0054 35.2558C21.0054 34.8262 21.1657 34.5748 21.1657 34.5748L23.9557 29.7653L24.0513 29.4087C24.0513 29.0113 23.7317 28.6912 23.3338 28.6912C23.0612 28.6912 22.8245 28.8416 22.7012 29.0671L20.4617 33.0046L20.2326 33.0432C20.0866 32.938 19.7988 32.8005 19.2718 32.7898L19.2659 32.7919L19.2617 32.7898C18.7365 32.8005 18.447 32.938 18.3018 33.0432L18.071 33.0046L15.8289 29.0671C15.709 28.8416 15.4698 28.6912 15.1988 28.6912C14.8002 28.6912 14.4805 29.0113 14.4805 29.4087L14.5753 29.7653L17.3679 34.5748C17.3679 34.5748 17.5307 34.8262 17.5307 35.2558C17.5307 35.6876 17.5307 45.9514 17.5307 45.9514C17.5307 46.3677 17.868 46.7033 18.2825 46.7033H15.3247L14.9999 45.0939V45.083H14.0593H14.0492L14.0601 45.1367L14.2347 65.4195H14.2221L14.2473 65.8835V66.221L14.2775 74.5365ZM8.28288 66.8377C6.70454 66.8377 5.42322 68.1173 5.42322 69.6964C5.42322 71.2731 6.70454 72.5579 8.28288 72.5579C9.85957 72.5579 11.1426 71.2731 11.1426 69.6964C11.1426 68.1173 9.85957 66.8377 8.28288 66.8377ZM19.2651 29.3227C18.4335 29.3421 17.7765 30.0187 17.7765 30.85C17.7765 31.6813 18.4335 32.358 19.2651 32.3773C20.0958 32.358 20.773 31.6813 20.773 30.85C20.773 30.0187 20.0958 29.3421 19.2651 29.3227ZM18.8204 28.7427L19.0713 28.7814L19.1485 29.0714L19.2458 29.0907L19.3423 29.0714L19.4195 28.7814L19.6712 28.7427L19.8063 29.0327L19.9028 29.0134H19.9221L20.0186 28.9941V28.6654L20.2703 28.6074L20.4633 28.8587L20.5598 28.8201V28.8007L20.6379 28.7621L20.5993 28.4527L20.8116 28.3368L21.0624 28.5301L21.1405 28.4721L21.2177 28.4141L21.1019 28.1241L21.2949 27.9501L21.5659 28.1047L21.6431 28.0274L21.701 27.9501L21.5265 27.6988L21.6817 27.4861L21.9905 27.5828L22.0493 27.4861L22.0879 27.4088L21.8554 27.1768L21.9712 26.9448L22.2808 26.9834L22.3195 26.8868L22.3388 26.7901L22.0686 26.6161L22.1264 26.3648L22.4546 26.3261V26.2295L22.4737 26.1328L22.165 26.0168L22.1844 25.8621V25.7655L22.4737 25.6688V25.5721V25.5528L22.4546 25.4561L22.1457 25.3981L22.0879 25.1661L22.3579 24.9921L22.3388 24.8955L22.3002 24.7988L21.9905 24.8182L21.894 24.5861L22.1264 24.3735L22.0686 24.2962V24.2768L22.0291 24.1995L21.7203 24.2768L21.5659 24.0835L21.7589 23.8128L21.6817 23.7355L21.6238 23.6582L21.3335 23.8128L21.1598 23.6388L21.2756 23.3489L21.1984 23.2909V23.2715L21.1019 23.2135L20.8695 23.4262L20.6572 23.2909L20.6958 22.9815L20.6186 22.9429L20.5212 22.9042L20.3282 23.1362L20.0765 23.0588V22.7495L19.98 22.7302L19.8835 22.7108L19.7484 22.9815L19.4388 22.9429L19.3616 22.6528H19.2651H19.2458H19.1485L19.0713 22.9429L18.8204 22.9622L18.6853 22.6915L18.5879 22.7108L18.4914 22.7495L18.4721 23.0395L18.2405 23.1168L18.0467 22.8849L17.9502 22.9235L17.8537 22.9622L17.9116 23.2715L17.68 23.3875L17.4476 23.1942L17.3704 23.2522V23.2715L17.2932 23.3295L17.409 23.6002L17.216 23.7742L16.945 23.6388L16.8678 23.7162L16.8099 23.7935L16.9643 24.0448L16.8292 24.2575L16.5195 24.1608L16.4809 24.2575L16.423 24.3348L16.6353 24.5475L16.5388 24.7988L16.23 24.7795L16.2099 24.8568V24.8762L16.1713 24.9728L16.423 25.1275L16.3844 25.3788L16.0748 25.4175L16.0555 25.5141V25.6301L16.3458 25.7268V25.8621V25.9781L16.0555 26.0941V26.1908L16.0748 26.2875L16.3844 26.3455L16.423 26.5968L16.1713 26.7514L16.2099 26.8481L16.23 26.9448L16.5388 26.9254L16.6353 27.1574L16.423 27.3701L16.4809 27.4668L16.5195 27.5441L16.8292 27.4668L16.9643 27.6794L16.7906 27.9308L16.8678 28.0081L16.945 28.0854L17.216 27.9308L17.409 28.1047L17.2739 28.3948L17.3704 28.4527L17.4476 28.5107L17.68 28.3174L17.9116 28.4527L17.8537 28.7621L17.9502 28.8007L18.0467 28.8394L18.2405 28.5881L18.4721 28.6654V28.9747L18.5686 29.0134H18.5879L18.6853 29.0327L18.8204 28.7427ZM22.8799 73.7585H20.7881L20.3308 71.4963H23.0872L23.0907 73.6334C23.0217 73.6773 22.9513 73.72 22.8799 73.7585ZM24.0363 72.9119L24.0262 71.4963H25.1657C24.8603 72.0224 24.4792 72.4999 24.0363 72.9119ZM8.28288 72.3194C6.83629 72.3194 5.65818 71.1423 5.65818 69.6964C5.65818 68.2481 6.83629 67.0718 8.28288 67.0718C9.73034 67.0718 10.9076 68.2481 10.9076 69.6964C10.9076 71.1423 9.73034 72.3194 8.28288 72.3194ZM19.1988 70.5859H15.2785L15.2751 68.1266H18.7029L19.1988 70.5859ZM25.6624 70.4014H24.0178L24.001 68.1367H25.9863V68.4243C25.9863 69.1166 25.8722 69.7804 25.6624 70.4014ZM23.0838 70.4014H20.1101L19.6527 68.1367H23.0814L23.0838 70.4014ZM25.9863 67.0415H23.9927L23.9843 65.8962L23.9531 64.5989H25.9863V67.0415ZM23.041 67.0349H19.4304L19.2659 66.2184L18.9387 64.5989H22.9723L22.9992 65.4212H22.9899L23.0092 65.8962L23.015 66.2167L23.041 67.0349ZM18.4822 67.0349H15.2424L15.2189 65.8904L15.1996 64.5923H17.9896L18.1566 65.4169H18.1558L18.4822 67.0349ZM17.7698 63.5055H15.1912L15.1669 61.235H17.3117L17.7698 63.5055ZM25.9863 63.5012H23.928L23.8743 61.2374H25.8059L25.9863 62.1312V63.5012ZM22.9564 63.5012H18.7172L18.2599 61.2374H22.9042L22.9564 63.5012ZM17.091 60.1442H15.156L15.1308 57.8751H16.6328L17.091 60.1442ZM25.5853 60.1416H23.8492L23.7955 57.8777H25.1279L25.5853 60.1416ZM22.8765 60.1416H18.0392L17.581 57.8777H22.8271L22.8765 60.1416ZM16.413 56.7861H15.1241L15.0973 54.5112H15.954L16.413 56.7861ZM24.9065 56.7818H23.7695L23.7166 54.5179H24.4491L24.9065 56.7818ZM22.7985 56.7818H17.3603L16.903 54.5179H22.7575L22.7985 56.7818ZM15.7341 53.4245H15.088L15.0637 51.1565H15.276L15.7341 53.4245ZM24.2283 53.4221H23.6906L23.6376 51.1582H23.7712L24.2283 53.4221ZM22.7306 53.4221H16.6823L16.2242 51.1582H22.6793L22.7306 53.4221ZM15.0553 50.0648H15.052V50.0481L15.0553 50.0648ZM22.6518 50.0631H16.0035L15.547 47.8025H22.6005L22.6518 50.0631ZM20.251 46.7033H18.2825C18.6978 46.7033 19.0327 46.3677 19.0327 45.9514V40.6476L19.2659 40.4368L19.4992 40.6476V45.9514C19.4992 46.3677 19.8382 46.7033 20.251 46.7033ZM5.94012 31.3033C5.45596 31.3033 5.02717 31.0627 4.76706 30.6932L5.39637 28.5344C5.5642 28.4656 5.74797 28.4291 5.94012 28.4291C6.73391 28.4291 7.3775 29.0714 7.3775 29.8641C7.3775 30.6589 6.73391 31.3033 5.94012 31.3033ZM19.2651 27.8148C18.9555 27.8148 18.7046 27.5634 18.7046 27.2541C18.7046 26.9448 18.9555 26.6934 19.2651 26.6934C19.5739 26.6934 19.8256 26.9448 19.8256 27.2541C19.8256 27.5634 19.5739 27.8148 19.2651 27.8148ZM20.6572 26.4228C20.3475 26.4228 20.0958 26.1715 20.0958 25.8621C20.0958 25.5528 20.3475 25.3015 20.6572 25.3015C20.9659 25.3015 21.2177 25.5528 21.2177 25.8621C21.2177 26.1715 20.9659 26.4228 20.6572 26.4228ZM17.873 26.4228C17.5634 26.4228 17.3125 26.1715 17.3125 25.8621C17.3125 25.5528 17.5634 25.3015 17.873 25.3015C18.1818 25.3015 18.4335 25.5528 18.4335 25.8621C18.4335 26.1715 18.1818 26.4228 17.873 26.4228ZM19.3809 26.0748L19.0327 25.9781L19.1107 25.6301L19.4581 25.7268L19.3809 26.0748ZM19.2651 25.0308C18.9555 25.0308 18.7046 24.7795 18.7046 24.4702C18.7046 24.1608 18.9555 23.9095 19.2651 23.9095C19.5739 23.9095 19.8256 24.1608 19.8256 24.4702C19.8256 24.7795 19.5739 25.0308 19.2651 25.0308ZM12.1856 22.4595C11.7744 22.4595 11.5487 22.176 11.2609 21.8022C10.7003 21.0289 11.667 19.3082 12.3626 18.7863C12.7822 18.4834 13.6515 18.2149 14.3983 18.2149C14.8908 18.2149 15.3297 18.3309 15.5529 18.6316C16.1134 19.4049 16.3651 19.8302 14.2766 21.3769C13.2143 22.1674 12.6043 22.4595 12.1856 22.4595ZM8.00095 20.595C7.9011 20.595 7.80796 20.5864 7.7207 20.567L9.06495 15.9594C9.51721 16.4985 9.85369 17.2375 9.90739 17.723C10.0047 18.5736 9.38549 20.4489 8.43813 20.5649C8.28037 20.5821 8.1352 20.595 8.00095 20.595ZM11.4295 18.2535C11.2172 18.2535 11.0091 18.1461 10.8933 17.9549C10.7197 17.6456 10.8355 17.2783 11.1258 17.1043C11.2239 17.0463 11.3322 17.0184 11.4404 17.0184C11.6527 17.0184 11.8608 17.1258 11.9766 17.317C12.1503 17.6263 12.0538 17.9936 11.7442 18.1676C11.6469 18.2256 11.5378 18.2535 11.4295 18.2535ZM12.4021 17.8003V17.723V17.8003ZM13.2814 16.3417C12.804 16.3417 12.3475 16.2665 12.0538 16.1376C11.2609 15.7897 9.94683 14.3204 10.3328 13.4504C10.5594 12.9284 10.7331 12.5675 11.3205 12.5675C11.7358 12.5675 12.3567 12.7479 13.3486 13.1797C15.7467 14.2237 15.5915 14.707 15.2047 15.577C14.9613 16.1248 14.0912 16.3417 13.2814 16.3417Z" fill="#FAFAF9"/>
</svg>
