<svg width="289" height="176" viewBox="0 0 289 176" fill="none" xmlns="http://www.w3.org/2000/svg">
<path d="M288.503 15.4036V175.412H0.757813V15.4036C0.757813 15.1952 0.757797 14.9847 0.768537 14.7871C0.781426 14.5766 0.794324 14.3682 0.805065 14.1684C0.828694 13.9601 0.841587 13.7625 0.863068 13.5648C0.918918 13.1567 0.979049 12.7614 1.06068 12.364C1.17667 11.784 1.32919 11.2019 1.51392 10.6434L1.71156 10.0827L1.92207 9.53714C2.37532 8.45448 2.9596 7.44058 3.6341 6.49756C4.08735 5.86816 4.58788 5.28818 5.1249 4.72752C6.74243 3.08636 8.73373 1.80609 10.9592 1.03706C11.5499 0.828705 12.1557 0.641815 12.7743 0.502197C13.1803 0.420563 13.597 0.338913 14.0202 0.280914C14.4133 0.233658 14.8107 0.188568 15.2038 0.175674C15.4509 0.164932 15.6957 0.152054 15.9406 0.152054H273.23C274.289 0.152054 275.335 0.257294 276.336 0.467804C276.826 0.560165 277.303 0.689087 277.782 0.839462C278.012 0.908203 278.257 0.991959 278.491 1.07359C280.132 1.66646 281.633 2.54074 282.948 3.63412C283.335 3.94991 283.696 4.27428 284.031 4.62442C286.791 7.37186 288.503 11.1912 288.503 15.4036Z" fill="#E1E2E1"/>
</svg>
