<svg width="27" height="26" viewBox="0 0 27 26" fill="none" xmlns="http://www.w3.org/2000/svg">
<path d="M12.2236 12.0383L12.2343 12.0126L12.2902 11.9589L12.2236 12.0383ZM11.9594 12.6462L12.0088 12.4959L11.9594 12.6462ZM11.9357 13.1532L11.9443 13.2584L11.9357 13.1532ZM12.679 12.4594C12.9755 11.9546 13.6263 11.7827 14.1332 12.0791C14.6423 12.3777 14.812 13.0286 14.5135 13.5356C14.2149 14.0404 13.5661 14.2101 13.0592 13.9158C12.5522 13.6172 12.3826 12.9663 12.679 12.4594ZM10.3118 5.3577C14.4211 3.55974 14.8314 4.30515 15.4866 5.80453C16.1439 7.30605 13.8841 9.82363 12.5243 10.4165C11.1667 11.0115 7.78776 10.9621 7.13044 9.45846C6.47527 7.95908 6.20462 7.15352 10.3118 5.3577ZM8.74367 19.4214C5.13055 16.7599 5.57307 16.036 6.54401 14.717C7.51281 13.3981 10.823 14.0962 12.0174 14.9748C13.2117 15.8534 14.8572 18.807 13.8862 20.1238C12.9153 21.4449 12.3525 22.0786 8.74367 19.4214ZM21.7075 13.7482C21.2069 18.2077 20.3606 18.1883 18.7324 18.0058C17.1041 17.8253 16.0537 14.6118 16.2169 13.136C16.3802 11.6624 18.1159 8.76032 19.7463 8.94291C21.3724 9.12335 22.2037 9.29305 21.7075 13.7482ZM26.4763 12.556C26.4763 12.556 26.0123 12.2983 25.2927 12.2531C25.2734 11.9094 25.239 11.5679 25.1896 11.2306C25.8791 11.0395 26.2829 10.6915 26.2829 10.6915L26.2056 10.2941L26.2035 10.2855L26.2013 10.2769L26.1089 9.88593C26.1089 9.88593 25.602 9.72912 24.8931 9.83652C24.8007 9.50357 24.6933 9.17919 24.573 8.85483C25.211 8.52617 25.5311 8.10084 25.5311 8.10084L25.3764 7.73137L25.3743 7.72277L25.37 7.7142L25.1981 7.349C25.1981 7.349 24.6676 7.30391 23.9931 7.55739C23.8341 7.25236 23.6622 6.95377 23.4775 6.66807C24.0339 6.20837 24.2594 5.72505 24.2594 5.72505L24.0317 5.39423L24.0253 5.38778L24.021 5.37921V5.38136L23.7783 5.06126C23.7783 5.06126 23.2455 5.12573 22.6398 5.51239C22.4228 5.24602 22.193 4.99253 21.9524 4.74765C22.4013 4.18484 22.5237 3.66499 22.5237 3.66499L22.2295 3.39006L22.223 3.38361L22.2166 3.37716L21.9116 3.11509C21.9116 3.11509 21.4068 3.2891 20.8955 3.7939C20.6292 3.57909 20.3499 3.37715 20.0642 3.18597C20.3842 2.54584 20.3928 2.01526 20.3928 2.01526L20.0491 1.80475L20.0427 1.80045L20.0341 1.794V1.79615L19.6818 1.60067C19.6818 1.60067 19.2264 1.87564 18.8312 2.47496C18.524 2.32244 18.2104 2.1828 17.8882 2.05606C18.0686 1.36223 17.9676 0.838104 17.9676 0.838104L17.5917 0.704924L17.581 0.702774L17.5724 0.700623L17.1879 0.584618C17.1879 0.584618 16.7991 0.947657 16.5349 1.61572C16.204 1.53194 15.869 1.46321 15.5274 1.40306C15.5596 0.683443 15.3534 0.193672 15.3534 0.193672L14.9538 0.14212H14.9452H14.9345L14.535 0.107744C14.535 0.107744 14.2278 0.543802 14.1118 1.25483C13.6972 1.23549 13.2869 1.2398 12.8809 1.26343C12.7585 0.548107 12.4427 0.112043 12.4427 0.112043L12.0431 0.148544L12.0346 0.150696H12.026L11.6264 0.206549C11.6264 0.206549 11.4223 0.707077 11.4653 1.43529C11.1302 1.49758 10.7994 1.57275 10.4686 1.66512C10.1979 0.984171 9.79622 0.616844 9.79622 0.616844L9.41385 0.739275L9.4117 0.73715L9.4053 0.741425L9.3967 0.743574V0.745726L9.01648 0.878906C9.01648 0.878906 8.91981 1.42024 9.11959 2.12697C8.80596 2.258 8.49663 2.40193 8.19804 2.55874C7.78775 1.94009 7.313 1.66297 7.313 1.66297L6.96288 1.85846H6.96073L6.95428 1.86276L6.94783 1.86918L6.60631 2.08184C6.60631 2.08184 6.62134 2.6382 6.97148 3.29338C6.69223 3.48456 6.42156 3.68864 6.15949 3.90131C5.62891 3.37717 5.10049 3.20102 5.10049 3.20102L4.80187 3.46738H4.79972L4.79327 3.47383L4.78687 3.48026L4.49686 3.75737C4.49686 3.75737 4.62786 4.30298 5.11119 4.87653C4.87919 5.11926 4.65582 5.3706 4.44531 5.63482C3.81591 5.22882 3.2574 5.16654 3.2574 5.16654L3.01678 5.49088V5.48876L3.01469 5.49734L3.00824 5.50594L2.78052 5.83675C2.78052 5.83675 3.02324 6.34371 3.62041 6.8034C3.44427 7.0891 3.281 7.38338 3.12634 7.68412C2.42176 7.41561 1.86328 7.47361 1.86328 7.47361L1.69572 7.83878L1.69142 7.84523L1.68712 7.8538L1.53676 8.22545C1.53676 8.22545 1.88047 8.6744 2.56356 9.00091C2.44971 9.31453 2.34877 9.63675 2.26285 9.96541C1.51531 9.84511 0.976084 10.017 0.976084 10.017L0.890181 10.4101H0.88803V10.4208L0.88588 10.4273L0.814976 10.8225C0.814976 10.8225 1.24679 11.1898 1.98359 11.3681L1.93848 11.7354C1.917 11.9503 1.89977 12.1608 1.88903 12.3713C1.13504 12.4099 0.641019 12.6913 0.641019 12.6913L0.636719 13.093V13.1016V13.1124L0.64962 13.5119C0.64962 13.5119 1.1458 13.7804 1.90193 13.8041C1.92771 14.1413 1.96638 14.4743 2.01794 14.8051C1.28973 15.0006 0.868679 15.3765 0.868679 15.3765L0.948184 15.7696L0.950334 15.7803V15.7889L1.04699 16.1756C1.04699 16.1756 1.58615 16.3367 2.32725 16.2035C2.42177 16.5236 2.52702 16.8436 2.64732 17.153C1.97711 17.4945 1.64417 17.9435 1.64417 17.9435L1.80098 18.3129L1.80313 18.3194L1.80958 18.328L1.98144 18.691C1.98144 18.691 2.54206 18.7383 3.2402 18.4569C3.39701 18.7555 3.56888 19.0433 3.75147 19.3268C3.16504 19.7973 2.92658 20.3107 2.92658 20.3107L3.16074 20.6393L3.16504 20.6458L3.17149 20.6522L3.41636 20.9723C3.41636 20.9723 3.97702 20.9014 4.60211 20.4782C4.81693 20.736 5.04461 20.9852 5.2809 21.2258C4.80402 21.8079 4.67947 22.36 4.67947 22.36L4.97373 22.6328L4.98018 22.6392L4.98663 22.6457L5.2938 22.9056C5.2938 22.9056 5.82436 22.7187 6.3485 22.1752C6.61272 22.3836 6.88769 22.5812 7.16909 22.7681C6.82325 23.4362 6.81682 24.0011 6.81682 24.0011L7.16264 24.2073H7.16049L7.16909 24.2116L7.17769 24.2159L7.52996 24.405C7.52996 24.405 8.0133 24.115 8.4107 23.4792C8.71144 23.6252 9.01863 23.7627 9.33655 23.883C9.13892 24.6091 9.25059 25.159 9.25059 25.159L9.63081 25.29L9.63941 25.2943H9.64586L10.0304 25.4103C10.0304 25.4103 10.4406 25.0258 10.7006 24.319C11.0228 24.4007 11.3536 24.4737 11.6909 24.5253C11.6479 25.275 11.8713 25.7884 11.8713 25.7884L12.2665 25.8356V25.8378H12.2773H12.2859H12.288L12.6876 25.87C12.6876 25.87 13.0055 25.4103 13.1108 24.6713C13.4523 24.6864 13.7896 24.6864 14.1247 24.6713C14.2428 25.406 14.5629 25.8592 14.5629 25.8592L14.9624 25.8249L14.9732 25.8227H14.9818L15.3791 25.7669C15.3791 25.7669 15.5918 25.2599 15.5467 24.521C15.884 24.4651 16.2148 24.3942 16.5413 24.3083C16.8098 24.9957 17.2136 25.3695 17.2136 25.3695L17.5982 25.2492L17.6046 25.247L17.6132 25.2449V25.2427L17.9934 25.1096C17.9934 25.1096 18.0943 24.5747 17.8989 23.8636C18.2168 23.7391 18.5283 23.5994 18.8333 23.4469C19.2329 24.0591 19.7012 24.3362 19.7012 24.3362L20.0534 24.1408L20.0599 24.1365L20.0706 24.13L20.4122 23.9216C20.4122 23.9216 20.3971 23.3825 20.0663 22.7337C20.352 22.5447 20.6292 22.3428 20.8955 22.1301C21.4132 22.6371 21.9223 22.8089 21.9223 22.8089L22.2273 22.5469L22.2338 22.5404L22.2402 22.534L22.5302 22.2547C22.5302 22.2547 22.4078 21.737 21.9545 21.1764C22.193 20.9336 22.4206 20.6802 22.6376 20.4181C23.2434 20.8048 23.774 20.8713 23.774 20.8713L24.0167 20.5491L24.021 20.5427L24.0274 20.5362L24.2551 20.2054C24.2551 20.2054 24.0317 19.7221 23.4775 19.2667C23.6622 18.9788 23.8341 18.6803 23.9931 18.3752C24.6654 18.6287 25.196 18.5815 25.196 18.5815L25.3657 18.2184L25.37 18.2098L25.3743 18.2012L25.5289 17.8318C25.5289 17.8318 25.211 17.4064 24.573 17.0735C24.6912 16.7556 24.7964 16.4291 24.8888 16.094C25.5998 16.2014 26.1089 16.0467 26.1089 16.0467L26.1992 15.6557H26.2013V15.645L26.2056 15.6364H26.2035L26.2808 15.2433C26.2808 15.2433 25.877 14.8931 25.1831 14.702L25.2497 14.1907L25.2927 13.6773C26.0102 13.6365 26.4763 13.3788 26.4763 13.3788L26.4848 12.9749V12.9663V12.9556L26.4763 12.556Z" fill="#415B91"/>
</svg>
