<svg width="133" height="2" viewBox="0 0 133 2" fill="none" xmlns="http://www.w3.org/2000/svg">
<path d="M132.865 1.25415H126.868L126.331 0.661271L125.671 1.25415H116.576L115.919 0.661271L115.709 0.895407H114.871L114.658 0.661271L113.999 1.25415H108.899L107.838 0.0103885H122.772L124.494 1.2069L125.203 0.184398L124.952 0.0103885H132.865V1.25415ZM106.927 1.25415H104.904L104.246 0.661271L104.034 0.895407H103.421L103.211 0.661271L102.551 1.25415H97.9674V0.0103885H105.868L106.927 1.25415ZM85.1474 1.25415H82.0091L81.3496 0.661271L81.1369 0.895407H80.5247L80.3142 0.661271L79.6547 1.25415H70.5618L69.9023 0.661271L69.6897 0.895407H69.0775L68.867 0.661271L68.2075 1.25415H59.1124L58.9964 1.15105L59.9588 0.0103885H80.7954V0.629044H84.9434V0.0103885H85.1474V1.25415ZM56.7581 1.25415H47.6651L47.0078 0.661271L46.7952 0.895407H46.1808L45.9703 0.661271L45.3108 1.25415H36.2157L35.5563 0.661271L35.3457 0.895407H34.7335L34.5209 0.661271L33.8614 1.25415H24.7689L24.1103 0.661271L23.8972 0.895407H23.2854L23.074 0.661271L22.4152 1.25415H13.3193L12.6607 0.661271L12.4493 0.895407H11.8375L11.6253 0.661271L10.9665 1.25415H10.5042H9.25142H1.87138L1.21277 0.661271L1.0014 0.895407H0.825901L0.3125 0.0103885H9.25142H10.5042H33.0494L32.7659 0.173647L33.3867 1.24985L35.5348 0.0103885H57.976L57.4218 0.667722L57.4154 0.661271L56.7581 1.25415Z" fill="#B8C6E3"/>
</svg>
