<svg width="6" height="22" viewBox="0 0 6 22" fill="none" xmlns="http://www.w3.org/2000/svg">
<path d="M5.44542 21.2183H4.81452L4.65255 20.4168L4.48715 19.5988H4.80528L4.76747 19.41H4.76662L4.6199 18.6899H4.62054L4.58123 18.5011H4.26568L3.98879 17.1311L3.80835 16.2372H4.12562L3.94002 15.326H3.94088L3.90329 15.1415H3.58774L3.1304 12.8776H3.44596L3.26208 11.9664H3.26294L3.22513 11.7816H2.90893L2.4516 9.51773H2.76716L2.73021 9.33322L2.58414 8.60909H2.585L2.54633 8.42199H2.23078L1.77366 6.1581H2.08814L1.90448 5.24923H1.9062L1.86581 5.06299H1.55197L1.0955 2.80082H1.40934L1.37239 2.61201H1.37153L1.22482 1.88787H1.22739L1.18787 1.70314H0.874032L0.546875 0.082819H0.858995H1.17777L5.44542 21.2183Z" fill="#415B91"/>
</svg>
