<svg width="52" height="134" viewBox="0 0 52 134" fill="none" xmlns="http://www.w3.org/2000/svg">
<path d="M46.4169 133.12L44.924 128.843C47.0356 126.925 48.3652 124.148 48.3652 121.056V14.7082C48.3652 8.92552 43.7081 4.23621 37.962 4.23621H34.104H34.1018H1.92962H1.92532H1.39904L0.144531 0.646731H7.77246H40.0585C46.4169 0.646731 51.5509 5.67331 51.5509 11.8813V123.755C51.5509 125.194 51.2717 126.571 50.7776 127.836C50.4017 128.784 49.8968 129.671 49.2825 130.474C48.492 131.505 47.5211 132.401 46.4234 133.114C46.4212 133.116 46.4191 133.118 46.4169 133.12V133.12ZM25.0089 1.52315C24.3773 1.52315 23.8661 2.03011 23.8661 2.65951C23.8661 3.2846 24.3773 3.79586 25.0089 3.79586C25.6318 3.79586 26.1431 3.2846 26.1431 2.65951C26.1431 2.03011 25.6318 1.52315 25.0089 1.52315ZM11.3168 1.90767C11.0054 1.90767 10.7476 2.16115 10.7476 2.47477C10.7476 2.78625 11.0054 3.04187 11.3168 3.04187H21.327C21.6385 3.04187 21.8941 2.78625 21.8941 2.47477C21.8941 2.16115 21.6385 1.90767 21.327 1.90767H11.3168Z" fill="#89A8DC"/>
</svg>
