<svg width="44" height="32" viewBox="0 0 44 32" fill="none" xmlns="http://www.w3.org/2000/svg">
<path d="M0.197266 8.08127C0.197266 6.64633 1.3596 5.48207 2.79604 5.48207C1.3596 5.48207 0.197266 4.31992 0.197266 2.88499C0.197266 1.4479 1.3596 0.285809 2.79604 0.285809H40.9099C42.3455 0.285809 43.5085 1.4479 43.5085 2.88499C43.5085 4.31992 42.3455 5.48207 40.9099 5.48207C42.3455 5.48207 43.5085 6.64633 43.5085 8.08127C43.5085 9.5162 42.3455 10.6805 40.9099 10.6805C42.3455 10.6805 43.5085 11.8426 43.5085 13.2775C43.5085 14.7146 42.3455 15.8768 40.9099 15.8768C42.3455 15.8768 43.5085 17.041 43.5085 18.476C43.5085 19.9109 42.3455 21.0752 40.9099 21.0752C42.3455 21.0752 43.5085 22.2395 43.5085 23.6744C43.5085 25.1093 42.3455 26.2736 40.9099 26.2736C42.3455 26.2736 43.5085 27.4357 43.5085 28.8706C43.5085 30.3077 42.3455 31.4698 40.9099 31.4698H2.79604C1.3596 31.4698 0.197266 30.3077 0.197266 28.8706C0.197266 27.4357 1.3596 26.2736 2.79604 26.2736C1.3596 26.2736 0.197266 25.1093 0.197266 23.6744C0.197266 22.2395 1.3596 21.0752 2.79604 21.0752C1.3596 21.0752 0.197266 19.9109 0.197266 18.476C0.197266 17.041 1.3596 15.8768 2.79604 15.8768C1.3596 15.8768 0.197266 14.7146 0.197266 13.2775C0.197266 11.8426 1.3596 10.6805 2.79604 10.6805C1.3596 10.6805 0.197266 9.5162 0.197266 8.08127Z" fill="#405A91"/>
</svg>
