<svg width="24" height="6" viewBox="0 0 24 6" fill="none" xmlns="http://www.w3.org/2000/svg">
<path d="M22.4953 5.8822H11.0751L12.9966 2.56981L13.1326 2.06286C13.1326 1.49576 12.6778 1.04036 12.109 1.04036C11.723 1.04036 11.3855 1.25732 11.2111 1.57739L8.7616 5.8822H7.55329C8.09805 5.4848 8.45119 4.84468 8.45119 4.12292C8.45119 2.93072 7.50131 1.96621 6.31899 1.94258C5.13839 1.96621 4.18613 2.93072 4.18613 4.12292C4.18613 4.84468 4.54014 5.4848 5.08468 5.8822H3.87809L1.42624 1.57739C1.25332 1.25732 0.913497 1.04036 0.527482 1.04036C0.473779 1.04036 0.420928 1.04467 0.368944 1.05111C0.520815 0.615048 0.935403 0.303577 1.42216 0.303577H3.35546V0.320752H9.69818V0.303577H22.4953C23.1103 0.303577 23.6089 0.799775 23.6089 1.41628V4.7652C23.6089 5.3817 23.1103 5.8822 22.4953 5.8822ZM1.56223 5.8822H1.42216C0.806946 5.8822 0.308594 5.3817 0.308594 4.7652V3.71907L1.56223 5.8822Z" fill="#EFEFED"/>
</svg>
