<svg width="6" height="23" viewBox="0 0 6 23" fill="none" xmlns="http://www.w3.org/2000/svg">
<path d="M0.826308 22.4841H0.183594L4.53007 0.964197H5.17386L5.17301 0.970634L4.8407 2.61588H4.51848L4.29271 3.73096H4.61493L4.15008 6.03609H3.82873L3.7892 6.22491H3.79005L3.64077 6.9615L3.60296 7.15031H3.92431L3.4586 9.45544H3.13724L3.09708 9.64663H3.09858L2.95015 10.3817H2.94928L2.91148 10.5731H3.23283L2.76713 12.8757H2.44491L2.25952 13.8036H2.25867L2.22172 13.9925H2.54243L2.12785 16.0441L2.07673 16.2974H1.75451L1.56805 17.2256L1.53046 17.4144H1.85096L1.38526 19.7193H1.06389L0.838134 20.8344H1.15948L0.990864 21.6694L0.826308 22.4841Z" fill="#E0C6A8"/>
</svg>
