<svg width="6" height="22" viewBox="0 0 6 22" fill="none" xmlns="http://www.w3.org/2000/svg">
<path d="M5.26839 21.2183H4.9529L0.684377 0.0828183H0.367188H0.999891L1.0024 0.0937791L1.32713 1.70314L1.3649 1.88788L1.5109 2.61201L1.54865 2.80082L1.54948 2.80233L2.00596 5.06299L2.04372 5.24923L2.18973 5.97335L2.22665 6.1581L2.6848 8.42199L2.72173 8.60909L2.86857 9.33322L2.90548 9.51773L3.36281 11.7816L3.39971 11.9664L3.54572 12.6905L3.58348 12.8776L4.04163 15.1415L4.07856 15.326L4.2254 16.0518L4.26233 16.2372L4.71964 18.5011L4.75822 18.6899L4.90339 19.41L4.94115 19.5988L5.26839 21.2183" fill="#415B91"/>
</svg>
