<svg width="15" height="26" viewBox="0 0 15 26" fill="none" xmlns="http://www.w3.org/2000/svg">
<path d="M8.72301 25.687C8.58811 25.687 8.45793 25.661 8.33871 25.6156C7.93766 25.4612 7.65239 25.0728 7.65239 24.617V18.4584V17.0621L7.31836 16.7635L6.98541 17.0621V19.1651V24.617C6.98541 25.0728 6.7025 25.4612 6.30316 25.6156C6.18394 25.661 6.05398 25.687 5.91887 25.687C5.78289 25.687 5.65272 25.661 5.53372 25.6156C5.13267 25.4612 4.84717 25.0728 4.84717 24.617C4.84717 24.617 4.84717 23.2937 4.84717 21.4292C4.84717 19.9105 4.84717 18.0309 4.84717 16.2136C4.84717 12.8368 4.84717 9.66401 4.84717 9.3869C4.84717 8.77469 4.61476 8.42025 4.61476 8.42025L2.5616 4.88233L1.30796 2.7192L0.640116 1.56994L0.505859 1.06299C0.505859 0.549591 0.87919 0.126423 1.36831 0.051239C1.4203 0.0447941 1.47315 0.0404873 1.52685 0.0404873C1.91287 0.0404873 2.25269 0.257446 2.42561 0.577515L4.87746 4.88233L5.61684 6.17764C5.67377 6.2786 5.70578 6.3452 5.76442 6.3452C5.80545 6.3452 5.85851 6.31298 5.94228 6.23994C6.15387 6.08528 6.56415 5.88764 7.31255 5.87475L7.31836 5.87905L7.32351 5.87475C8.07621 5.88764 8.4865 6.08528 8.6938 6.23994C8.77843 6.31298 8.83299 6.3452 8.87423 6.3452C8.93373 6.3452 8.96639 6.2786 9.02353 6.17764L9.76097 4.88233L12.2105 0.577515C12.3849 0.257446 12.7223 0.0404873 13.1084 0.0404873C13.6772 0.0404873 14.1319 0.495888 14.1319 1.06299L13.996 1.56994L12.0745 4.88233L10.0211 8.42025C10.0211 8.42025 9.79384 8.77469 9.79384 9.3869C9.79384 9.66401 9.79298 12.8368 9.79212 16.2136C9.7904 20.2671 9.78868 24.617 9.78868 24.617C9.78868 25.0728 9.50599 25.4612 9.10666 25.6156C8.98744 25.661 8.85812 25.687 8.72301 25.687Z" fill="#BABCBB"/>
</svg>
