<svg width="12" height="13" viewBox="0 0 12 13" fill="none" xmlns="http://www.w3.org/2000/svg">
<path d="M11.3208 7.13504L11.2972 7.21237C10.9578 8.51198 10.438 9.70849 9.60666 10.7224L9.14051 11.2164L8.8806 11.5022C7.55307 12.7223 5.94199 13.0874 4.20202 12.6965C3.63062 12.5676 3.11078 12.4108 2.64034 12.1767C2.40835 12.0736 2.19998 11.9447 1.99376 11.7878C1.42022 11.3711 0.954094 10.7997 0.64047 10.02C0.354772 9.2939 0.223724 8.38309 0.277427 7.2403C0.277427 6.77201 0.509426 6.09536 0.979862 5.44663C1.75962 4.3554 2.9282 3.73029 4.07099 3.13312C4.69609 2.82164 5.13644 2.48441 5.29325 1.7562V1.70465C5.52739 0.742299 6.59285 0.950657 6.92795 1.15902C7.03321 1.23635 7.24374 1.36738 7.37048 1.60152C8.04928 2.71853 7.6841 4.01816 6.51338 4.92681C5.99354 5.34139 5.44792 5.68078 4.92808 6.09537C4.51135 6.40684 4.30728 6.84936 4.30728 7.39498C4.3309 8.61725 5.11283 9.5001 6.2277 9.62899C6.41028 9.70847 6.64441 9.70847 6.87855 9.68269L7.34685 9.55166C8.15239 9.37122 8.72378 8.82347 9.2694 8.22845C9.73553 7.76016 10.206 7.26609 10.6979 6.82358L10.7752 6.77203C11.0373 6.64099 11.3208 6.84934 11.3208 7.13504Z" fill="#415B91"/>
</svg>
