<svg width="7" height="8" viewBox="0 0 7 8" fill="none" xmlns="http://www.w3.org/2000/svg">
<path d="M3.4133 7.216C2.68917 7.216 2.0196 6.96255 1.44219 6.42982L1.29118 6.26441L1.01946 5.97657C0.532694 5.38584 0.229813 4.68985 0.0326164 3.92942L0.0175781 3.88429L0.337211 3.67163L0.381684 3.70386C0.66953 3.95948 0.942977 4.24949 1.21493 4.5223C1.53113 4.86599 1.86259 5.1839 2.32679 5.29131C2.33001 5.29131 2.33344 5.29346 2.33666 5.29346L2.60948 5.36864L2.9897 5.33856C3.02063 5.33641 3.05092 5.33213 3.08099 5.32569C3.68353 5.21398 4.09639 4.71347 4.11057 4.03467C4.11057 3.7189 3.98986 3.45898 3.7482 3.27853C3.44445 3.0358 3.12631 2.83816 2.82257 2.59543C2.16654 2.08632 1.94399 1.36673 2.27802 0.733034H2.81678H3.5351V0.745909C3.6264 1.17123 3.8833 1.36671 4.24654 1.55145C4.91439 1.89944 5.59578 2.26248 6.05075 2.89832C6.32506 3.27853 6.46103 3.67163 6.46103 3.94444C6.49111 4.6125 6.41657 5.1431 6.24945 5.56627C6.06578 6.02382 5.79384 6.35461 5.46002 6.59735L5.08238 6.82506C4.80786 6.96254 4.50411 7.05062 4.1718 7.12795C3.91338 7.18595 3.66012 7.216 3.4133 7.216" fill="#B8C6E3"/>
</svg>
