<svg width="152" height="2" viewBox="0 0 152 2" fill="none" xmlns="http://www.w3.org/2000/svg">
<path d="M151.868 1.94336H149.878V1.64907H147.769V1.94336H133.203V1.64907H131.093V1.94336H116.967V0.699597H121.695L122.211 1.1636L122.331 1.02826H123.124L123.246 1.1636L123.76 0.699597H133.143L133.658 1.1636L133.778 1.02826H134.717V0.938034L134.919 1.1636L135.435 0.699597H144.818L145.331 1.1636L146.418 1.04544L146.036 0.699597H151.868V1.94336V1.94336ZM104.147 1.94336H100.042H99.4646H98.2337H86.4599V1.46004H84.4773V1.94336H29.5042H28.2514H14.6159L14.7343 0.703898H19.2294V1.02826H20.0921L20.2128 1.1636L20.7273 0.699597H28.2514H29.5042H30.1108L30.6253 1.1636L30.746 1.02826H31.54L31.6607 1.1636L32.1752 0.699597H41.5596L42.0741 1.1636L42.1939 1.02826H42.9885L43.1103 1.1636L43.6246 0.699597H53.0053L53.5209 1.1636L53.6412 1.02826H54.436L54.5563 1.1636L55.0718 0.699597H64.4548L64.9703 1.1636L65.0906 1.02826H65.8854L66.0078 1.1636L66.5212 0.699597H75.902L76.4154 1.1636L76.5379 1.02826H77.3326L77.453 1.1636L77.9685 0.699597H87.3514L87.867 1.1636L87.9872 1.02826H88.7821L88.9023 1.1636L89.4179 0.699597H98.7987L99.3142 1.1636L99.4345 1.02826H100.229L100.35 1.1636L100.863 0.699597H104.147V1.94336V1.94336ZM14.1502 1.94336H7.61458L7.49536 0.703898H14.2685L14.1502 1.94336ZM7.14715 1.94336H0.769854L0.419922 0.834929L0.662449 0.699597H1.50579V0.703898H7.02878L7.14715 1.94336" fill="#B8C6E3"/>
</svg>
