<svg width="28" height="79" viewBox="0 0 28 79" fill="none" xmlns="http://www.w3.org/2000/svg">
<path d="M20.4029 78.5472H15.2869L15.2835 76.5368H19.9187C19.9448 76.5368 19.9708 76.5343 19.9968 76.5343L20.4029 78.5472ZM14.285 78.5472H0.53125V76.5368H14.2775L14.285 78.5472ZM21.3503 78.5447L21.0087 76.8539H23.0922L23.0947 78.2721C22.5444 78.4289 21.9536 78.5253 21.3503 78.5447ZM24.0588 77.8961L24.0504 76.8539H25.639C25.1674 77.2711 24.6362 77.6233 24.0588 77.8961ZM26.6333 75.7588H24.0429L24.0363 74.9122C24.4792 74.5002 24.8603 74.0227 25.1657 73.4966H27.6771C27.4782 74.3215 27.119 75.0869 26.6333 75.7588ZM23.0907 75.7588H22.8799C22.9512 75.7203 23.0217 75.6776 23.0907 75.6338V75.7588ZM27.6554 72.4017H25.6624C25.8722 71.7807 25.9863 71.1169 25.9863 70.4246V70.137H27.1989L27.6554 72.4017ZM26.9772 69.0419H25.9863V66.5993H26.4847L26.6501 67.4173H26.6492L26.9772 69.0419ZM27.8558 68.6962L27.5974 67.4173L25.9863 59.4418V33.57C26.0677 34.1714 26.5141 34.629 27.0561 34.629C27.3733 34.629 27.6577 34.4722 27.8558 34.2209V44.1129V59.5876V67.0633V68.6962ZM26.2632 65.5016H25.9863V64.1315L26.2632 65.5016ZM25.9863 28.3222V25.3127C26.0677 25.9163 26.5141 26.3738 27.0561 26.3738C27.3733 26.3738 27.6577 26.217 27.8558 25.9657V27.6713C27.6577 27.4199 27.3733 27.2631 27.0561 27.2631C26.5141 27.2631 26.0677 27.7207 25.9863 28.3222ZM25.9863 20.0691V8.38557C25.9863 5.01305 23.2685 2.27637 19.9187 2.27637H13.6397L14.2506 0.18412H0.53125V0.179817H3.88431H21.1388C24.476 0.179817 27.2449 2.55348 27.7669 5.66609C27.8257 6.01408 27.8558 6.36852 27.8558 6.73154V11.1416C27.7946 11.1158 27.7267 11.1008 27.6554 11.1008C27.3658 11.1008 27.1141 11.3714 27.1141 11.7194V14.4647C27.1141 14.8127 27.3658 15.0834 27.6554 15.0834C27.7267 15.0834 27.7946 15.0683 27.8558 15.0426V19.4161C27.6577 19.1648 27.3733 19.008 27.0561 19.008C26.5141 19.008 26.0677 19.4655 25.9863 20.0691Z" fill="#B0B1B1"/>
</svg>
