<svg width="180" height="109" viewBox="0 0 180 109" fill="none" xmlns="http://www.w3.org/2000/svg">
<path d="M153.884 107.314V106.695H152.896C151.814 106.695 150.924 105.808 150.924 104.723V102.962H106.925C99.2258 102.962 92.9619 96.6976 92.9619 88.999V19.9352C92.9619 13.4222 87.6604 8.12064 81.1473 8.12064H28.9054V9.88208C28.9054 10.9669 28.0161 11.8541 26.9334 11.8541H25.9453V12.4706C25.9453 13.0119 25.5028 13.4565 24.9593 13.4565H1.54066C0.999338 13.4565 0.554688 13.0119 0.554688 12.4706V1.62262C0.554688 1.07915 0.999338 0.63665 1.54066 0.63665H24.9593C25.5028 0.63665 25.9453 1.07915 25.9453 1.62262V2.23913H26.9334C28.0161 2.23913 28.9054 3.12846 28.9054 4.2111V5.97254H81.1473C88.8461 5.97254 95.11 12.2364 95.11 19.9352V88.999C95.11 95.5146 100.409 100.814 106.925 100.814H150.924V99.0538C150.924 97.9697 151.814 97.0819 152.896 97.0819H153.884V96.466C153.884 95.9223 154.327 95.48 154.87 95.48H178.289C178.83 95.48 179.275 95.9223 179.275 96.466V107.314C179.275 107.853 178.83 108.3 178.289 108.3H154.87C154.327 108.3 153.884 107.853 153.884 107.314Z" fill="#415B91"/>
</svg>
