<svg width="47" height="5" viewBox="0 0 47 5" fill="none" xmlns="http://www.w3.org/2000/svg">
<path d="M46.019 4.02325H2.11817L0.880859 0.478879H44.3156C45.0932 1.52286 45.6732 2.7215 46.019 4.02325V4.02325ZM37.6285 1.20494V3.08668H41.6455V2.58188H41.9462V1.70762H41.6455V1.20494H37.6285V1.20494ZM17.6726 1.32095C17.3526 1.32095 17.1356 1.61953 17.1356 2.15011C17.1356 2.6764 17.3526 2.9664 17.649 2.9664C17.997 2.9664 18.1903 2.66566 18.1903 2.12864C18.1903 1.61954 18.0077 1.32095 17.6726 1.32095V1.32095ZM15.5847 2.66566L15.4343 2.81602L15.5739 2.9664L15.7243 2.81602L15.5847 2.66566ZM14.4977 1.32095C14.1841 1.32095 13.9478 1.61953 13.9478 2.15011C13.9585 2.6764 14.1626 2.9664 14.4719 2.9664C14.8178 2.9664 15.0133 2.66566 15.0133 2.12864C15.0133 1.61954 14.8307 1.32095 14.4977 1.32095V1.32095ZM16.4461 1.51213C16.6802 1.51213 16.7554 1.66464 16.7554 1.8279C16.7468 2.06204 16.575 2.279 16.1754 2.65706L16.0036 2.82892V2.9449H17.0067V2.77307H16.2957L16.4224 2.65706C16.7554 2.33055 16.9638 2.08566 16.9638 1.79137C16.9638 1.57871 16.822 1.34242 16.4869 1.34242L16.0487 1.50353L16.111 1.64101L16.4461 1.51213V1.51213ZM13.3979 1.54863H13.4108V2.93633H13.602V1.35102H13.4301L13.0821 1.53576L13.1272 1.69471L13.3979 1.54863V1.54863ZM15.5847 1.79137L15.4343 1.95463L15.5739 2.09856L15.7243 1.95463L15.5847 1.79137ZM17.6619 2.79669C17.4686 2.79669 17.3526 2.57114 17.3526 2.15011C17.3526 1.71619 17.4793 1.49066 17.6619 1.49066C17.8788 1.49066 17.9841 1.7527 17.9841 2.13936C17.9841 2.53461 17.8788 2.79669 17.6619 2.79669ZM14.4848 2.79669C14.2915 2.79669 14.1626 2.57114 14.1626 2.15011C14.1626 1.71619 14.3044 1.49066 14.4848 1.49066C14.7104 1.49066 14.8092 1.7527 14.8092 2.13936C14.8092 2.53461 14.6996 2.79669 14.4848 2.79669Z" fill="#DFDFDE"/>
</svg>
