<svg width="289" height="176" viewBox="0 0 289 176" fill="none" xmlns="http://www.w3.org/2000/svg">
<path d="M288.503 15.4036V175.412H0.757813V15.4036C0.757813 15.1952 0.757797 14.9847 0.768537 14.7871C0.781426 14.5766 0.794324 14.3682 0.805065 14.1684C0.828694 13.9601 0.841587 13.7625 0.863068 13.5648C0.918918 13.1567 0.979049 12.7614 1.06068 12.364C1.17667 11.784 1.32919 11.2019 1.51392 10.6434L1.71156 10.0827L1.92207 9.53713C2.37532 8.45449 2.9596 7.44058 3.6341 6.49756C4.08735 5.86817 4.58788 5.28817 5.1249 4.72752C6.74243 3.08637 8.73373 1.80609 10.9592 1.03707C11.5499 0.828701 12.1557 0.641821 12.7743 0.502194C13.1803 0.420566 13.597 0.33892 14.0202 0.280921C14.4133 0.233663 14.8107 0.188567 15.2038 0.175678C15.4509 0.164938 15.6957 0.152054 15.9406 0.152054H273.23C274.289 0.152054 275.335 0.257289 276.336 0.467803C276.826 0.560172 277.303 0.68909 277.782 0.839458C278.012 0.908197 278.257 0.99196 278.491 1.07359C280.132 1.66646 281.633 2.54074 282.948 3.63413C283.335 3.9499 283.696 4.27428 284.031 4.62443C286.791 7.37185 288.503 11.1912 288.503 15.4036Z" fill="#E1E2E1"/>
</svg>
