<svg width="24" height="45" viewBox="0 0 24 45" fill="none" xmlns="http://www.w3.org/2000/svg">
<path d="M23.2535 2.73597C23.3974 2.48035 23.4855 2.18175 23.4855 1.86598C23.4855 0.895039 22.7057 0.115269 21.7348 0.115269C21.0732 0.115269 20.491 0.486897 20.1946 1.03466C20.0764 1.23874 14.8909 10.3489 14.7255 10.6367C14.5579 10.931 14.515 11.0449 14.1648 10.742C13.804 10.4799 13.0994 10.1426 11.817 10.1169L11.8062 10.1233L11.7955 10.1169C10.5088 10.1426 9.80632 10.4799 9.44974 10.742C9.0953 11.0449 9.05019 10.931 8.88479 10.6367C8.72368 10.3489 3.53601 1.23874 3.42002 1.03466C3.12143 0.486897 2.54358 0.115269 1.87982 0.115269C0.906723 0.115269 0.126953 0.895039 0.126953 1.86598C0.126953 2.18175 0.210746 2.48035 0.358965 2.73597L7.17275 14.4797C7.17275 14.4797 7.5637 15.0876 7.5637 16.138C7.5637 17.1841 7.5723 42.244 7.5723 42.244C7.5723 43.2579 8.38858 44.0806 9.39819 44.0806C10.4099 44.0806 11.2348 43.2622 11.2348 42.244V29.2973C11.2348 28.988 11.5227 28.7968 11.8062 28.7839C12.0855 28.7968 12.3776 28.988 12.3776 29.2973V42.244C12.3776 43.2622 13.1939 44.0806 14.2078 44.0806C15.2196 44.0806 16.0423 43.2579 16.0423 42.244C16.0423 42.244 16.0423 17.1841 16.0423 16.138C16.0423 15.0876 16.4418 14.4797 16.4418 14.4797L23.2535 2.73597Z" fill="#81B0FF"/>
</svg>
