<svg width="184" height="39" viewBox="0 0 184 39" fill="none" xmlns="http://www.w3.org/2000/svg">
<path d="M8.36359 19.7698C8.36359 13.6341 13.3496 8.64664 19.4826 8.64664H164.744C170.874 8.64664 175.867 13.63 175.867 19.7588C175.867 25.8918 170.874 30.8879 164.744 30.8879H19.4826C13.3496 30.8879 8.36359 25.8936 8.36359 19.7698ZM0.269531 19.7698C0.269531 30.3769 8.87205 38.98 19.4826 38.98H92.8059H121.196H164.744C175.355 38.98 183.956 30.3743 183.956 19.7588C183.956 9.15338 175.355 0.555149 164.744 0.555149H126.925H98.5338H19.4826C8.87205 0.555149 0.269531 9.15596 0.269531 19.7698Z" fill="#B6D0FB"/>
</svg>
