<svg width="18" height="32" viewBox="0 0 18 32" fill="none" xmlns="http://www.w3.org/2000/svg">
<path d="M17.2145 2.78612C17.3133 2.60568 17.3799 2.39732 17.3799 2.17392C17.3799 1.49511 16.8322 0.945179 16.1469 0.945179C15.6851 0.945179 15.2748 1.20295 15.0664 1.58961C14.9826 1.73353 11.3416 8.13275 11.2234 8.33897C11.1096 8.54304 11.0774 8.62036 10.8303 8.40985C10.5812 8.22726 10.0828 7.98884 9.18271 7.97165L9.17411 7.97593L9.16556 7.97165C8.26121 7.98884 7.76926 8.22726 7.52008 8.40985C7.27305 8.62036 7.24086 8.54304 7.12486 8.33897C7.00672 8.13275 3.3678 1.73353 3.28617 1.58961C3.07566 1.20295 2.66965 0.945179 2.20137 0.945179C1.52042 0.945179 0.972656 1.49511 0.972656 2.17392C0.972656 2.39732 1.02851 2.60568 1.13591 2.78612L5.91975 11.0327C5.91975 11.0327 6.19472 11.4623 6.19472 12.1991C6.19472 12.9359 6.19902 30.5354 6.19902 30.5354C6.19902 31.2485 6.77471 31.8242 7.48573 31.8242C8.1946 31.8242 8.77674 31.2502 8.77674 30.5354V21.4424C8.77674 21.2255 8.97434 21.088 9.17411 21.0815C9.37174 21.088 9.57583 21.2255 9.57583 21.4424V30.5354C9.57583 31.2502 10.1494 31.8242 10.8604 31.8242C11.5714 31.8242 12.1514 31.2485 12.1514 30.5354C12.1514 30.5354 12.1514 12.9359 12.1514 12.1991C12.1514 11.4623 12.4307 11.0327 12.4307 11.0327L17.2145 2.78612Z" fill="#81B0FF"/>
</svg>
