<svg width="29" height="29" viewBox="0 0 29 29" fill="none" xmlns="http://www.w3.org/2000/svg">
<path d="M10.483 14.9571C10.483 16.3168 9.37886 17.4188 8.01911 17.4188C6.65721 17.4188 5.55739 16.3168 5.55739 14.9571C5.55739 13.5952 6.65721 12.4932 8.01911 12.4932C9.37886 12.4932 10.483 13.5952 10.483 14.9571ZM14.0746 11.3654C12.7127 11.3654 11.6107 10.2592 11.6107 8.89941C11.6107 7.53966 12.7127 6.43339 14.0746 6.43339C15.4365 6.43339 16.5385 7.53966 16.5385 8.89941C16.5385 10.2592 15.4365 11.3654 14.0746 11.3654ZM14.0746 18.5487C15.4365 18.5487 16.5385 19.6528 16.5385 21.0126C16.5385 22.3745 15.4365 23.4786 14.0746 23.4786C12.7127 23.4786 11.6107 22.3745 11.6107 21.0126C11.6107 19.6528 12.7127 18.5487 14.0746 18.5487ZM13.2111 14.3685C13.5225 13.8379 14.2014 13.6618 14.7319 13.9732C15.2625 14.2826 15.4408 14.9635 15.1315 15.4941C14.82 16.0247 14.1391 16.203 13.6085 15.8915C13.0779 15.5822 12.8996 14.8991 13.2111 14.3685ZM20.1344 17.4188C18.7725 17.4188 17.6705 16.3168 17.6705 14.9571C17.6705 13.5952 18.7725 12.4932 20.1344 12.4932C21.492 12.4932 22.5962 13.5952 22.5962 14.9571C22.5962 16.3168 21.492 17.4188 20.1344 17.4188ZM26.8 15.4877L26.8129 14.9291L26.8 14.3728C27.5733 14.246 28.0459 13.9131 28.0459 13.9131L28.0094 13.477L28.0051 13.4663V13.4555L27.9514 13.0259C27.9514 13.0259 27.4208 12.8047 26.641 12.8347C26.5809 12.4674 26.5036 12.1022 26.4134 11.7457C27.133 11.4621 27.5282 11.0389 27.5282 11.0389L27.3993 10.6222H27.4036L27.3993 10.6136V10.6028L27.2533 10.1926C27.2533 10.1926 26.6861 10.083 25.9364 10.2785C25.799 9.93266 25.6443 9.59324 25.4789 9.26028C26.1298 8.83066 26.4262 8.33661 26.4262 8.33661L26.2179 7.95209L26.2136 7.94564L26.2071 7.93492L25.9816 7.56545C25.9816 7.56545 25.4059 7.57402 24.7077 7.92201C24.5015 7.61269 24.2824 7.31196 24.0505 7.01982C24.6004 6.46776 24.7872 5.91999 24.7872 5.91999L24.5037 5.59132L24.4972 5.5806L24.4908 5.5763L24.1922 5.25838C24.1922 5.25838 23.6294 5.38942 23.0172 5.87489C22.753 5.61497 22.4759 5.36577 22.1902 5.12948C22.6112 4.47215 22.6799 3.89861 22.6799 3.89861L22.3341 3.63655L22.3277 3.62795L22.3169 3.6215L21.9581 3.37664C21.9581 3.37664 21.4383 3.61936 20.9421 4.22083C20.6306 4.02106 20.3084 3.83632 19.9754 3.66233C20.2504 2.93412 20.201 2.36056 20.201 2.36056L19.8058 2.17583L19.795 2.17153L19.7907 2.16511L19.3869 1.99755C19.3869 1.99755 18.9251 2.34553 18.5685 3.03507C18.2205 2.90404 17.866 2.78805 17.5073 2.69138C17.6233 1.92021 17.4536 1.37029 17.4536 1.37029L17.0283 1.26933L17.0175 1.26719H17.0133L16.5815 1.1834C16.5815 1.1834 16.2055 1.61948 15.9972 2.37132C15.6341 2.31761 15.2625 2.27679 14.8887 2.25531C14.8436 1.47555 14.5622 0.972895 14.5622 0.972895L14.1283 0.962172H14.1176H14.109L13.6708 0.972895C13.6708 0.972895 13.3894 1.47555 13.3443 2.25531C12.8975 2.28323 12.455 2.3348 12.0211 2.40354C11.8084 1.64956 11.4174 1.21133 11.4174 1.21133L10.9943 1.29941L10.9835 1.30156H10.9728L10.5496 1.40897C10.5496 1.40897 10.3863 1.97177 10.5152 2.75153C10.1586 2.85464 9.81278 2.97709 9.46908 3.10813C9.10176 2.40784 8.62274 2.0577 8.62274 2.0577L8.22747 2.23383V2.23168L8.21672 2.23813L8.20602 2.24028L7.81505 2.43147C7.81505 2.43147 7.77207 3.02219 8.06636 3.76328C7.742 3.93943 7.4284 4.13062 7.12122 4.33254C6.61426 3.71173 6.06646 3.46469 6.06646 3.46469L5.71205 3.71818L5.7056 3.72678L5.69484 3.72891V3.73321L5.35548 3.99957C5.35548 3.99957 5.43281 4.59245 5.88606 5.26266C5.60465 5.5011 5.33614 5.75028 5.07837 6.01449C4.44682 5.50539 3.86035 5.37651 3.86035 5.37651L3.56179 5.69658L3.55534 5.70303L3.55319 5.71378L3.27177 6.04242C3.27177 6.04242 3.47588 6.61812 4.06017 7.17878C3.83676 7.46877 3.62626 7.76522 3.42863 8.07455C2.70472 7.70722 2.09247 7.7029 2.09247 7.7029L1.87336 8.0767L1.87126 8.08527L1.86266 8.09602L1.65855 8.48054C1.65855 8.48054 1.97866 8.99607 2.6725 9.42569C2.51569 9.7522 2.36961 10.0895 2.24073 10.4332C1.45237 10.2226 0.855156 10.3451 0.855156 10.3451L0.71555 10.7575L0.711249 10.7683L0.709099 10.7769L0.588793 11.1957C0.588793 11.1957 1.01198 11.6383 1.781 11.9132C1.69723 12.2655 1.62204 12.6242 1.56834 12.9851C0.752061 12.94 0.189274 13.187 0.189274 13.187L0.139872 13.6209H0.137722V13.6317V13.6403L0.105469 14.0763C0.105469 14.0763 0.614601 14.4222 1.42659 14.5274L1.42013 14.9291C1.42013 15.159 1.4266 15.391 1.43949 15.6208C0.629651 15.7476 0.131271 16.1084 0.131271 16.1084L0.172073 16.5381L0.174223 16.5488V16.5596L0.234376 16.9892C0.234376 16.9892 0.799315 17.2233 1.61774 17.1632C1.68004 17.5241 1.75954 17.8763 1.85406 18.2286C1.08718 18.5229 0.679049 18.9719 0.679049 18.9719L0.810054 19.3886L0.812204 19.3994L0.816504 19.4058L0.962561 19.8161C0.962561 19.8161 1.56192 19.9278 2.34598 19.6979C2.48346 20.0373 2.6338 20.3639 2.79705 20.6882C2.11395 21.1286 1.80465 21.6506 1.80465 21.6506L2.01731 22.0308L2.02377 22.0415L2.02592 22.0458L2.25572 22.4174C2.25572 22.4174 2.86583 22.4046 3.58759 22.0243C3.78951 22.3272 4.00642 22.6172 4.23627 22.9008C3.65628 23.4764 3.45869 24.0564 3.45869 24.0564L3.74655 24.383L3.75295 24.3894L3.7594 24.4002V24.3959L4.06017 24.7159C4.06017 24.7159 4.65733 24.5741 5.28242 24.0457C5.54664 24.2992 5.81731 24.5441 6.09872 24.7739C5.64976 25.4549 5.57884 26.0671 5.57884 26.0671L5.92471 26.327L5.93546 26.3335L5.94191 26.3377L6.30278 26.5848C6.30278 26.5848 6.85482 26.3248 7.35748 25.6783C7.66466 25.8737 7.98046 26.0542 8.30698 26.2196C8.01268 26.98 8.06851 27.5901 8.06851 27.5901L8.46378 27.7727L8.47238 27.7748L8.48093 27.7813H8.48308L8.88265 27.9467C8.88265 27.9467 9.36811 27.5794 9.72469 26.8469C10.0684 26.9693 10.4164 27.081 10.7687 27.1776C10.6398 27.9832 10.8202 28.5632 10.8202 28.5632L11.2434 28.662L11.2542 28.6641H11.2649L11.6902 28.7436C11.6902 28.7436 12.0898 28.2839 12.2853 27.4956C12.6462 27.545 13.0091 27.5836 13.3765 27.6051C13.4173 28.4149 13.7137 28.9434 13.7137 28.9434L14.152 28.9498H14.1606H14.167L14.6052 28.937C14.6052 28.937 14.8952 28.4064 14.9274 27.5965C15.2969 27.5751 15.6621 27.5385 16.0208 27.4848C16.227 28.2624 16.6266 28.7135 16.6266 28.7135L17.0519 28.6298L17.0627 28.6276H17.0734L17.4923 28.5224C17.4923 28.5224 17.6663 27.9531 17.5331 27.1605C17.8918 27.0595 18.2376 26.9478 18.5813 26.8168C18.9465 27.5278 19.4234 27.8822 19.4234 27.8822L19.8229 27.7125L19.8337 27.7082L19.8444 27.7039L20.2354 27.5149C20.2354 27.5149 20.2848 26.9285 19.9927 26.1852C20.3213 26.0155 20.6414 25.8286 20.9528 25.631C21.4534 26.2432 21.9904 26.4903 21.9904 26.4903L22.3448 26.2411L22.3534 26.2346L22.3599 26.226L22.7079 25.964C22.7079 25.964 22.6305 25.3818 22.2009 24.7224C22.4823 24.4839 22.7573 24.2369 23.0237 23.977C23.6402 24.4624 24.2094 24.5935 24.2094 24.5935L24.5037 24.2734L24.5101 24.267L24.5166 24.2605L24.8023 23.9297C24.8023 23.9297 24.6068 23.3841 24.0569 22.8277C24.2867 22.542 24.5037 22.2434 24.7077 21.9341C25.4059 22.2842 25.9816 22.295 25.9816 22.295L26.2071 21.9212L26.2136 21.9126L26.2179 21.9041L26.4262 21.5217C26.4262 21.5217 26.1298 21.0298 25.4789 20.598C25.6443 20.2672 25.799 19.9278 25.9364 19.5798C26.6861 19.7774 27.2533 19.6657 27.2533 19.6657L27.3993 19.2533V19.2469L27.4036 19.2361H27.3993L27.5282 18.8194C27.5282 18.8194 27.133 18.3983 26.4134 18.1105C26.5036 17.7539 26.5809 17.3909 26.641 17.0235C27.4208 17.0558 27.9514 16.8302 27.9514 16.8302L28.0051 16.3985V16.3899L28.0094 16.3791L28.0459 15.9452C28.0459 15.9452 27.5733 15.6123 26.8 15.4877Z" fill="#415B91"/>
</svg>
