<svg width="78" height="85" viewBox="0 0 78 85" fill="none" xmlns="http://www.w3.org/2000/svg">
<path d="M77.6188 84.2448H70.1406V72.8834C70.1406 72.5655 70.3999 72.3099 70.7155 72.3099H71.0746V71.732C71.0746 71.1005 71.594 70.5807 72.2258 70.5807H73.2513V69.4593L74.5067 70.0909L74.5075 70.5807H75.4782L76.4861 71.0876C76.6118 71.2723 76.6857 71.4936 76.6857 71.732V72.3099H77.0457C77.3613 72.3099 77.6188 72.5655 77.6188 72.8834V84.2448ZM74.5067 69.6699L73.2513 69.0383V23.9431H74.5041V65.4402L74.5067 69.6699ZM7.96476 40.8101H0.488281V30.6108C0.488281 30.2951 0.746906 30.0351 1.06311 30.0351H1.42313V29.4594C1.42313 28.8279 1.93911 28.3102 2.57344 28.3102H3.59981V8.2598C3.59981 3.7681 7.25417 0.116318 11.745 0.116318H66.3597C70.8506 0.116318 74.5041 3.7681 74.5041 8.2598V12.0104H73.2513V8.2598C73.2513 4.4598 70.1591 1.36653 66.3597 1.36653H11.745C7.94458 1.36653 4.85259 4.4598 4.85259 8.2598V28.3102H5.87959C6.51307 28.3102 7.03076 28.8279 7.03076 29.4594V30.0351H7.38993C7.7072 30.0351 7.96476 30.2951 7.96476 30.6108V40.8101ZM74.5041 22.6994H73.2513V21.0238L74.5041 22.1516V22.6994ZM74.5041 21.0367L73.2513 19.909V15.9156L74.5041 14.7879V21.0367ZM73.2513 14.8008V13.2541H74.5041V13.673L73.2513 14.8008Z" fill="#C2C3C2"/>
</svg>
