<svg width="25" height="36" viewBox="0 0 25 36" fill="none" xmlns="http://www.w3.org/2000/svg">
<path d="M22.6283 10.9476L17.5781 10.1932L14.1217 1.98762C13.8468 1.3391 13.2152 0.958889 12.5579 0.975647C11.3056 0.975647 5.57228 0.935486 5.57228 0.935486C4.50897 0.935486 3.64544 1.79881 3.64544 2.86448L3.60891 24.1047L0.47483 32.2953C0.045209 33.4172 0.603709 34.6732 1.72932 35.1028C1.98494 35.1978 2.24701 35.2489 2.50263 35.2489C3.37906 35.2489 4.20177 34.7162 4.53473 33.8509L7.81274 25.2929C7.90726 25.0454 7.95667 24.7812 7.95667 24.5219L7.9717 19.3763H9.43457L11.4473 23.7935V33.0731C11.4473 34.2739 12.4161 35.2472 13.6191 35.2472C14.8199 35.2472 15.793 34.2739 15.793 33.0731V23.3211C15.793 23.0131 15.7285 22.7044 15.5996 22.4223L14.0917 19.1121V10.4559L14.8843 12.3372C15.1099 12.8725 15.5932 13.2484 16.1689 13.3365L22.1385 14.2252L22.3855 14.2454C23.1932 14.2454 23.8999 13.6495 24.0202 12.8289C24.1555 11.9252 23.5305 11.0853 22.6283 10.9476Z" fill="#81B0FF"/>
</svg>
