<svg width="14" height="46" viewBox="0 0 14 46" fill="none" xmlns="http://www.w3.org/2000/svg">
<path d="M0.53125 45.2129V37.8086L0.658794 37.8406H0.664668L0.670541 37.8429L0.919754 37.89C0.919754 37.89 1.15219 37.6258 1.27302 37.1725C1.48279 37.2069 1.69593 37.2262 1.91074 37.2391C1.9292 37.7121 2.09786 38.0208 2.09786 38.0208L2.35462 38.0277H2.35714H2.36385L2.6181 38.0234C2.6181 38.0234 2.62817 38.0084 2.64244 37.9755L0.53125 45.2129ZM2.79348 37.4604C2.80354 37.3916 2.8111 37.3207 2.81445 37.2434C2.82871 37.2434 2.84298 37.2413 2.85724 37.2413L2.79348 37.4604ZM2.40749 34.8354C1.61369 34.8354 0.970942 34.1931 0.970942 33.3962C0.970942 32.6035 1.61369 31.9612 2.40749 31.9612C3.20296 31.9612 3.84571 32.6035 3.84571 33.3962C3.84571 34.1931 3.20296 34.8354 2.40749 34.8354ZM4.76706 30.6938C4.6009 30.4597 4.50357 30.174 4.50357 29.8647C4.50357 29.2632 4.87277 28.7498 5.39637 28.535L4.76706 30.6938ZM2.35294 30.5005C2.12974 30.5005 1.91325 30.3867 1.79242 30.1783C1.61034 29.869 1.71523 29.4737 2.02486 29.2911C2.12806 29.231 2.24134 29.2009 2.35294 29.2009C2.57531 29.2009 2.79095 29.3169 2.91262 29.521C3.09304 29.8325 2.98982 30.2298 2.68019 30.4124C2.57699 30.4726 2.46455 30.5005 2.35294 30.5005ZM2.40749 27.7703C1.61369 27.7703 0.970942 27.1237 0.970942 26.331C0.970942 25.5384 1.61369 24.8918 2.40749 24.8918C3.20296 24.8918 3.84571 25.5384 3.84571 26.331C3.84571 27.1237 3.20296 27.7703 2.40749 27.7703ZM6.46372 23.6674L5.91327 23.3366C6.08529 22.9027 6.05843 22.559 6.05843 22.559L5.83104 22.4473H5.82515L5.81929 22.443L5.5877 22.342C5.5877 22.342 5.30911 22.5439 5.09514 22.9542C4.89459 22.8769 4.69237 22.806 4.48426 22.7437C4.55979 22.2904 4.46497 21.9639 4.46497 21.9639L4.21744 21.9016H4.21156L4.20569 21.8995L3.95814 21.8458C3.95814 21.8458 3.73075 22.1014 3.60573 22.5418C3.35231 22.501 3.09555 22.4709 2.8346 22.4537C2.80691 22.0026 2.64327 21.7083 2.64327 21.7083L2.38819 21.7019H2.38399H2.37728L2.12303 21.7083C2.12303 21.7083 1.95941 22.0026 1.93255 22.4537C1.71523 22.4687 1.4979 22.4924 1.28644 22.5246C1.16561 22.0864 0.945768 21.8286 0.945768 21.8286L0.694036 21.8801H0.69068H0.683967L0.53125 21.9167V4.82848H12.3123L10.7641 10.1365L10.6618 10.145H10.6424L10.41 10.1644C10.41 10.1644 10.2942 10.4544 10.3135 10.8797C10.1012 10.899 9.90739 10.957 9.7144 10.9957C9.56002 10.6091 9.34688 10.3964 9.34688 10.3964L9.11527 10.4737L8.88285 10.551C8.88285 10.551 8.82496 10.8411 8.94074 11.2664L8.38024 11.4984C8.14863 11.1504 7.8776 10.9957 7.8776 10.9957L7.68461 11.1117H7.6653L7.47148 11.2277C7.47148 11.2277 7.47148 11.537 7.6653 11.9237L7.18198 12.2717C6.87235 11.9817 6.58287 11.8657 6.58287 11.8657L6.40834 12.0203V12.0397L6.23464 12.1943C6.23464 12.1943 6.29253 12.5037 6.56272 12.8323L6.15744 13.277C5.80921 13.045 5.49958 13.0063 5.49958 13.0063L5.36449 13.1997H5.3452L5.2101 13.393C5.2101 13.393 5.3452 13.683 5.67412 13.9536L5.36449 14.4563C5.0641 14.3511 4.80985 14.3403 4.71166 14.3403C4.68397 14.3403 4.66887 14.3403 4.66887 14.3403L4.57154 14.553V14.5723L4.47504 14.785C4.47504 14.785 4.66887 15.0363 5.03557 15.2296C4.95837 15.4036 4.90045 15.5969 4.84256 15.7903C4.74858 15.7774 4.65965 15.7709 4.5791 15.7709C4.30973 15.7709 4.12681 15.829 4.12681 15.829L4.08821 16.0609L4.03032 16.2929C4.03032 16.2929 4.26275 16.5056 4.66887 16.6023C4.64874 16.7956 4.62943 17.0082 4.61098 17.2016C4.18554 17.2402 3.91452 17.3756 3.91452 17.3756V17.6076V17.6269V17.8589C3.91452 17.8589 4.20485 18.0136 4.61098 18.0329L4.62943 18.3422L4.66887 18.6322C4.28204 18.7482 4.03032 18.9416 4.03032 18.9416L4.08821 19.1735V19.1929L4.12681 19.4249C4.12681 19.4249 4.29044 19.4657 4.53629 19.4657C4.62859 19.4657 4.73181 19.4592 4.84256 19.4442L5.03557 20.0242C4.66887 20.2175 4.47504 20.4495 4.47504 20.4495L4.57154 20.6815L4.66887 20.8942C4.66887 20.8942 4.70244 20.8985 4.76285 20.8985C4.88284 20.8985 5.10689 20.8813 5.36449 20.7782L5.67412 21.3002C5.3452 21.5515 5.2101 21.8415 5.2101 21.8415L5.3452 22.0348H5.36449L5.49958 22.2281C5.49958 22.2281 5.80921 22.1895 6.15744 21.9768L6.56272 22.4022C6.29253 22.7308 6.21533 23.0401 6.21533 23.0401L6.38903 23.1948V23.2141H6.40834L6.58287 23.3688C6.58287 23.3688 6.75236 23.3 6.97054 23.1389L6.94115 23.2399C6.82118 23.3172 6.63825 23.4547 6.46372 23.6674ZM7.7207 20.5677C7.21723 20.4517 6.90425 19.9254 6.69866 18.0716C6.40834 15.4809 6.89166 15.3843 7.85831 15.2683C7.88432 15.2661 7.91118 15.264 7.93719 15.264C8.33072 15.264 8.73014 15.5583 9.06494 15.96L7.7207 20.5677ZM12.9156 2.75986H0.53125V0.276657H13.6397L12.9156 2.75986ZM4.20485 0.362587C3.83731 0.362587 3.52769 0.671902 3.52769 1.01989C3.52769 1.38722 3.83731 1.69655 4.20485 1.69655C4.57154 1.69655 4.86187 1.38722 4.86187 1.01989C4.86187 0.671902 4.57154 0.362587 4.20485 0.362587ZM6.35043 0.594574L6.02151 0.923241L6.35043 1.25188H12.1889L12.5179 0.923241L12.1889 0.594574H6.35043Z" fill="#FBFCFC"/>
</svg>
