<svg width="10" height="30" viewBox="0 0 10 30" fill="none" xmlns="http://www.w3.org/2000/svg">
<path d="M1.28479 29.5365H0.278708L0.248506 21.221V20.8835L0.223331 20.4195H0.235918L0.0613843 0.136654L1.05321 5.04809V5.06484H1.05656L1.27723 6.15652H1.06494L1.08928 8.42448H1.73538L1.95524 9.51122H1.09851L1.12536 11.7861H2.41423L2.63406 12.8751H1.13206L1.15724 15.1442H3.09221L3.31291 16.235H1.16815L1.19249 18.5055H3.77106L3.99089 19.5923H1.20089L1.22018 20.8904L1.24368 22.0349H4.48345L4.70415 23.1266H1.2764L1.27975 25.5859H5.20004L5.38381 26.4963H1.28061L1.28479 29.5365ZM9.99391 22.0415H5.43332L5.43165 22.0349H9.04229L9.0163 21.2167L9.0105 20.8962L8.99117 20.4212H9.00041L8.97355 19.5989H9.95438L9.98553 20.8962L9.99391 22.0415ZM9.92925 18.5012H8.95766L8.90546 16.2374H9.87554L9.92925 18.5012ZM9.85041 15.1416H8.87775L8.82834 12.8777H9.79671L9.85041 15.1416ZM9.77072 11.7818H8.79977L8.75874 9.51786H9.71787L9.77072 11.7818ZM9.69188 8.42212H8.73189L8.68055 6.15824H9.63882L9.69188 8.42212ZM9.55075 5.06313H8.65306L8.60172 2.80246H1.54826L1.54742 2.80095H9.09428L9.55075 5.06313ZM1.00118 0.0939121L0.998668 0.0829525H0.365964H0.0605469H1.00118V0.0939121Z" fill="#E5E6E3"/>
</svg>
