<svg width="165" height="104" viewBox="0 0 165 104" fill="none" xmlns="http://www.w3.org/2000/svg">
<path d="M120.322 103.047H73.6425V96.1943H120.322V103.047ZM72.3888 103.047H31.2047L30.2011 96.1943H72.3888V103.047ZM3.88432 75.1794H0.53125V2.53901C0.78382 2.34998 1.0473 2.17814 1.32001 2.01703C1.77061 1.75496 2.24722 1.53154 2.74397 1.34895L2.84046 1.3146L3.15765 1.20934C3.21303 1.19215 3.26841 1.1771 3.32295 1.16206C3.55202 1.09977 3.77775 1.04823 4.00933 0.996681C4.25602 0.942978 4.5086 0.902145 4.7662 0.869926C5.11024 0.829109 5.46266 0.809799 5.81426 0.809799H144.369C144.537 0.915054 144.733 0.981636 144.945 0.990227H144.987C145.214 0.990227 145.426 0.923645 145.605 0.809799H148.577C148.757 0.923645 148.97 0.990227 149.194 0.990227L149.343 0.979477C149.516 0.955849 149.675 0.895721 149.813 0.809799H155.858H155.907H155.913L156.319 0.820518H156.333C156.372 0.82267 156.412 0.826973 156.453 0.829124C156.499 0.83342 156.546 0.835548 156.593 0.839844C156.737 0.852737 156.882 0.86779 157.023 0.884972C157.222 0.915047 157.415 0.953705 157.606 0.985931C157.654 0.994522 157.702 1.00311 157.75 1.00956C158.686 1.21148 159.565 1.56162 160.361 2.03206C160.566 2.1545 160.766 2.2834 160.959 2.42088C161.131 2.54117 161.298 2.66788 161.46 2.80107H161.466H161.471C161.518 2.84188 161.564 2.88056 161.611 2.92138C161.683 2.98367 161.755 3.04597 161.825 3.10826C161.96 3.22855 162.09 3.35099 162.21 3.47558C162.211 3.47772 162.211 3.47773 162.211 3.47773C162.211 3.47773 162.213 3.47988 162.214 3.47988C162.538 3.80639 162.826 4.14363 163.088 4.5174C163.138 4.58399 163.186 4.6506 163.233 4.71719C163.52 5.12962 163.77 5.57643 163.974 6.03613C164.01 6.1199 164.045 6.20154 164.078 6.28316L164.203 6.59893L164.316 6.9233C164.319 6.92974 164.321 6.93618 164.323 6.94263C164.433 7.23047 164.513 7.53121 164.563 7.83839C164.569 7.87276 164.574 7.90498 164.58 7.93935C164.609 8.07253 164.635 8.21217 164.658 8.34965C164.674 8.44416 164.69 8.53651 164.705 8.62888L164.72 8.85014L164.731 8.99193L164.754 9.31844L164.756 9.34207L164.767 9.70509V25.2445L157.787 28.8555V9.70509C157.787 8.66755 156.923 7.78899 155.883 7.78899H5.81426C4.76033 7.78899 3.88432 8.66755 3.88432 9.70509V75.1794ZM164.767 44.2445H157.787V29.2829L164.767 25.672V44.2445Z" fill="#AAACBA"/>
</svg>
