<svg width="95" height="10" viewBox="0 0 95 10" fill="none" xmlns="http://www.w3.org/2000/svg">
<path d="M89.9247 9.7467H5.18832C2.57408 9.7467 0.445312 7.61879 0.445312 4.99981C0.445312 2.38772 2.57408 0.260673 5.18832 0.260673H89.9247C92.541 0.260673 94.6677 2.38944 94.6677 5.0067C94.6677 7.62051 92.541 9.7467 89.9247 9.7467ZM88.9365 3.1909C88 3.1909 87.2395 3.95347 87.2395 4.89005C87.2395 5.82641 88 6.58921 88.9365 6.58921C89.8731 6.58921 90.6335 5.82641 90.6335 4.89005C90.6335 3.95347 89.8731 3.1909 88.9365 3.1909ZM78.4022 3.1909C77.4656 3.1909 76.7052 3.95347 76.7052 4.89005C76.7052 5.82641 77.4656 6.58921 78.4022 6.58921C79.3388 6.58921 80.0992 5.82641 80.0992 4.89005C80.0992 3.95347 79.3388 3.1909 78.4022 3.1909ZM67.8679 3.1909C66.9313 3.1909 66.1709 3.95347 66.1709 4.89005C66.1709 5.82641 66.9313 6.58921 67.8679 6.58921C68.8045 6.58921 69.5649 5.82641 69.5649 4.89005C69.5649 3.95347 68.8045 3.1909 67.8679 3.1909ZM57.3336 3.1909C56.397 3.1909 55.6366 3.95347 55.6366 4.89005C55.6366 5.82641 56.397 6.58921 57.3336 6.58921C58.2702 6.58921 59.0306 5.82641 59.0306 4.89005C59.0306 3.95347 58.2702 3.1909 57.3336 3.1909ZM46.7993 3.1909C45.8627 3.1909 45.1023 3.95347 45.1023 4.89005C45.1023 5.82641 45.8627 6.58921 46.7993 6.58921C47.7359 6.58921 48.4963 5.82641 48.4963 4.89005C48.4963 3.95347 47.7359 3.1909 46.7993 3.1909ZM36.265 3.1909C35.3263 3.1909 34.568 3.95347 34.568 4.89005C34.568 5.82641 35.3263 6.58921 36.265 6.58921C37.2016 6.58921 37.962 5.82641 37.962 4.89005C37.962 3.95347 37.2016 3.1909 36.265 3.1909ZM25.7307 3.1909C24.7919 3.1909 24.0337 3.95347 24.0337 4.89005C24.0337 5.82641 24.7919 6.58921 25.7307 6.58921C26.6672 6.58921 27.4277 5.82641 27.4277 4.89005C27.4277 3.95347 26.6672 3.1909 25.7307 3.1909ZM15.1963 3.1909C14.2576 3.1909 13.4993 3.95347 13.4993 4.89005C13.4993 5.82641 14.2576 6.58921 15.1963 6.58921C16.1329 6.58921 16.8933 5.82641 16.8933 4.89005C16.8933 3.95347 16.1329 3.1909 15.1963 3.1909ZM4.66202 3.1909C3.72545 3.1909 2.96504 3.95347 2.96504 4.89005C2.96504 5.82641 3.72545 6.58921 4.66202 6.58921C5.60074 6.58921 6.35903 5.82641 6.35903 4.89005C6.35903 3.95347 5.60074 3.1909 4.66202 3.1909Z" fill="#B8C6E3"/>
</svg>
