<svg width="19" height="51" viewBox="0 0 19 51" fill="none" xmlns="http://www.w3.org/2000/svg">
<path d="M17.7275 50.5352H16.0004L16.009 45.3219H2.62413L2.61983 48.9913C2.03984 48.6322 1.49641 48.215 0.998047 47.7536L1.08825 35.7242L1.92599 0.0437118H3.55857L3.49412 2.83625H16.4687L16.488 0.0437118H18.1012L17.8005 34.9077H17.822L17.779 35.7023V36.2831L17.7275 50.5352V50.5352ZM2.63488 39.548L2.62843 43.7645H16.0111L16.0176 39.548H2.63488ZM2.82179 33.4906L2.77669 34.912H2.79168L2.75948 35.7242L2.74873 36.2722L2.70363 37.6794H16.0713L16.1142 35.7132L16.1443 33.4906H2.82179V33.4906ZM2.93994 27.7334L2.84969 31.6252H16.1593L16.2023 27.7334H2.93994ZM3.0688 21.972L2.98505 25.8663H16.2216L16.2646 21.972H3.0688ZM3.19125 16.2108L3.1182 20.1051H16.2754L16.3205 16.2108H3.19125ZM3.32441 10.4562L3.23636 14.3462H16.3377L16.3806 10.4562H3.32441V10.4562ZM3.45762 4.70746L3.36956 8.58673H16.4L16.4386 4.70746H3.45762Z" fill="#B6BAB8"/>
</svg>
