<svg width="23" height="36" viewBox="0 0 23 36" fill="none" xmlns="http://www.w3.org/2000/svg">
<path d="M0.836331 16.6228C0.200491 17.3038 0.236988 18.3736 0.922234 19.0094C1.2466 19.3144 1.65906 19.4627 2.07364 19.4627C2.52474 19.4627 2.97799 19.2822 3.3088 18.9256L7.00784 14.7948V19.6281L6.51376 33.6036C6.47509 34.6927 7.32791 35.6057 8.41486 35.6465H8.48571C9.54258 35.6465 10.4147 34.8087 10.4534 33.7454L10.8229 23.2691H12.3609L13.7422 33.928C13.8732 34.9226 14.7195 35.6465 15.6969 35.6465L15.9547 35.6293C17.033 35.4897 17.7935 34.4994 17.6539 33.4189L15.6969 18.5497L15.6475 12.5049L19.9738 10.5287C20.4464 10.3139 20.7987 9.89499 20.9297 9.39019L22.6869 2.57425C22.9274 1.64842 22.3711 0.707541 21.4474 0.471249C20.528 0.230662 19.5807 0.787025 19.3444 1.71071L17.7913 7.72971L14.2749 9.33219H8.13344L7.86493 9.36656C7.52553 9.43101 7.20331 9.59855 6.94983 9.86921L0.836331 16.6228" fill="#81B0FF"/>
</svg>
