<svg width="133" height="150" viewBox="0 0 133 150" fill="none" xmlns="http://www.w3.org/2000/svg">
<path d="M131.383 51.6829H130.766V50.6947C130.766 49.6121 129.881 48.7228 128.794 48.7228H127.033V14.3531C127.033 6.65427 120.769 0.390396 113.07 0.390396H19.4472C11.7484 0.390396 5.48455 6.65427 5.48455 14.3531V112.375L5.48025 121.187H3.71879C2.63614 121.187 1.74684 122.076 1.74684 123.159V124.147H1.13033C0.589011 124.147 0.146484 124.59 0.146484 125.133V148.552C0.146484 149.093 0.589011 149.54 1.13033 149.54H11.9804C12.5217 149.54 12.9664 149.093 12.9664 148.552V125.133C12.9664 124.59 12.5217 124.147 11.9804 124.147H11.3639V123.159C11.3639 122.076 10.4746 121.187 9.39194 121.187H7.63266V14.3531C7.63266 7.83788 12.9342 2.5385 19.4472 2.5385H113.07C119.585 2.5385 124.885 7.83788 124.885 14.3531V48.7228H123.126C122.039 48.7228 121.154 49.6121 121.154 50.6947V51.6829H120.537C119.994 51.6829 119.551 52.1254 119.551 52.6688V76.0875C119.551 76.6288 119.994 77.0735 120.537 77.0735H131.383C131.926 77.0735 132.369 76.6288 132.369 76.0875V52.6688C132.369 52.1254 131.926 51.6829 131.383 51.6829Z" fill="#405A91"/>
</svg>
