<svg width="11" height="18" viewBox="0 0 11 18" fill="none" xmlns="http://www.w3.org/2000/svg">
<path d="M2.36385 17.0277H2.35462L2.09786 17.0208C2.09786 17.0208 1.9292 16.7121 1.91074 16.2391C1.69593 16.2262 1.48279 16.2069 1.27302 16.1725C1.15219 16.6258 0.919754 16.89 0.919754 16.89L0.670541 16.843L0.664668 16.8406H0.658794L0.53125 16.8086V0.916704L0.683967 0.880177H0.69068H0.694036L0.945768 0.828623C0.945768 0.828623 1.16561 1.08639 1.28644 1.52461C1.4979 1.49239 1.71523 1.46877 1.93255 1.45373C1.95941 1.00263 2.12303 0.708344 2.12303 0.708344L2.37728 0.701893H2.38399H2.38819L2.64327 0.708344C2.64327 0.708344 2.80691 1.00263 2.8346 1.45373C3.09555 1.47091 3.35231 1.501 3.60573 1.54181C3.73075 1.10145 3.95815 0.845825 3.95815 0.845825L4.20569 0.899529L4.21156 0.901651H4.21744L4.46497 0.963955C4.46497 0.963955 4.55979 1.29047 4.48426 1.74372C4.69237 1.80601 4.89459 1.8769 5.09514 1.95423C5.30911 1.54394 5.5877 1.34202 5.5877 1.34202L5.81929 1.44298L5.82515 1.44728H5.83104L6.05843 1.55898C6.05843 1.55898 6.08529 1.90268 5.91327 2.3366L6.46372 2.66742C6.63825 2.45475 6.82118 2.31728 6.94116 2.23994C7.02508 2.18624 7.07962 2.16259 7.07962 2.16259L7.28603 2.31082L7.29022 2.31512H7.29611V2.31942L7.49498 2.47408C7.49498 2.47408 7.44966 2.81991 7.18535 3.21087L7.65609 3.64909C8.02445 3.3505 8.36765 3.27532 8.36765 3.27532L8.54051 3.46435L8.5447 3.46865L8.54553 3.47295L8.70916 3.66626C8.70916 3.66626 8.59084 4.00138 8.25017 4.3279L8.61769 4.84987C9.03977 4.63506 9.39721 4.63506 9.39721 4.63506L9.52561 4.85202L9.52728 4.85632L9.53147 4.86277L9.65063 5.08834C9.65063 5.08834 9.46434 5.38906 9.0599 5.63824C9.15053 5.83157 9.23611 6.02489 9.31163 6.22682C9.52477 6.16882 9.7144 6.15379 9.85622 6.15379C10.019 6.15379 10.1188 6.17526 10.1188 6.17526L10.2011 6.4137L10.2045 6.4223L10.2053 6.4266L10.2741 6.66934C10.2741 6.66934 10.0274 6.92925 9.58015 7.08821C9.62799 7.29443 9.67161 7.50495 9.70349 7.71546C9.74209 7.71332 9.77902 7.71116 9.81511 7.71116C10.2296 7.71116 10.5074 7.8336 10.5074 7.8336L10.5367 8.08493H10.5376V8.09138V8.09781L10.556 8.3513C10.556 8.3513 10.2598 8.55321 9.78656 8.61551L9.78993 8.84964L9.77902 9.25349C10.2514 9.32653 10.5418 9.53705 10.5418 9.53705L10.5183 9.78624L10.5166 9.79482V9.79912L10.4822 10.0505C10.4822 10.0505 10.2246 10.1579 9.8344 10.1579C9.78405 10.1579 9.73034 10.1557 9.6758 10.1514C9.63888 10.3619 9.5919 10.5681 9.53736 10.7722C9.98376 10.9441 10.2221 11.2061 10.2221 11.2061L10.1465 11.451L10.1457 11.4574L10.1423 11.4617L10.0568 11.7002C10.0568 11.7002 9.97201 11.7152 9.83188 11.7152C9.68672 11.7152 9.48198 11.698 9.24953 11.6315C9.16982 11.8312 9.08172 12.0181 8.98607 12.2071C9.38463 12.4649 9.56505 12.77 9.56505 12.77L9.4417 12.9934L9.43749 12.9955L9.43582 12.9998L9.30156 13.2189C9.30156 13.2189 8.94747 13.2103 8.52538 12.9891L8.14695 13.5003C8.48597 13.8354 8.60007 14.1727 8.60007 14.1727L8.4331 14.3638L8.42973 14.3681L8.42638 14.3746V14.3724L8.25017 14.5572C8.25017 14.5572 7.90194 14.4755 7.53777 14.1662L7.06031 14.5915C7.32296 14.9889 7.36324 15.3455 7.36324 15.3455L7.16102 15.498L7.15597 15.5023H7.15178L6.94116 15.6484C6.94116 15.6484 6.6198 15.498 6.32611 15.12L5.77229 15.4336C5.94431 15.8783 5.91075 16.2348 5.91075 16.2348L5.68168 16.3401L5.67579 16.3444L5.67077 16.3465H5.66993L5.43581 16.4411C5.43581 16.4411 5.15387 16.2263 4.94578 15.8009C4.7444 15.874 4.54217 15.9384 4.33658 15.9943C4.4121 16.4647 4.30721 16.802 4.30721 16.802L4.05969 16.8597H4.05296H4.0471L3.79871 16.9068C3.79871 16.9068 3.56713 16.6383 3.45134 16.179C3.25415 16.2069 3.05695 16.2284 2.85724 16.2413C2.84298 16.2413 2.82871 16.2434 2.81445 16.2434C2.8111 16.3208 2.80354 16.3917 2.79348 16.4604C2.75488 16.7122 2.68019 16.8943 2.64244 16.9755C2.62817 17.0084 2.6181 17.0234 2.6181 17.0234L2.36385 17.0277ZM2.40749 10.9613C1.61369 10.9613 0.970942 11.6035 0.970942 12.3962C0.970942 13.1931 1.61369 13.8354 2.40749 13.8354C3.20296 13.8354 3.84571 13.1931 3.84571 12.3962C3.84571 11.6035 3.20296 10.9613 2.40749 10.9613ZM4.76706 9.69386C5.02717 10.0633 5.45596 10.3039 5.94012 10.3039C6.73391 10.3039 7.3775 9.6595 7.3775 8.8647C7.3775 8.07205 6.73391 7.42975 5.94012 7.42975C5.74797 7.42975 5.5642 7.46627 5.39637 7.535C4.87277 7.74982 4.50357 8.26323 4.50357 8.8647C4.50357 9.17402 4.6009 9.45972 4.76706 9.69386ZM2.35294 8.20094C2.24134 8.20094 2.12806 8.231 2.02486 8.29114C1.71523 8.47373 1.61034 8.86898 1.79242 9.17831C1.91325 9.38668 2.12974 9.50053 2.35294 9.50053C2.46455 9.50053 2.57699 9.47259 2.68019 9.41245C2.98982 9.22986 3.09304 8.83248 2.91262 8.521C2.79095 8.31693 2.57531 8.20094 2.35294 8.20094ZM2.40749 3.89183C1.61369 3.89183 0.970942 4.53839 0.970942 5.33105C0.970942 6.1237 1.61369 6.77029 2.40749 6.77029C3.20296 6.77029 3.84571 6.1237 3.84571 5.33105C3.84571 4.53839 3.20296 3.89183 2.40749 3.89183Z" fill="#CACBCA"/>
</svg>
