<svg width="10" height="10" viewBox="0 0 10 10" fill="none" xmlns="http://www.w3.org/2000/svg">
<path d="M4.86848 9.4939C4.11664 9.4939 3.40993 9.30057 2.79558 8.96117C2.48195 8.78717 2.19195 8.57665 1.93203 8.33391C1.55182 7.97733 1.23818 7.55416 1.00619 7.08158C0.984706 7.03862 0.965365 6.99348 0.943884 6.94837C0.772035 6.56386 0.656047 6.14715 0.604492 5.71108C0.583011 5.54353 0.572266 5.37168 0.572266 5.19983C0.572266 2.82833 2.49697 0.905772 4.86848 0.905772C7.23999 0.905772 9.16469 2.82833 9.16469 5.19983C9.16469 5.38887 9.15182 5.57575 9.12819 5.75834C9.07019 6.20085 8.94558 6.62402 8.763 7.01497C8.53959 7.49185 8.23027 7.92363 7.85435 8.28666C7.58369 8.54873 7.27651 8.77643 6.94356 8.96117C6.32705 9.30057 5.62031 9.4939 4.86848 9.4939" fill="#B8C6E3"/>
</svg>
