<svg width="81" height="75" viewBox="0 0 81 75" fill="none" xmlns="http://www.w3.org/2000/svg">
<path d="M80.0361 74.5439H18.7311L18.7579 71.5819L18.8168 64.9915L18.8217 64.9636H18.5004H17.8585L17.5245 66.6153H16.1074C16.5067 66.4608 16.7894 66.0725 16.7894 65.6166C16.7894 65.6166 16.7911 61.2667 16.7928 57.2132H80.0361V74.5439ZM7.27331 74.5439H0.404297L9.1428 65.2923L7.27331 74.5439ZM17.7638 73.4572H17.1067L17.5733 71.1456H17.7921L17.7846 71.5819L17.7638 73.4572ZM16.1426 73.4549H9.97841L10.022 71.5819L10.0356 71.1497H16.6083L16.1426 73.4549ZM9.00768 73.4549H8.45884L8.92455 71.1497H9.0588L9.04871 71.5819L9.00768 73.4549ZM17.8005 70.0439H17.7964L17.8005 70.0202V70.0439ZM16.8339 70.0355H10.059L10.117 67.7372H17.2981L16.8339 70.0355ZM15.3394 66.6153H13.3039C13.7032 66.4608 13.9861 66.0725 13.9861 65.6166V60.1647L14.6531 59.458V65.6166C14.6531 66.0725 14.9384 66.4608 15.3394 66.6153ZM12.5344 66.6153H10.1387L10.1747 64.97H10.1733L10.1741 64.9636H9.85253H9.45234L11.8479 62.4288C11.8479 64.2934 11.8479 65.6166 11.8479 65.6166C11.8479 66.0725 12.1334 66.4608 12.5344 66.6153ZM80.0361 4.2925H66.7522L70.1063 0.741669H80.0361V4.2925Z" fill="#FAFAF9"/>
</svg>
