<svg width="8" height="8" viewBox="0 0 8 8" fill="none" xmlns="http://www.w3.org/2000/svg">
<rect width="8" height="8" rx="1" fill="#19D16F"/>
<path d="M6.23746 2.40329C6.20648 2.37204 6.16961 2.34725 6.12899 2.33032C6.08837 2.3134 6.0448 2.30469 6.0008 2.30469C5.95679 2.30469 5.91322 2.3134 5.8726 2.33032C5.83198 2.34725 5.79512 2.37204 5.76413 2.40329L3.2808 4.88995L2.23746 3.84329C2.20529 3.81221 2.16731 3.78777 2.12569 3.77137C2.08407 3.75497 2.03963 3.74692 1.9949 3.7477C1.95018 3.74847 1.90604 3.75805 1.86501 3.77588C1.82399 3.79371 1.78688 3.81945 1.7558 3.85162C1.72472 3.88379 1.70028 3.92177 1.68388 3.96339C1.66748 4.00501 1.65943 4.04945 1.66021 4.09418C1.66098 4.13891 1.67056 4.18304 1.68839 4.22407C1.70622 4.2651 1.73196 4.30221 1.76413 4.33329L3.04413 5.61329C3.07512 5.64453 3.11199 5.66933 3.1526 5.68625C3.19322 5.70317 3.23679 5.71189 3.2808 5.71189C3.3248 5.71189 3.36837 5.70317 3.40899 5.68625C3.44961 5.66933 3.48648 5.64453 3.51746 5.61329L6.23746 2.89329C6.2713 2.86207 6.2983 2.82419 6.31677 2.78202C6.33524 2.73986 6.34477 2.69432 6.34477 2.64829C6.34477 2.60225 6.33524 2.55672 6.31677 2.51455C6.2983 2.47238 6.2713 2.4345 6.23746 2.40329Z" fill="white"/>
</svg>
