<svg width="8" height="8" viewBox="0 0 8 8" fill="none" xmlns="http://www.w3.org/2000/svg">
<rect width="8" height="8" rx="3" fill="#19D16F"/>
<path d="M6.23746 2.40332C6.20648 2.37207 6.16961 2.34728 6.12899 2.33035C6.08837 2.31343 6.0448 2.30472 6.0008 2.30472C5.95679 2.30472 5.91322 2.31343 5.8726 2.33035C5.83198 2.34728 5.79512 2.37207 5.76413 2.40332L3.2808 4.88998L2.23746 3.84332C2.20529 3.81224 2.16731 3.7878 2.12569 3.7714C2.08407 3.755 2.03963 3.74695 1.9949 3.74773C1.95018 3.7485 1.90604 3.75808 1.86501 3.77591C1.82399 3.79374 1.78688 3.81948 1.7558 3.85165C1.72472 3.88382 1.70028 3.92181 1.68388 3.96342C1.66748 4.00504 1.65943 4.04948 1.66021 4.09421C1.66098 4.13894 1.67056 4.18307 1.68839 4.2241C1.70622 4.26513 1.73196 4.30224 1.76413 4.33332L3.04413 5.61332C3.07512 5.64456 3.11199 5.66936 3.1526 5.68628C3.19322 5.7032 3.23679 5.71192 3.2808 5.71192C3.3248 5.71192 3.36837 5.7032 3.40899 5.68628C3.44961 5.66936 3.48648 5.64456 3.51746 5.61332L6.23746 2.89332C6.2713 2.8621 6.2983 2.82422 6.31677 2.78205C6.33524 2.73989 6.34477 2.69435 6.34477 2.64832C6.34477 2.60228 6.33524 2.55675 6.31677 2.51458C6.2983 2.47242 6.2713 2.43453 6.23746 2.40332V2.40332Z" fill="white"/>
</svg>
