<svg width="8" height="8" viewBox="0 0 8 8" fill="none" xmlns="http://www.w3.org/2000/svg">
<rect width="8" height="8" rx="1" fill="#19D16F"/>
<path d="M6.23746 2.40335C6.20648 2.37211 6.16961 2.34731 6.12899 2.33038C6.08837 2.31346 6.0448 2.30475 6.0008 2.30475C5.95679 2.30475 5.91322 2.31346 5.8726 2.33038C5.83198 2.34731 5.79512 2.37211 5.76413 2.40335L3.2808 4.89001L2.23746 3.84335C2.20529 3.81227 2.16731 3.78783 2.12569 3.77143C2.08407 3.75503 2.03963 3.74698 1.9949 3.74776C1.95018 3.74853 1.90604 3.75811 1.86501 3.77594C1.82399 3.79377 1.78688 3.81951 1.7558 3.85168C1.72472 3.88386 1.70028 3.92184 1.68388 3.96345C1.66748 4.00507 1.65943 4.04951 1.66021 4.09424C1.66098 4.13897 1.67056 4.1831 1.68839 4.22413C1.70622 4.26516 1.73196 4.30227 1.76413 4.33335L3.04413 5.61335C3.07512 5.64459 3.11199 5.66939 3.1526 5.68631C3.19322 5.70323 3.23679 5.71195 3.2808 5.71195C3.3248 5.71195 3.36837 5.70323 3.40899 5.68631C3.44961 5.66939 3.48648 5.64459 3.51746 5.61335L6.23746 2.89335C6.2713 2.86213 6.2983 2.82425 6.31677 2.78208C6.33524 2.73992 6.34477 2.69438 6.34477 2.64835C6.34477 2.60231 6.33524 2.55678 6.31677 2.51461C6.2983 2.47245 6.2713 2.43456 6.23746 2.40335Z" fill="white"/>
</svg>
