<svg width="16" height="16" viewBox="0 0 16 16" fill="none" xmlns="http://www.w3.org/2000/svg">
<path d="M12.6673 2.66663H3.33398C2.80355 2.66663 2.29484 2.87734 1.91977 3.25241C1.5447 3.62749 1.33398 4.13619 1.33398 4.66663V11.3333C1.33398 11.8637 1.5447 12.3724 1.91977 12.7475C2.29484 13.1226 2.80355 13.3333 3.33398 13.3333H12.6673C13.1978 13.3333 13.7065 13.1226 14.0815 12.7475C14.4566 12.3724 14.6673 11.8637 14.6673 11.3333V4.66663C14.6673 4.13619 14.4566 3.62749 14.0815 3.25241C13.7065 2.87734 13.1978 2.66663 12.6673 2.66663ZM3.33398 3.99996H12.6673C12.8441 3.99996 13.0137 4.0702 13.1387 4.19522C13.2637 4.32025 13.334 4.48981 13.334 4.66663L8.00065 7.91996L2.66732 4.66663C2.66732 4.48981 2.73756 4.32025 2.86258 4.19522C2.9876 4.0702 3.15717 3.99996 3.33398 3.99996ZM13.334 11.3333C13.334 11.5101 13.2637 11.6797 13.1387 11.8047C13.0137 11.9297 12.8441 12 12.6673 12H3.33398C3.15717 12 2.9876 11.9297 2.86258 11.8047C2.73756 11.6797 2.66732 11.5101 2.66732 11.3333V6.18663L7.65398 9.23329C7.75533 9.2918 7.87029 9.32261 7.98732 9.32261C8.10434 9.32261 8.21931 9.2918 8.32065 9.23329L13.334 6.18663V11.3333Z" fill="white"/>
</svg>
