<svg width="16" height="16" viewBox="0 0 16 16" fill="none" xmlns="http://www.w3.org/2000/svg">
<path d="M12.6663 2.66663H3.33301C2.80257 2.66663 2.29387 2.87734 1.91879 3.25241C1.54372 3.62749 1.33301 4.13619 1.33301 4.66663V11.3333C1.33301 11.8637 1.54372 12.3724 1.91879 12.7475C2.29387 13.1226 2.80257 13.3333 3.33301 13.3333H12.6663C13.1968 13.3333 13.7055 13.1226 14.0806 12.7475C14.4556 12.3724 14.6663 11.8637 14.6663 11.3333V4.66663C14.6663 4.13619 14.4556 3.62749 14.0806 3.25241C13.7055 2.87734 13.1968 2.66663 12.6663 2.66663ZM3.33301 3.99996H12.6663C12.8432 3.99996 13.0127 4.0702 13.1377 4.19522C13.2628 4.32025 13.333 4.48981 13.333 4.66663L7.99967 7.91996L2.66634 4.66663C2.66634 4.48981 2.73658 4.32025 2.8616 4.19522C2.98663 4.0702 3.1562 3.99996 3.33301 3.99996ZM13.333 11.3333C13.333 11.5101 13.2628 11.6797 13.1377 11.8047C13.0127 11.9297 12.8432 12 12.6663 12H3.33301C3.1562 12 2.98663 11.9297 2.8616 11.8047C2.73658 11.6797 2.66634 11.5101 2.66634 11.3333V6.18663L7.65301 9.23329C7.75435 9.2918 7.86932 9.32261 7.98634 9.32261C8.10337 9.32261 8.21833 9.2918 8.31967 9.23329L13.333 6.18663V11.3333Z" fill="white"/>
</svg>
