<svg width="16" height="16" viewBox="0 0 16 16" fill="none" xmlns="http://www.w3.org/2000/svg">
<path d="M12.6654 2.66663H3.33203C2.8016 2.66663 2.29289 2.87734 1.91782 3.25241C1.54274 3.62749 1.33203 4.13619 1.33203 4.66663V11.3333C1.33203 11.8637 1.54274 12.3724 1.91782 12.7475C2.29289 13.1226 2.8016 13.3333 3.33203 13.3333H12.6654C13.1958 13.3333 13.7045 13.1226 14.0796 12.7475C14.4547 12.3724 14.6654 11.8637 14.6654 11.3333V4.66663C14.6654 4.13619 14.4547 3.62749 14.0796 3.25241C13.7045 2.87734 13.1958 2.66663 12.6654 2.66663ZM3.33203 3.99996H12.6654C12.8422 3.99996 13.0117 4.0702 13.1368 4.19522C13.2618 4.32025 13.332 4.48981 13.332 4.66663L7.9987 7.91996L2.66536 4.66663C2.66536 4.48981 2.7356 4.32025 2.86063 4.19522C2.98565 4.0702 3.15522 3.99996 3.33203 3.99996ZM13.332 11.3333C13.332 11.5101 13.2618 11.6797 13.1368 11.8047C13.0117 11.9297 12.8422 12 12.6654 12H3.33203C3.15522 12 2.98565 11.9297 2.86063 11.8047C2.7356 11.6797 2.66536 11.5101 2.66536 11.3333V6.18663L7.65203 9.23329C7.75338 9.2918 7.86834 9.32261 7.98536 9.32261C8.10239 9.32261 8.21735 9.2918 8.3187 9.23329L13.332 6.18663V11.3333Z" fill="white"/>
</svg>
