<svg width="19" height="20" viewBox="0 0 19 20" fill="none" xmlns="http://www.w3.org/2000/svg">
<g clip-path="url(#clip0_117_3039)">
<path d="M14.635 14.1942L18.4031 10.4442C18.4033 10.444 18.4035 10.4437 18.4038 10.4435C18.6862 10.1616 18.6853 9.70355 18.4037 9.42259C18.4035 9.42237 18.4033 9.42212 18.4031 9.4219L14.6349 5.67191C14.3526 5.39099 13.896 5.39203 13.615 5.67436C13.334 5.95666 13.3351 6.41326 13.6174 6.69422L16.1474 9.2119H0.874837C0.476543 9.2119 0.153683 9.53476 0.153683 9.93306C0.153683 10.3313 0.476543 10.6542 0.874837 10.6542H16.1474L13.6175 13.1719C13.3352 13.4529 13.3341 13.9095 13.6151 14.1917C13.8961 14.4741 14.3527 14.4751 14.635 14.1942Z" fill="#8A8FB9"/>
</g>
<defs>
<clipPath id="clip0_117_3039">
<rect width="18.4615" height="18.4615" fill="white" transform="translate(18.6152 0.846069) rotate(90)"/>
</clipPath>
</defs>
</svg>
