<svg width="20" height="20" viewBox="0 0 20 20" fill="none" xmlns="http://www.w3.org/2000/svg">
<g clip-path="url(#clip0_117_3044)">
<path d="M4.90215 6.82545L1.13398 10.5754C1.13376 10.5757 1.13358 10.5759 1.13333 10.5761C0.850927 10.858 0.851829 11.3161 1.1334 11.5971C1.13362 11.5973 1.1338 11.5975 1.13405 11.5977L4.90223 15.3477C5.18452 15.6287 5.64116 15.6276 5.92212 15.3453C6.20308 15.063 6.202 14.6064 5.9197 14.3254L3.38975 11.8077H18.6623C19.0606 11.8077 19.3834 11.4849 19.3834 11.0866C19.3834 10.6883 19.0606 10.3654 18.6623 10.3654H3.38975L5.91963 7.84776C6.20192 7.5668 6.20301 7.1102 5.92205 6.8279C5.64105 6.54554 5.18441 6.54456 4.90215 6.82545Z" fill="#8A8FB9"/>
</g>
<defs>
<clipPath id="clip0_117_3044">
<rect width="18.4615" height="18.4615" fill="white" transform="translate(0.921875 19.3076) rotate(-90)"/>
</clipPath>
</defs>
</svg>
