<svg width="15" height="19" viewBox="0 0 15 19" fill="none" xmlns="http://www.w3.org/2000/svg">
<path opacity="0.8" d="M6.46139 18.6083V17.27C5.97256 17.4177 4.77492 17.4982 3.89503 16.6389C2.79516 15.5646 0.595421 14.1323 0.778733 12.1629C0.962044 10.1935 0.778733 8.22411 0.962044 8.04507C1.14536 7.86603 2.42854 5.71758 3.89503 8.22411C4.81159 10.9098 4.62828 10.9098 4.81159 11.8049C4.9949 12.7001 5.36152 13.5953 5.91146 13.7743C6.46139 13.9534 6.6447 13.0582 6.6447 9.65649V6.79189C7.07243 5.41926 8.25784 3.49757 9.57769 6.79189V8.58235C9.94431 8.82106 10.7142 8.97623 10.8609 7.68716C11.0442 6.07582 11.2275 2.85315 11.2275 2.67411C11.2275 2.53088 11.3497 2.137 11.4108 1.95796C11.8996 0.943419 13.1706 -0.476944 14.3438 1.95796C14.6371 2.67405 14.7104 3.09178 14.7104 3.21114L14.8937 6.25478L14.5271 8.7613C14.0383 9.35809 13.0239 10.5875 12.8773 10.7307C12.694 10.9097 10.6776 12.163 10.1276 11.984C9.68767 11.8407 9.57769 11.9243 9.57769 11.984L9.39438 18.7874H6.46139V18.6083Z" fill="#6CDD6C"/>
</svg>
