<svg width="28" height="64" viewBox="0 0 28 64" fill="none" xmlns="http://www.w3.org/2000/svg">
<path d="M11.6639 33.8199V31.3597C10.7863 31.6312 8.63597 31.7792 7.05616 30.1994C5.08139 28.2246 1.13186 25.5916 1.46099 21.9712C1.79012 18.3508 1.46099 14.7304 1.79012 14.4013C2.11924 14.0722 4.42314 10.1226 7.05616 14.7304C8.7018 19.6675 8.37267 19.6675 8.7018 21.3131C9.03092 22.9588 9.68918 24.6044 10.6766 24.9335C11.6639 25.2627 11.9931 23.617 11.9931 17.3636V12.0976C12.761 9.57421 14.8894 6.04153 17.2591 12.0976V15.389C17.9174 15.8278 19.2997 16.1131 19.563 13.7433C19.8921 10.7812 20.2213 4.85689 20.2213 4.52776C20.2213 4.26446 20.4407 3.54038 20.5504 3.21125C21.4281 1.3462 23.71 -1.26488 25.8164 3.21125C26.343 4.52764 26.4747 5.29557 26.4747 5.51499L26.8038 11.1102L26.1456 15.7179C25.2679 16.815 23.4467 19.075 23.1834 19.3383C22.8543 19.6675 19.2339 21.9714 18.2465 21.6422C17.4566 21.3789 17.2591 21.5325 17.2591 21.6422L16.93 34.1491H11.6639V33.8199Z" fill="#6CDD6C"/>
<path d="M0.802734 43.0354L5.41052 62.454H22.5252L26.4747 43.0354M11.9931 17.3636C11.9931 23.617 11.6639 25.2627 10.6766 24.9335C9.68918 24.6044 9.03092 22.9588 8.7018 21.3131C8.37267 19.6675 8.7018 19.6675 7.05616 14.7304C4.42314 10.1226 2.11924 14.0722 1.79012 14.4013C1.46099 14.7304 1.79012 18.3508 1.46099 21.9712C1.13186 25.5916 5.08139 28.2246 7.05616 30.1994C8.63597 31.7792 10.7863 31.6312 11.6639 31.3597V33.8199V34.1491H16.93L17.2591 21.6422C17.2591 21.5325 17.4566 21.3789 18.2465 21.6422C19.2339 21.9714 22.8543 19.6675 23.1834 19.3383C23.4467 19.075 25.2679 16.815 26.1456 15.7179L26.8038 11.1102L26.4747 5.51499C26.4747 5.29557 26.343 4.52764 25.8164 3.21125C23.71 -1.26488 21.4281 1.3462 20.5504 3.21125C20.4407 3.54038 20.2213 4.26446 20.2213 4.52776C20.2213 4.85689 19.8921 10.7812 19.563 13.7433C19.2997 16.1131 17.9174 15.8278 17.2591 15.389M11.9931 17.3636C11.9931 12.3609 11.9931 11.7684 11.9931 12.0976M11.9931 17.3636V12.0976M11.9931 12.0976C12.761 9.57421 14.8894 6.04153 17.2591 12.0976M17.2591 12.0976C17.2591 14.2038 17.2591 15.1695 17.2591 15.389M17.2591 12.0976V15.389" stroke="#59AF59" stroke-width="1.31651" stroke-linecap="round" stroke-linejoin="round"/>
</svg>
